<?xml version="1.0" encoding="utf-8"?>
<!-- Generator: Adobe Illustrator 12.0.0, SVG Export Plug-In . SVG Version: 6.00 Build 51448)  -->
<!DOCTYPE svg PUBLIC "-//W3C//DTD SVG 1.1//EN" "http://www.w3.org/Graphics/SVG/1.1/DTD/svg11.dtd" [
	<!ENTITY ns_svg "http://www.w3.org/2000/svg">
	<!ENTITY ns_xlink "http://www.w3.org/1999/xlink">
]>
<svg  version="1.1" xmlns="&ns_svg;" xmlns:xlink="&ns_xlink;" width="250.635" height="50.634" viewBox="0 0 250.635 50.634"
	 overflow="visible" enable-background="new 0 0 250.635 50.634" xml:space="preserve">
<g id="Layer_1">
	<polygon display="none" fill="#F6F6E3" points="179.995,18.989 180.121,18.989 164.707,50.306 158.335,50.301 174.042,18.99 	"/>
</g>
<g id="Layer_2">
	<rect x="0.333" y="0.306" fill="#EE508C" width="250" height="50"/>
	<path fill="#F6F6E3" d="M215.526,0.516"/>
	<path fill="#F6F6E3" d="M195.287,50.634"/>
	<line fill="#F6F6E3" x1="0.049" y1="0.295" x2="8.273" y2="0.285"/>
	<polygon fill="#F6F6E3" points="0.049,0.295 0,0.392 0,16.631 8.273,0.285 	"/>
	<line fill="#F6F6E3" x1="16.871" y1="0.275" x2="25.096" y2="0.265"/>
	<polygon fill="#F6F6E3" points="16.871,0.275 0,33.61 0,49.851 25.096,0.265 	"/>
	<polygon fill="#F6F6E3" points="41.918,0.245 33.692,0.254 8.35,50.328 16.565,50.337 	"/>
	<line fill="#F6F6E3" x1="16.565" y1="50.337" x2="8.35" y2="50.328"/>
	<line fill="#F6F6E3" x1="33.692" y1="0.254" x2="41.918" y2="0.245"/>
	<line fill="#F6F6E3" x1="50.515" y1="0.234" x2="58.739" y2="0.225"/>
	<polygon fill="#F6F6E3" points="58.739,0.225 50.515,0.234 25.152,50.347 33.367,50.357 	"/>
	<line fill="#F6F6E3" x1="33.367" y1="50.357" x2="25.152" y2="50.347"/>
	<line fill="#F6F6E3" x1="67.337" y1="0.214" x2="75.562" y2="0.204"/>
	<polygon fill="#F6F6E3" points="75.562,0.204 67.337,0.214 41.954,50.368 50.169,50.377 	"/>
	<line fill="#F6F6E3" x1="50.169" y1="50.377" x2="41.954" y2="50.368"/>
	<line fill="#F6F6E3" x1="84.159" y1="0.194" x2="92.383" y2="0.184"/>
	<polygon fill="#F6F6E3" points="92.383,0.184 84.159,0.194 58.755,50.388 66.97,50.398 	"/>
	<line fill="#F6F6E3" x1="66.97" y1="50.398" x2="58.755" y2="50.388"/>
	<line fill="#F6F6E3" x1="101.354" y1="0.173" x2="109.578" y2="0.164"/>
	<line fill="#F6F6E3" x1="84.144" y1="50.418" x2="75.93" y2="50.409"/>
	<polygon fill="#F6F6E3" points="109.578,0.164 101.354,0.173 75.93,50.409 84.144,50.418 	"/>
	<line fill="#F6F6E3" x1="118.176" y1="0.153" x2="126.401" y2="0.143"/>
	<polygon fill="#F6F6E3" points="126.401,0.143 118.176,0.153 92.731,50.428 100.946,50.439 	"/>
	<line fill="#F6F6E3" x1="100.946" y1="50.439" x2="92.731" y2="50.428"/>
	<line fill="#F6F6E3" x1="134.997" y1="0.133" x2="143.222" y2="0.123"/>
	<polygon fill="#F6F6E3" points="143.222,0.123 134.997,0.133 109.531,50.449 117.746,50.458 	"/>
	<line fill="#F6F6E3" x1="117.746" y1="50.458" x2="109.531" y2="50.449"/>
	<line fill="#F6F6E3" x1="151.819" y1="0.113" x2="160.045" y2="0.103"/>
	<polygon fill="#F6F6E3" points="160.045,0.103 151.819,0.113 126.333,50.469 134.549,50.479 	"/>
	<line fill="#F6F6E3" x1="134.549" y1="50.479" x2="126.333" y2="50.469"/>
	<line fill="#F6F6E3" x1="168.642" y1="0.092" x2="176.865" y2="0.083"/>
	<polygon fill="#F6F6E3" points="176.865,0.083 168.642,0.092 143.136,50.489 151.349,50.5 	"/>
	<line fill="#F6F6E3" x1="151.349" y1="50.5" x2="143.136" y2="50.489"/>
	<polygon fill="#F6F6E3" points="193.688,0.063 185.463,0.072 159.937,50.509 168.15,50.519 	"/>
	<line fill="#F6F6E3" x1="168.15" y1="50.519" x2="159.937" y2="50.509"/>
	<line fill="#F6F6E3" x1="185.463" y1="0.072" x2="193.688" y2="0.063"/>
	<line fill="#F6F6E3" x1="203.78" y1="0.05" x2="212.005" y2="0.041"/>
	<polygon fill="#F6F6E3" points="212.005,0.041 203.78,0.05 178.231,50.532 186.445,50.542 	"/>
	<line fill="#F6F6E3" x1="186.445" y1="50.542" x2="178.231" y2="50.532"/>
	<line fill="#F6F6E3" x1="220.602" y1="0.03" x2="228.827" y2="0.02"/>
	<polygon fill="#F6F6E3" points="228.827,0.02 220.602,0.03 195.032,50.551 203.248,50.561 	"/>
	<line fill="#F6F6E3" x1="203.248" y1="50.561" x2="195.032" y2="50.551"/>
	<polygon fill="#F6F6E3" points="245.649,0 237.425,0.01 211.835,50.572 220.049,50.582 	"/>
	<line fill="#F6F6E3" x1="220.049" y1="50.582" x2="211.835" y2="50.572"/>
	<polygon fill="#F6F6E3" points="228.637,50.592 236.851,50.602 250.497,23.639 250.414,7.563 	"/>
	<line fill="#F6F6E3" x1="236.851" y1="50.602" x2="228.637" y2="50.592"/>
	<polygon fill="#F6F6E3" points="245.437,50.612 250.635,50.619 250.583,40.445 	"/>
	<path fill="#F6F6E3" d="M245.437,50.612"/>
	<rect x="0.333" y="43.64" opacity="0.39" fill="#CC377C" width="250.302" height="6.979"/>
</g>
</svg>
