<?xml version="1.0" encoding="utf-8"?>
<!-- Generator: Adobe Illustrator 12.0.0, SVG Export Plug-In . SVG Version: 6.00 Build 51448)  -->
<!DOCTYPE svg PUBLIC "-//W3C//DTD SVG 1.1//EN" "http://www.w3.org/Graphics/SVG/1.1/DTD/svg11.dtd" [
	<!ENTITY ns_svg "http://www.w3.org/2000/svg">
	<!ENTITY ns_xlink "http://www.w3.org/1999/xlink">
]>
<svg  version="1.1" id="Layer_1" xmlns="&ns_svg;" xmlns:xlink="&ns_xlink;" width="233.725" height="310.229"
	 viewBox="0 0 233.725 310.229" overflow="visible" enable-background="new 0 0 233.725 310.229" xml:space="preserve">
<g opacity="0.08">
	<g>
		<defs>
			<rect id="XMLID_1_" x="34.513" y="242.328" width="165.758" height="67.9"/>
		</defs>
		<clipPath id="XMLID_11_">
			<use xlink:href="#XMLID_1_" />
		</clipPath>
		<path clip-path="url(#XMLID_11_)" fill="#BF792A" d="M200.271,276.277c0,18.75-37.104,33.951-82.879,33.951
			c-45.773,0-82.879-15.201-82.879-33.951s37.106-33.949,82.879-33.949C163.166,242.328,200.271,257.527,200.271,276.277"/>
	</g>
</g>
<path fill="#E93939" d="M14.661,170.301c1.399,38.949,21.631,74.914,33.307,113.131c2.572,1.191,5.155,2.314,7.749,3.371
	c-9.854-38.033-26.834-74.354-29.442-110.008C22.369,174.756,18.492,172.596,14.661,170.301"/>
<path fill="#FBC6A7" d="M26.275,176.795c2.608,35.654,19.587,71.975,29.442,110.008c2.595,1.057,5.201,2.047,7.818,2.972
	c-8.598-40.151-24.198-78.739-25.823-113.56C33.877,176.41,30.063,176.604,26.275,176.795"/>
<path fill="#E93939" d="M37.712,176.215c1.625,34.82,17.225,73.408,25.823,113.559c2.617,0.924,5.247,1.781,7.887,2.572
	c-7.019-39.68-19.626-78.348-21.953-110.711C45.529,179.936,41.605,178.135,37.712,176.215"/>
<path fill="#FBC6A7" d="M49.469,181.635C51.797,214,64.403,252.666,71.423,292.346c2.64,0.791,5.293,1.518,7.955,2.176
	c-5.864-41.586-16.881-82.434-18.37-113.871C57.141,180.986,53.294,181.313,49.469,181.635"/>
<path fill="#E93939" d="M61.008,180.65c1.489,31.438,12.506,72.285,18.37,113.871c2.662,0.66,5.335,1.254,8.016,1.781
	c-4.492-40.844-12.808-81.385-14.554-111.23C68.888,183.686,64.94,182.219,61.008,180.65"/>
<path fill="#FBC6A7" d="M72.84,185.072c1.746,29.848,10.062,70.387,14.554,111.23c2.681,0.527,5.371,0.988,8.068,1.383
	c-3.403-42.531-9.947-85.029-10.982-114.076C80.583,184.115,76.7,184.602,72.84,185.072"/>
<path fill="#E93939" d="M84.48,183.609c1.035,29.045,7.579,71.545,10.982,114.076c2.697,0.396,5.4,0.725,8.109,0.988
	c-2.188-41.531-6.313-83.277-7.248-111.547C92.378,186.021,88.427,184.854,84.48,183.609"/>
<path fill="#FBC6A7" d="M96.324,187.127c0.935,28.27,5.061,70.016,7.248,111.547c2.709,0.264,5.422,0.461,8.137,0.594
	c-1.114-42.998-3.283-86.37-3.653-114.18C104.131,185.801,100.219,186.479,96.324,187.127"/>
<path fill="#E93939" d="M108.056,185.088c0.37,27.811,2.538,71.182,3.653,114.18c2.716,0.131,5.435,0.197,8.154,0.197V187.811
	C115.937,186.951,112,186.047,108.056,185.088"/>
<path fill="#FBC6A7" d="M119.862,187.811v111.654c2.718,0,5.438-0.066,8.153-0.197c1.115-42.998,3.284-86.369,3.654-114.18
	C127.726,186.047,123.787,186.951,119.862,187.811"/>
<path fill="#E93939" d="M131.67,185.088c-0.371,27.811-2.54,71.182-3.654,114.18c2.717-0.133,5.428-0.33,8.137-0.594
	c2.188-41.531,6.313-83.277,7.248-111.547C139.506,186.479,135.594,185.801,131.67,185.088"/>
<path fill="#FBC6A7" d="M143.4,187.127c-0.935,28.27-5.06,70.016-7.248,111.547c2.709-0.264,5.414-0.592,8.11-0.988
	c3.403-42.531,9.948-85.029,10.983-114.076C151.298,184.855,147.346,186.021,143.4,187.127"/>
<path fill="#E93939" d="M155.246,183.609c-1.036,29.047-7.58,71.545-10.982,114.076c2.696-0.395,5.387-0.857,8.067-1.385
	c4.493-40.842,12.81-81.381,14.556-111.229C163.025,184.6,159.143,184.115,155.246,183.609"/>
<path fill="#FBC6A7" d="M166.886,185.072c-1.746,29.848-10.062,70.387-14.554,111.229c2.681-0.527,5.353-1.119,8.015-1.779
	c5.864-41.588,16.881-82.434,18.37-113.871C174.785,182.218,170.837,183.686,166.886,185.072"/>
<path fill="#E93939" d="M178.717,180.65c-1.488,31.438-12.506,72.285-18.37,113.871c2.662-0.658,5.313-1.383,7.955-2.176
	c7.019-39.68,19.625-78.348,21.953-110.711C186.431,181.313,182.584,180.986,178.717,180.65"/>
<path fill="#F3DDCA" d="M202.015,176.215h-0.002H202.015z"/>
<path fill="#FBC6A7" d="M190.255,181.635c-2.328,32.365-14.935,71.031-21.953,110.711c2.64-0.791,5.269-1.648,7.888-2.572
	c8.599-40.15,24.198-78.738,25.823-113.559C198.119,178.135,194.195,179.936,190.255,181.635"/>
<path fill="#E93939" d="M202.015,176.215h-0.002c-1.625,34.82-17.226,73.408-25.824,113.559h0.002
	c2.617-0.924,5.222-1.914,7.816-2.971c9.856-38.033,26.834-74.354,29.442-110.008C209.66,176.604,205.849,176.41,202.015,176.215"/>
<path fill="#FBC6A7" d="M213.448,176.795c-2.606,35.654-19.586,71.975-29.44,110.008c2.592-1.057,5.176-2.18,7.75-3.371
	c11.674-38.217,31.905-74.182,33.306-113.131C221.231,172.594,217.356,174.754,213.448,176.795"/>
<g>
	<g>
		<defs>
			<rect id="XMLID_3_" x="14.645" y="170.699" width="178.744" height="129.164"/>
		</defs>
		<clipPath id="XMLID_12_">
			<use xlink:href="#XMLID_3_" />
		</clipPath>
		<path clip-path="url(#XMLID_12_)" fill="#FDECE3" d="M188.538,280.701c-2.595,1.057-5.2,2.047-7.817,2.971l0,0
			c-2.619,0.924-5.248,1.781-7.889,2.572c-2.643,0.793-5.292,1.518-7.955,2.176c-2.661,0.66-5.333,1.252-8.015,1.779
			c-2.683,0.527-5.371,0.99-8.069,1.385c-2.697,0.396-5.4,0.725-8.109,0.988s-5.422,0.461-8.138,0.594
			c-2.716,0.131-5.435,0.197-8.153,0.197s-5.438-0.066-8.153-0.197c-2.715-0.133-5.429-0.33-8.137-0.594
			c-2.709-0.264-5.413-0.592-8.109-0.988c-2.698-0.395-5.388-0.855-8.069-1.383c-2.681-0.527-5.354-1.121-8.016-1.781
			c-2.662-0.658-5.314-1.385-7.955-2.176s-5.27-1.648-7.887-2.572c-2.618-0.924-5.224-1.914-7.819-2.971
			c-2.594-1.057-5.177-2.18-7.749-3.371c-10.715-35.074-28.627-68.254-32.584-103.582c-1.764-0.992-3.522-2.002-5.27-3.049
			c1.399,38.949,21.632,74.914,33.308,113.131c2.571,1.191,5.154,2.314,7.749,3.371c2.594,1.057,5.2,2.047,7.818,2.971
			c2.617,0.924,5.247,1.781,7.887,2.572c2.641,0.791,5.293,1.518,7.955,2.176c2.662,0.66,5.335,1.254,8.016,1.781
			c2.682,0.527,5.371,0.988,8.069,1.383c2.696,0.396,5.4,0.725,8.109,0.988s5.422,0.461,8.137,0.594
			c2.717,0.131,5.435,0.197,8.155,0.197c2.718,0,5.437-0.066,8.152-0.197c2.716-0.133,5.429-0.33,8.138-0.594
			s5.412-0.592,8.109-0.988c2.697-0.395,5.387-0.857,8.068-1.385s5.354-1.119,8.016-1.779c2.663-0.658,5.313-1.383,7.955-2.176
			c2.641-0.791,5.271-1.648,7.888-2.572h0.001c2.617-0.924,5.223-1.914,7.817-2.971c2.594-1.057,5.178-2.18,7.748-3.371
			c0.53-1.738,1.086-3.469,1.649-5.197C191.773,279.346,190.159,280.041,188.538,280.701"/>
	</g>
</g>
<g opacity="0.27">
	<g>
		<defs>
			<rect id="XMLID_5_" x="14.662" y="171.98" width="210.403" height="122.029"/>
		</defs>
		<clipPath id="XMLID_13_">
			<use xlink:href="#XMLID_5_" />
		</clipPath>
		<path clip-path="url(#XMLID_13_)" fill="#CE3876" d="M213.449,178.475c-3.787-0.191-7.6-0.385-11.434-0.58h-0.002l0,0
			c-3.894,1.92-7.817,3.721-11.758,5.42c-3.824-0.322-7.672-0.648-11.539-0.984c-3.931,1.568-7.879,3.035-11.83,4.422
			c-3.86-0.473-7.742-0.957-11.641-1.463c-3.947,1.246-7.9,2.412-11.845,3.518c-3.894-0.648-7.806-1.326-11.731-2.039
			c-3.943,0.959-7.882,1.863-11.807,2.723c-3.926-0.859-7.863-1.764-11.807-2.723c-3.925,0.713-7.837,1.391-11.732,2.039
			c-3.945-1.105-7.896-2.273-11.844-3.518c-3.898,0.506-7.779,0.992-11.639,1.463c-3.953-1.387-7.901-2.854-11.832-4.422
			c-3.868,0.336-7.715,0.662-11.539,0.984c-3.94-1.699-7.865-3.5-11.757-5.42c-3.836,0.195-7.649,0.389-11.437,0.58
			c-3.907-2.039-7.784-4.199-11.615-6.494c0.404,11.242,2.383,22.234,5.266,33.105c0.546,0.24,1.09,0.493,1.637,0.729
			c3.825-0.322,7.672-0.648,11.539-0.984c3.932,1.568,7.881,3.035,11.832,4.422c3.861-0.471,7.742-0.957,11.641-1.463
			c3.946,1.244,7.897,2.412,11.843,3.518c3.895-0.648,7.807-1.326,11.732-2.039c3.944,0.959,7.882,1.863,11.807,2.723
			c3.925-0.859,7.863-1.764,11.807-2.723c3.924,0.713,7.836,1.391,11.731,2.039c3.945-1.105,7.896-2.271,11.846-3.518
			c3.896,0.506,7.779,0.99,11.64,1.463c3.95-1.387,7.899-2.854,11.831-4.422c3.867,0.336,7.714,0.662,11.537,0.984
			c3.941-1.699,7.865-3.5,11.759-5.42h0.001h0.001c3.834,0.195,7.647,0.389,11.435,0.58c3.906-2.041,7.782-4.201,11.614-6.494
			c-1.233,34.297-17.065,66.283-28.804,99.529c2.623-0.787,5.234-1.639,7.834-2.556h0.002c2.617-0.925,5.223-1.915,7.816-2.972
			s5.178-2.18,7.75-3.371c11.674-38.217,31.906-74.182,33.307-113.131C221.232,174.273,217.356,176.434,213.449,178.475"/>
	</g>
</g>
<path fill="#513119" d="M233.725,162.096c0,19.635-52.084,35.553-116.333,35.553S1.058,181.73,1.058,162.096
	s52.085-35.551,116.334-35.551S233.725,142.461,233.725,162.096"/>
<path fill="#70482B" d="M132.287,189.883c-64.249,0-116.333-15.918-116.333-35.553c0-5.093,3.512-9.936,9.825-14.316
	C9.659,146.115,0,153.879,0,162.33c0,19.635,52.085,35.553,116.334,35.553c47.582,0,88.483-8.732,106.508-21.236
	C201.516,184.719,168.877,189.883,132.287,189.883"/>
<path fill="#3A291D" d="M190.815,135.385c19.99,6.385,32.271,15.041,32.271,24.574c0,19.635-52.084,35.553-116.333,35.553
	c-27.844,0-53.4-2.992-73.425-7.979c21.178,6.766,51.01,10.979,84.063,10.979c64.249,0,116.333-15.918,116.333-35.553
	C233.725,151.834,216.998,141.904,190.815,135.385"/>
<path fill="#9B7E50" d="M10.673,151.984c0,0-8.718,7.746,0,16.963c8.718,9.219,41.051,16.648,41.051,16.648
	S5.623,170.803,10.673,151.984"/>
<g opacity="0.46">
	<g>
		<defs>
			<rect id="XMLID_7_" x="23.683" y="208.162" width="182.553" height="88.523"/>
		</defs>
		<clipPath id="XMLID_14_">
			<use xlink:href="#XMLID_7_" />
		</clipPath>
		<path clip-path="url(#XMLID_14_)" fill="#CE2D2E" d="M50.438,230.67c-0.509-4.959-0.797-9.887-0.868-14.768
			c-4.094,2.654-8.361,5.148-12.792,7.463c-4.418-2.002-8.786-4.264-13.094-6.76c3.037,9.25,6.533,18.451,10.08,27.682
			c0.201,0.027,0.404,0.063,0.605,0.088c4.102,4.705,8.517,9.234,13.232,13.555c0.714-4.779,1.516-9.535,2.406-14.264
			c5.423-1.281,10.65-2.85,15.66-4.672C60.426,236.508,55.341,233.73,50.438,230.67"/>
		<path clip-path="url(#XMLID_14_)" fill="#CE2D2E" d="M89.361,282.855c-1.724-3.088-3.35-6.197-4.878-9.324
			c-2.457,2.467-5.003,4.886-7.637,7.25c-4.732-0.482-9.47-1.148-14.203-2c2.74,3.059,5.616,6.057,8.626,8.986
			c-0.593,1.129-1.196,2.256-1.8,3.381c0.52,0.162,1.038,0.332,1.559,0.488c2.641,0.791,5.293,1.518,7.956,2.176
			c2.662,0.66,5.335,1.252,8.016,1.779c2.076,0.408,4.16,0.766,6.247,1.094c-0.304-1.807-0.599-3.613-0.878-5.422
			c3.782-1.803,7.453-3.715,11.009-5.725C98.66,284.818,93.985,283.922,89.361,282.855"/>
		<path clip-path="url(#XMLID_14_)" fill="#CE2D2E" d="M139.945,261.73c-1.672-1.834-3.296-3.691-4.872-5.572
			c-1.043,2.221-2.138,4.43-3.284,6.629c-3.012,0.65-6.05,1.217-9.107,1.703c2.306,1.496,4.674,2.943,7.102,4.342
			c-0.336,2.311-0.691,4.621-1.07,6.93c2.85-1.305,5.642-2.678,8.373-4.113c3.01,0.691,6.063,1.307,9.158,1.84
			c-0.957-2.135-1.894-4.277-2.81-6.428c1.995-1.971,3.921-3.977,5.778-6.012C146.118,261.363,143.028,261.59,139.945,261.73"/>
		<path clip-path="url(#XMLID_14_)" fill="#CE2D2E" d="M95.483,226.818c-1.361,1.896-2.771,3.771-4.228,5.625
			c-2.555-0.088-5.118-0.248-7.688-0.48c1.457,1.973,2.982,3.924,4.575,5.848c-0.851,2.156-1.722,4.305-2.614,6.447
			c2.633-0.59,5.223-1.248,7.767-1.973c2.245,1.4,4.547,2.75,6.906,4.043c-0.261-2.305-0.501-4.611-0.719-6.916
			c2.059-1.41,4.059-2.863,5.997-4.355c-2.521-0.486-5.021-1.043-7.496-1.664C97.098,231.209,96.265,229.018,95.483,226.818"/>
		<path clip-path="url(#XMLID_14_)" fill="#CE2D2E" d="M184.379,227.529c0.9,3.129,1.762,6.273,2.584,9.434
			c2.626-3.041,5.113-6.156,7.457-9.336c3.902-0.605,7.846-1.387,11.816-2.354c-2.432-2.182-4.83-4.395-7.195-6.635
			c1.1-3.494,2.057-6.99,2.871-10.477c-3.322,1.988-6.686,3.816-10.082,5.486c-2.992-1.504-5.91-3.092-8.754-4.76
			c0.16,3.293,0.223,6.613,0.184,9.955c-3.02,2.219-6.125,4.32-9.311,6.297C177.338,226.066,180.816,226.865,184.379,227.529"/>
		<path clip-path="url(#XMLID_14_)" fill="#CE2D2E" d="M187.93,268.898c-3.464,1.875-6.986,3.643-10.563,5.299
			c3.279,0.762,6.619,1.434,10.014,2.015c0.316,2.626,0.605,5.259,0.867,7.899c1.23-1.002,2.435-2.024,3.635-3.053
			c1.736-5.557,3.641-11.07,5.639-16.553c-2.609-1.305-5.166-2.664-7.673-4.07C189.275,263.252,188.636,266.074,187.93,268.898"/>
	</g>
</g>
<path fill="#42B5B9" d="M50.735,231.67c-0.509-4.959-0.797-9.887-0.868-14.768c-4.094,2.654-8.361,5.148-12.792,7.463
	c-4.418-2.002-8.786-4.264-13.094-6.76c3.037,9.25,6.533,18.451,10.08,27.682c0.201,0.027,0.404,0.063,0.605,0.088
	c4.102,4.705,8.517,9.234,13.232,13.555c0.714-4.779,1.516-9.535,2.406-14.264c5.423-1.281,10.65-2.85,15.66-4.672
	C60.724,237.508,55.639,234.73,50.735,231.67"/>
<path fill="#DEC023" d="M89.659,283.855c-1.724-3.088-3.35-6.197-4.878-9.324c-2.457,2.467-5.003,4.886-7.637,7.25
	c-4.732-0.482-9.47-1.148-14.203-2c2.74,3.059,5.616,6.057,8.626,8.986c-0.593,1.129-1.196,2.256-1.8,3.381
	c0.52,0.162,1.038,0.332,1.559,0.488c2.641,0.791,5.293,1.518,7.956,2.176c2.662,0.66,5.335,1.252,8.016,1.779
	c2.076,0.408,4.16,0.766,6.247,1.094c-0.304-1.807-0.599-3.613-0.878-5.422c3.782-1.803,7.453-3.715,11.009-5.725
	C98.958,285.818,94.283,284.922,89.659,283.855"/>
<path fill="#42B5B9" d="M140.243,262.73c-1.672-1.834-3.296-3.691-4.872-5.572c-1.043,2.221-2.138,4.43-3.284,6.629
	c-3.012,0.65-6.05,1.217-9.108,1.703c2.307,1.496,4.675,2.943,7.103,4.342c-0.336,2.311-0.692,4.621-1.069,6.93
	c2.849-1.305,5.641-2.678,8.373-4.113c3.008,0.691,6.063,1.307,9.157,1.84c-0.957-2.135-1.894-4.277-2.81-6.428
	c1.994-1.971,3.921-3.977,5.777-6.012C146.416,262.363,143.326,262.59,140.243,262.73"/>
<path fill="#F6F6E3" d="M95.781,227.818c-1.361,1.896-2.771,3.771-4.228,5.625c-2.555-0.088-5.118-0.248-7.688-0.48
	c1.457,1.973,2.982,3.924,4.575,5.848c-0.851,2.156-1.722,4.305-2.614,6.447c2.633-0.59,5.223-1.248,7.767-1.973
	c2.245,1.4,4.547,2.75,6.906,4.043c-0.261-2.305-0.501-4.611-0.719-6.916c2.059-1.41,4.059-2.863,5.997-4.355
	c-2.521-0.486-5.021-1.043-7.496-1.664C97.396,232.209,96.563,230.018,95.781,227.818"/>
<path fill="#EBD814" d="M184.677,228.529c0.899,3.129,1.763,6.273,2.584,9.434c2.626-3.041,5.112-6.156,7.457-9.336
	c3.901-0.605,7.847-1.387,11.815-2.354c-2.431-2.182-4.83-4.395-7.194-6.635c1.101-3.494,2.057-6.99,2.871-10.477
	c-3.322,1.988-6.687,3.816-10.082,5.486c-2.992-1.504-5.91-3.092-8.753-4.76c0.158,3.293,0.222,6.613,0.183,9.955
	c-3.021,2.219-6.125,4.32-9.312,6.297C177.636,227.066,181.113,227.865,184.677,228.529"/>
<path fill="#F6F6E3" d="M190.146,261.436c-0.573,2.816-1.213,5.639-1.919,8.463c-3.464,1.875-6.986,3.643-10.562,5.299
	c3.278,0.762,6.619,1.434,10.012,2.014c0.316,2.627,0.607,5.26,0.869,7.9c1.229-1.002,2.434-2.025,3.634-3.053
	c1.737-5.557,3.641-11.07,5.639-16.553C195.211,264.201,192.653,262.842,190.146,261.436"/>
<path fill="#67C0AF" d="M31.529,105.414c0,0-16.015,2.229-15.712,28.979c0,0,9.367,36.305,69.798,43.949
	c60.432,7.643,125.698-9.236,129.022-29.936C214.637,148.406,81.687,184.072,31.529,105.414"/>
<path fill="#3CAA94" d="M208.815,150.725c-14.836,16.389-72.036,28.166-125.468,21.754c-46.503-5.58-62.509-27.262-67.535-36.961
	c0,0.223-0.003,0.414,0,0.639c0,0,9.105,34.465,69.536,41.717c60.431,7.252,125.696-8.762,129.022-28.402
	C214.371,149.471,212.379,149.977,208.815,150.725"/>
<path fill="#3EB19F" d="M193.183,74.842c0,0,23.871,2.867,17.526,33.758c0,0-23.871,30.891-86.418,18.472
	c-62.546-12.423-67.38-35.032-67.38-35.032l-2.116-14.011c0,0,4.834-18.79,21.453-19.427
	C76.248,58.602,102.838,114.967,193.183,74.842"/>
<path fill="#3CAA94" d="M101.273,81.961c-18.232-9.068-24.981-23.359-24.981-23.359c-0.851,0.033-1.663,0.123-2.452,0.246
	C76.514,63.324,84.714,74.918,101.273,81.961"/>
<path fill="#3CAA94" d="M197.15,75.883c6.402,3.607,14.064,11.982,10.136,31.119c0,0-23.87,30.889-86.419,18.471
	c-16.867-3.35-29.531-7.441-39.041-11.629c9.832,4.736,23.502,9.451,42.51,13.228c62.545,12.419,86.418-18.472,86.418-18.472
	C215.442,85.771,203.635,78.254,197.15,75.883"/>
<path fill="#A2D9D5" d="M31.863,105.414c0,0-2.719-30.254,23.266-27.387c0,0,6.043,30.891,54.388,43.947
	c48.346,13.057,97.566-5.415,101.192-13.375c0,0,27.225,9.553,4.262,39.807c0,0-16.015,10.191-58.619,13.695
	c-42.604,3.502-95.179-13.377-110.589-28.662C30.352,118.152,31.863,105.414,31.863,105.414"/>
<path fill="#46A097" d="M55.197,81.881c0,0,6.043,30.891,54.388,43.947c48.346,13.057,97.566-5.414,101.191-13.375
	c0,0,12.179,4.275,13.373,16.157c1.401-14.825-13.373-20.011-13.373-20.011c-3.625,7.961-52.845,26.432-101.191,13.375
	C61.24,108.918,55.197,78.026,55.197,78.026c-24.038-2.649-23.513,23.021-23.299,26.886C32.28,96.651,35.443,79.703,55.197,81.881"
	/>
<path fill="#3CAA94" d="M91.315,115.596c-32.044-14.701-36.52-37.568-36.52-37.568c-1.591-0.178-3.071-0.225-4.454-0.168
	C52.346,84.063,60.875,103.531,91.315,115.596"/>
<path fill="#3CAA94" d="M210.709,108.598c-0.064,0.143-0.148,0.291-0.245,0.441c6.504,4.531,15.608,15.578-0.827,37.234
	c0,0-16.015,10.191-58.619,13.695c-28.793,2.367-62.125-4.578-85.477-14.047c23.405,10.527,59.561,18.721,90.477,16.178
	c42.604-3.504,58.619-13.693,58.619-13.693C237.602,118.15,210.709,108.598,210.709,108.598"/>
<g opacity="0.57">
	<g>
		<defs>
			<rect id="XMLID_9_" x="16.125" y="58.604" width="186.198" height="118.709"/>
		</defs>
		<clipPath id="XMLID_15_">
			<use xlink:href="#XMLID_9_" />
		</clipPath>
		<path clip-path="url(#XMLID_15_)" fill="#CFEBF1" d="M202.323,78.369c-4.485-2.994-8.828-3.525-8.828-3.525
			c-30.067,13.354-53.065,16.014-70.38,13.629C140.881,93.852,166.481,93.783,202.323,78.369"/>
		<path clip-path="url(#XMLID_15_)" fill="#CFEBF1" d="M27.434,136.848c-0.302-26.752,15.712-28.98,15.712-28.98
			S40.427,77.615,66.413,80.48c0,0,3.13-12.139,12.993-17.23c-1.967-2.793-2.846-4.646-2.846-4.646
			C59.941,59.24,55.107,78.029,55.107,78.029c-25.985-2.867-23.266,27.387-23.266,27.387s-16.014,2.229-15.712,28.979
			c0,0,8.657,33.514,62.939,42.918C34.853,165.594,27.434,136.848,27.434,136.848"/>
	</g>
</g>
<path fill="#513119" d="M69.576,69.982c0,0,1.691-8.049,5.639-11.016c8.564-6.439,35.764-9.748,99.645,3.025
	c0,0,41.227,9.5,0.995,21.059C136.704,94.303,61.974,104.537,69.576,69.982"/>
<path fill="#70482B" d="M82.088,90.014c0,0-17.679-4.654-12.048-21.82c5.63-17.166,0.293-0.955,0.293-0.955
	s2.383-8.623,9.045-10.531s7.792-2.781,1.042,4.859c-6.75,7.643-0.75,21.607,18,21.343C117.17,82.646,105.006,99.49,82.088,90.014"
	/>
<path fill="#3A291D" d="M182.448,64.025c4.565,3.768,3.916,8.813-15.276,14.328c-26.986,7.754-70.87,15.021-93.051,7.479
	c17.283,13.879,70.299,5.643,101.184-3.232C203.153,74.6,191.969,67.584,182.448,64.025"/>
<path fill="#9B7E50" d="M84.48,88.6c0,0-12.721-3.486-13.058-12.449c-0.336-8.965,2.226-12.143,2.779-8.279
	C74.753,71.736,70.542,77.709,84.48,88.6"/>
<path fill="#3A291D" d="M176.597,82.221c0,0,0.49,5.258,2.155,8.068c1.668,2.809-5.165,8.58-5.165,2.621s1.665-4.045,1.665-4.045
	s-0.407-4.162-4.036-4.531S176.597,82.221,176.597,82.221"/>
<path fill="#B3DFD9" d="M37.37,152.094c0,0-12.498-8.146-15.145-14.188c-2.647-6.038,2.772-12.19,2.772-12.19
	s2.119-1.984,3.644,4.99c1.525,6.973,9.311,15.575,11.705,17.436C42.74,150,43.787,154.463,37.37,152.094"/>
<path fill="#D0EBE8" d="M43.841,93.99c0,0-6.872,2.48-5.409,11.914c1.464,9.432,14.709,17.105,20.416,19.98
	c5.708,2.879,12.426-7.238,2.08-13.875C50.582,105.371,43.841,93.99,43.841,93.99"/>
<path fill="#B1DEDA" d="M210.087,118.094c0,0,5.799,18.746-12.269,26.473c-18.065,7.729-42.243,9.135-42.243,9.135
	s-3.097-4.215,18.374-8.08s29.701-17.566,30.587-22.484C205.42,118.219,209.255,109.637,210.087,118.094"/>
<path fill="#5DBEAB" d="M197.521,86.6c0,0,10.436,14.135,0,21.998s-24.169,12.885-30.637,9.496c-6.465-3.389-1.26-8.928,9.304-9.496
	s18.92-6.934,16.742-14.289C190.752,86.951,197.521,86.6,197.521,86.6"/>
<path fill="#3A291D" d="M185.157,75.428c0,0-1.487,5.637,1.013,8.537c2.5,2.896,4.422,8.695,4.086,14.754
	c-0.336,6.061-3.086,13.652-7.336,6.695c-4.25-6.959,2.237-7.75,2.237-7.75s3.938-5.795-1.149-8.43s-7.819-7.689-7.819-7.689
	L185.157,75.428z"/>
<path fill="#E82728" d="M163.97,140.98"/>
<path fill="#D91C5B" d="M128.649,145.005c0.158,2.414,0.321,4.828,0.488,7.242c2.168,1.38,4.413,2.812,6.735,4.302
	c-2.377,0.618-4.812,1.296-7.304,2.04c-0.612,2.312-1.271,4.63-1.97,6.951c-1.762-1.932-3.438-3.833-5.03-5.707
	c-2.703,0.188-5.414,0.452-8.13,0.793c1.732-2.117,3.385-4.204,4.957-6.265c-0.785-2.211-1.512-4.415-2.179-6.614
	c2.245,0.528,4.541,1.117,6.884,1.768C125.037,147.971,126.885,146.469,128.649,145.005"/>
<path fill="#BE1F4C" d="M118.498,152.691c-0.547-1.569-1.064-3.136-1.552-4.699c-0.246-0.06-0.49-0.117-0.735-0.176
	c0.558,1.838,1.157,3.678,1.797,5.522C118.172,153.123,118.335,152.907,118.498,152.691"/>
<path fill="#BE1F4C" d="M128.514,156.922c-0.604,2.313-1.249,4.63-1.938,6.952c-1.737-1.932-3.39-3.832-4.957-5.708
	c-2.208,0.155-4.42,0.362-6.638,0.62c-0.51,0.635-1.026,1.272-1.55,1.912c2.718-0.341,5.431-0.605,8.137-0.794
	c1.592,1.875,3.271,3.775,5.032,5.707c0.701-2.321,1.358-4.638,1.972-6.951c2.492-0.743,4.93-1.422,7.309-2.039
	c-0.663-0.425-1.319-0.846-1.969-1.262C132.144,155.847,130.345,156.366,128.514,156.922"/>
<path fill="#EF5F98" d="M130.365,153.111c1.695,1.079,3.437,2.19,5.224,3.336c0.089-0.022,0.178-0.047,0.267-0.069
	c-1.888-1.214-3.725-2.39-5.511-3.529C130.352,152.936,130.359,153.023,130.365,153.111"/>
<path fill="#EF5F98" d="M122.827,160.63c-0.134,0.009-0.269,0.017-0.401,0.025c1.332,1.552,2.724,3.12,4.172,4.712
	c0.035-0.118,0.071-0.237,0.106-0.355C125.363,163.534,124.07,162.074,122.827,160.63"/>
<path fill="#EF5F98" d="M115.576,160.203c1.383-1.71,2.712-3.399,3.987-5.072c-0.817-2.217-1.576-4.428-2.277-6.633
	c2.271,0.548,4.595,1.155,6.965,1.827c1.562-1.234,3.066-2.439,4.515-3.621c-0.041-0.624-0.082-1.248-0.123-1.872
	c-1.76,1.464-3.607,2.966-5.539,4.51c-2.34-0.65-4.63-1.238-6.872-1.769c0.666,2.2,1.391,4.404,2.175,6.615
	c-1.57,2.061-3.22,4.147-4.951,6.265C114.163,160.364,114.87,160.281,115.576,160.203"/>
<path fill="#D91C5B" d="M160.854,104.152c0.108,1.777,0.22,3.555,0.334,5.332c1.521,1.015,3.092,2.065,4.716,3.156
	c-1.667,0.462-3.374,0.966-5.119,1.516c-0.432,1.703-0.892,3.41-1.381,5.12c-1.23-1.422-2.402-2.822-3.518-4.204
	c-1.893,0.137-3.789,0.326-5.689,0.569c1.207-1.555,2.36-3.088,3.459-4.603c-0.554-1.629-1.068-3.253-1.544-4.875
	c1.58,0.395,3.194,0.831,4.841,1.311C158.311,106.34,159.612,105.232,160.854,104.152"/>
<path fill="#BE1F4C" d="M153.725,109.81c-0.386-1.156-0.752-2.312-1.099-3.463c-0.173-0.044-0.345-0.087-0.517-0.13
	c0.396,1.354,0.82,2.71,1.272,4.069C153.497,110.127,153.611,109.969,153.725,109.81"/>
<path fill="#BE1F4C" d="M160.747,112.928c-0.424,1.704-0.877,3.41-1.358,5.12c-1.214-1.421-2.371-2.82-3.47-4.202
	c-1.546,0.112-3.095,0.261-4.647,0.445c-0.354,0.466-0.713,0.934-1.08,1.402c1.902-0.242,3.801-0.433,5.693-0.568
	c1.116,1.382,2.29,2.781,3.521,4.204c0.489-1.71,0.95-3.417,1.381-5.12c1.746-0.55,3.454-1.054,5.123-1.516
	c-0.464-0.311-0.923-0.618-1.377-0.923C163.292,112.132,162.03,112.518,160.747,112.928"/>
<path fill="#EF5F98" d="M162.05,110.119c1.188,0.793,2.405,1.608,3.653,2.448c0.063-0.018,0.127-0.035,0.189-0.052
	c-1.32-0.89-2.607-1.752-3.857-2.59L162.05,110.119z"/>
<path fill="#EF5F98" d="M156.766,115.659c-0.094,0.007-0.188,0.013-0.281,0.02c0.934,1.145,1.907,2.301,2.918,3.472
	c0.024-0.088,0.051-0.176,0.074-0.263C158.539,117.799,157.637,116.723,156.766,115.659"/>
<path fill="#EF5F98" d="M151.691,115.336c0.965-1.257,1.894-2.499,2.785-3.729c-0.576-1.634-1.113-3.263-1.611-4.889
	c1.599,0.409,3.231,0.859,4.896,1.354c1.097-0.907,2.154-1.796,3.175-2.667c-0.029-0.46-0.058-0.92-0.084-1.379
	c-1.242,1.081-2.541,2.187-3.896,3.322c-1.643-0.48-3.256-0.917-4.832-1.313c0.474,1.622,0.988,3.247,1.541,4.877
	c-1.098,1.515-2.249,3.048-3.455,4.602C150.704,115.451,151.197,115.392,151.691,115.336"/>
<path fill="#D91C5B" d="M75.225,109.66c0.683,1.14,1.409,2.288,2.178,3.449c1.345,0.064,2.691,0.165,4.037,0.303
	c-0.737,1.004-1.522,2.02-2.352,3.048c0.478,1.33,0.982,2.664,1.512,4.003c-1.445-0.571-2.861-1.104-4.246-1.602
	c-1.206,0.768-2.455,1.563-3.748,2.389c0.137-1.37,0.27-2.74,0.399-4.111c-1.106-0.791-2.166-1.558-3.179-2.304
	c1.362-0.464,2.702-0.891,4.02-1.282C74.334,112.251,74.793,110.953,75.225,109.66"/>
<path fill="#BE1F4C" d="M72.525,116.354c-0.77-0.557-1.516-1.104-2.238-1.638c-0.148,0.051-0.296,0.101-0.444,0.151
	c0.847,0.624,1.726,1.263,2.638,1.917L72.525,116.354z"/>
<path fill="#BE1F4C" d="M78.536,115.633c0.462,1.327,0.95,2.658,1.464,3.993c-1.424-0.56-2.819-1.083-4.182-1.57
	c-0.993,0.643-2.016,1.304-3.068,1.986c-0.041,0.414-0.082,0.828-0.123,1.242c1.294-0.825,2.544-1.62,3.751-2.388
	c1.386,0.497,2.802,1.03,4.248,1.602c-0.531-1.34-1.035-2.674-1.515-4.004c0.831-1.028,1.615-2.042,2.353-3.046
	c-0.385-0.039-0.768-0.075-1.152-0.108C79.745,114.098,79.154,114.862,78.536,115.633"/>
<path fill="#EF5F98" d="M78.183,113.192c1.038,0.06,2.077,0.142,3.115,0.245c0.028-0.037,0.056-0.075,0.084-0.113
	c-1.095-0.111-2.19-0.197-3.283-0.259C78.127,113.107,78.155,113.15,78.183,113.192"/>
<path fill="#EF5F98" d="M77.209,118.933c-0.059,0.036-0.118,0.073-0.177,0.109c1.148,0.42,2.316,0.864,3.505,1.334
	c-0.027-0.068-0.054-0.137-0.081-0.206C79.356,119.736,78.274,119.324,77.209,118.933"/>
<path fill="#EF5F98" d="M73.553,120.528c0.096-1.118,0.189-2.235,0.28-3.354c-1.118-0.803-2.19-1.581-3.216-2.34
	c1.359-0.449,2.697-0.861,4.011-1.239c0.381-1.047,0.743-2.092,1.087-3.134c-0.183-0.297-0.362-0.592-0.537-0.887
	c-0.432,1.294-0.892,2.591-1.38,3.894c-1.317,0.393-2.656,0.82-4.016,1.284c1.011,0.748,2.068,1.516,3.172,2.307
	c-0.13,1.369-0.264,2.739-0.402,4.107C72.888,120.952,73.222,120.739,73.553,120.528"/>
<path fill="#EF5656" d="M156.848,147.715c-0.006-0.006-0.011-0.012-0.015-0.016c0.007,0.01,0.011,0.02,0.019,0.029
	C156.848,147.725,156.848,147.719,156.848,147.715"/>
<path fill="#2F9280" d="M39.567,123.104c0.006,1.16,2.433,2.088,5.417,2.068c2.986-0.018,5.4-0.971,5.395-2.131
	c-0.006-1.16-2.433-2.086-5.416-2.068C41.976,120.99,39.561,121.943,39.567,123.104"/>
<path fill="#603A1E" d="M45.06,114.857c2.322,0.244,1.673,1.252-0.897,1.48c-2.591,0.23-2.239,3.82-2.239,3.82
	c-0.733-1.346-0.243-3.23,0.828-4.355c-0.932,0.699-1.657,1.717-1.961,2.975c-0.256,1.063-0.168,2.125,0.165,3.084
	c0.478,0.354,1.016,0.637,1.618,0.797c2.675,0.717,5.395-0.986,6.076-3.807c0.255-1.056,0.185-2.117-0.142-3.072
	c-0.481-0.361-1.031-0.645-1.639-0.809C46.259,114.807,45.652,114.785,45.06,114.857"/>
<path fill="#774E31" d="M40.956,121.861c-0.332-0.959-0.421-2.021-0.164-3.084c0.304-1.258,1.028-2.275,1.961-2.975
	c0.605-0.639,1.394-1.037,2.257-0.951c0.019,0.002,0.035,0.004,0.05,0.006c0.592-0.072,1.2-0.051,1.809,0.113
	c0.608,0.164,1.158,0.447,1.64,0.809c-0.105-0.307-0.236-0.604-0.391-0.885c-0.215-0.166-0.445-0.313-0.687-0.445
	c-0.058-0.029-0.118-0.057-0.175-0.084c-0.27-0.131-0.549-0.246-0.845-0.326c-2.677-0.717-5.397,0.988-6.078,3.807
	c-0.089,0.367-0.136,0.732-0.148,1.094c-0.002,0.057,0.008,0.111,0.008,0.168c-0.002,0.309,0.012,0.619,0.063,0.918
	c0.004,0.025,0.012,0.047,0.017,0.072c0.113,0.618,0.336,1.201,0.641,1.738C40.927,121.844,40.941,121.852,40.956,121.861"/>
<path fill="#513119" d="M50.157,119.492c0.006-0.1,0.004-0.197,0.005-0.295c0.003-0.221-0.008-0.439-0.032-0.654
	c-0.012-0.107-0.023-0.213-0.04-0.318c-0.039-0.225-0.094-0.445-0.16-0.66c-0.024-0.078-0.037-0.16-0.065-0.236
	c-0.092-0.266-0.209-0.518-0.341-0.762c-0.043-0.082-0.096-0.156-0.142-0.232c-0.051-0.084-0.099-0.168-0.154-0.25
	c-0.056-0.084-0.119-0.164-0.182-0.246l-0.001-0.002c-0.089-0.115-0.182-0.23-0.282-0.336v-0.004
	c-0.049-0.051-0.095-0.104-0.145-0.154c-0.158-0.158-0.32-0.311-0.498-0.445c0-0.002-0.001-0.002-0.002-0.002
	c0.155,0.281,0.286,0.578,0.391,0.885c0.327,0.955,0.396,2.016,0.141,3.072c-0.681,2.82-3.4,4.523-6.076,3.807
	c-0.602-0.16-1.14-0.443-1.618-0.797c-0.014-0.01-0.029-0.018-0.042-0.025c-0.016-0.014-0.034-0.021-0.048-0.031
	c0.033,0.059,0.08,0.111,0.115,0.17c0.004,0.006,0.009,0.01,0.014,0.016c0.302,0.496,0.673,0.947,1.12,1.314
	c0.012,0.008,0.019,0.02,0.029,0.029c0.229,0.184,0.48,0.34,0.741,0.482c0.037,0.02,0.066,0.047,0.104,0.066
	c0.299,0.152,0.62,0.279,0.957,0.369c2.674,0.715,5.396-0.989,6.076-3.809C50.098,120.125,50.137,119.811,50.157,119.492"/>
<path fill="#FDEEED" d="M41.924,120.158c0,0-0.353-3.59,2.238-3.82c2.571-0.229,3.22-1.236,0.898-1.48
	c-0.016-0.002-0.032-0.004-0.051-0.006c-0.862-0.086-1.651,0.313-2.257,0.951C41.681,116.928,41.191,118.813,41.924,120.158"/>
<path fill="#2F9280" d="M155.328,149.734c0.006,1.102,2.434,1.979,5.417,1.963c2.985-0.016,5.399-0.922,5.396-2.021
	c-0.006-1.102-2.434-1.979-5.416-1.963C157.737,147.73,155.322,148.635,155.328,149.734"/>
<path fill="#603A1E" d="M160.821,141.91c2.321,0.232,1.673,1.189-0.897,1.406c-2.591,0.219-2.238,3.623-2.238,3.623
	c-0.733-1.275-0.243-3.064,0.828-4.131c-0.933,0.662-1.657,1.627-1.961,2.822c-0.256,1.008-0.168,2.016,0.164,2.925
	c0.479,0.335,1.017,0.604,1.619,0.757c2.674,0.682,5.395-0.936,6.075-3.611c0.255-1.002,0.185-2.01-0.142-2.914
	c-0.481-0.344-1.031-0.613-1.639-0.768C162.021,141.863,161.413,141.842,160.821,141.91"/>
<path fill="#774E31" d="M156.717,148.557c-0.332-0.91-0.421-1.918-0.164-2.926c0.305-1.195,1.027-2.16,1.961-2.822
	c0.605-0.607,1.395-0.984,2.258-0.904c0.018,0.002,0.034,0.004,0.049,0.006c0.592-0.068,1.201-0.047,1.81,0.109
	c0.608,0.154,1.157,0.424,1.64,0.768c-0.105-0.291-0.236-0.574-0.391-0.842c-0.215-0.156-0.445-0.297-0.688-0.422
	c-0.058-0.027-0.117-0.053-0.175-0.08c-0.271-0.123-0.549-0.232-0.845-0.309c-2.678-0.68-5.396,0.938-6.078,3.611
	c-0.089,0.348-0.136,0.695-0.148,1.039c-0.002,0.053,0.008,0.105,0.008,0.158c-0.002,0.293,0.013,0.588,0.063,0.871
	c0.005,0.023,0.013,0.045,0.017,0.068c0.113,0.586,0.336,1.141,0.642,1.648C156.688,148.539,156.703,148.547,156.717,148.557"/>
<path fill="#513119" d="M165.918,146.309c0.006-0.094,0.004-0.188,0.005-0.281c0.003-0.207-0.008-0.414-0.032-0.619
	c-0.012-0.102-0.022-0.201-0.039-0.303c-0.039-0.213-0.095-0.422-0.16-0.627c-0.024-0.074-0.037-0.15-0.065-0.223
	c-0.092-0.252-0.209-0.492-0.341-0.725c-0.043-0.077-0.096-0.146-0.143-0.219c-0.051-0.08-0.099-0.16-0.154-0.236
	c-0.055-0.081-0.118-0.158-0.182-0.234v-0.002c-0.09-0.109-0.183-0.22-0.283-0.32v-0.002c-0.049-0.049-0.095-0.1-0.145-0.147
	c-0.158-0.149-0.32-0.294-0.498-0.421c0-0.002-0.001-0.002-0.002-0.004c0.155,0.268,0.286,0.55,0.391,0.842
	c0.328,0.904,0.396,1.912,0.142,2.914c-0.681,2.676-3.4,4.293-6.076,3.611c-0.603-0.152-1.14-0.422-1.618-0.756
	c-0.014-0.01-0.029-0.019-0.042-0.025c-0.016-0.012-0.034-0.02-0.048-0.029c0.033,0.057,0.08,0.105,0.115,0.161
	c0.004,0.007,0.009,0.011,0.014,0.017c0.303,0.469,0.673,0.898,1.12,1.246c0.013,0.008,0.019,0.02,0.028,0.027
	c0.229,0.174,0.48,0.322,0.742,0.457c0.037,0.02,0.065,0.044,0.104,0.064c0.299,0.145,0.62,0.264,0.957,0.35
	c2.674,0.68,5.396-0.938,6.076-3.613C165.859,146.91,165.898,146.609,165.918,146.309"/>
<path fill="#FDEEED" d="M157.686,146.939c0,0-0.354-3.404,2.238-3.623c2.57-0.217,3.22-1.174,0.898-1.406
	c-0.017-0.002-0.033-0.004-0.052-0.006c-0.862-0.08-1.651,0.297-2.257,0.904C157.442,143.875,156.953,145.664,157.686,146.939"/>
<path fill="#2F9280" d="M78.42,153.625c0.004,0.725,1.601,1.303,3.564,1.291c1.965-0.012,3.554-0.607,3.55-1.33
	c-0.004-0.725-1.601-1.303-3.564-1.291C80.005,152.305,78.417,152.9,78.42,153.625"/>
<path fill="#603A1E" d="M82.035,148.477c1.528,0.152,1.101,0.781-0.59,0.924c-1.705,0.145-1.473,2.385-1.473,2.385
	c-0.483-0.84-0.16-2.016,0.545-2.719c-0.614,0.436-1.091,1.07-1.291,1.857c-0.169,0.664-0.11,1.326,0.108,1.924
	c0.315,0.221,0.669,0.398,1.065,0.498c1.761,0.449,3.551-0.615,3.998-2.375c0.168-0.66,0.122-1.322-0.093-1.918
	c-0.317-0.227-0.679-0.404-1.079-0.506C82.824,148.445,82.425,148.432,82.035,148.477"/>
<path fill="#774E31" d="M79.334,152.848c-0.218-0.598-0.277-1.26-0.108-1.924c0.2-0.787,0.677-1.422,1.291-1.857
	c0.398-0.398,0.917-0.646,1.484-0.594c0.013,0,0.023,0.002,0.034,0.004c0.389-0.045,0.789-0.031,1.19,0.07
	c0.4,0.102,0.762,0.279,1.079,0.506c-0.069-0.191-0.155-0.377-0.257-0.555c-0.142-0.102-0.294-0.195-0.453-0.277
	c-0.038-0.018-0.077-0.033-0.114-0.053c-0.178-0.08-0.362-0.152-0.557-0.203c-1.761-0.447-3.551,0.617-3.999,2.377
	c-0.058,0.229-0.089,0.457-0.097,0.684c-0.002,0.035,0.006,0.068,0.006,0.104c-0.002,0.193,0.007,0.387,0.041,0.574
	c0.002,0.016,0.008,0.029,0.011,0.045c0.074,0.385,0.221,0.75,0.422,1.084C79.315,152.838,79.325,152.842,79.334,152.848"/>
<path fill="#513119" d="M85.388,151.369c0.004-0.061,0.003-0.123,0.003-0.184c0.002-0.137-0.005-0.273-0.021-0.408
	c-0.007-0.066-0.015-0.133-0.026-0.199c-0.026-0.141-0.062-0.277-0.105-0.412c-0.016-0.049-0.024-0.1-0.043-0.146
	c-0.06-0.166-0.138-0.324-0.224-0.477c-0.028-0.051-0.063-0.098-0.094-0.145c-0.033-0.053-0.065-0.105-0.101-0.156
	c-0.037-0.053-0.078-0.104-0.12-0.154h-0.001c-0.058-0.072-0.119-0.145-0.185-0.211v-0.002c-0.033-0.033-0.063-0.064-0.096-0.096
	c-0.104-0.1-0.21-0.193-0.327-0.279c0,0-0.001,0-0.001-0.002c0.102,0.178,0.188,0.363,0.257,0.555
	c0.215,0.596,0.26,1.258,0.093,1.918c-0.448,1.76-2.238,2.824-3.998,2.375c-0.396-0.1-0.75-0.277-1.065-0.498
	c-0.009-0.006-0.019-0.01-0.028-0.016c-0.01-0.008-0.022-0.012-0.031-0.02c0.022,0.037,0.052,0.07,0.076,0.107
	c0.002,0.004,0.005,0.006,0.009,0.01c0.198,0.309,0.443,0.592,0.736,0.82c0.008,0.006,0.013,0.014,0.02,0.018
	c0.15,0.115,0.315,0.213,0.487,0.301c0.024,0.014,0.044,0.029,0.069,0.043c0.196,0.096,0.408,0.174,0.63,0.23
	c1.759,0.447,3.549-0.617,3.998-2.379C85.349,151.766,85.375,151.568,85.388,151.369"/>
<path fill="#FDEEED" d="M79.972,151.785c0,0-0.232-2.24,1.473-2.385c1.691-0.143,2.118-0.771,0.59-0.924
	c-0.01-0.002-0.021-0.005-0.033-0.005c-0.568-0.052-1.087,0.196-1.485,0.595C79.812,149.77,79.489,150.945,79.972,151.785"/>
<path fill="#2F9280" d="M122.703,115.385c0.002,0.467,0.978,0.838,2.177,0.83c1.198-0.006,2.17-0.389,2.167-0.855
	c-0.002-0.467-0.977-0.838-2.176-0.83C123.671,114.535,122.701,114.92,122.703,115.385"/>
<path fill="#603A1E" d="M124.91,112.07c0.934,0.1,0.672,0.504-0.36,0.596c-1.041,0.093-0.9,1.535-0.9,1.535
	c-0.295-0.541-0.097-1.297,0.333-1.75c-0.375,0.279-0.666,0.689-0.787,1.195c-0.104,0.428-0.068,0.854,0.065,1.238
	c0.192,0.143,0.407,0.256,0.649,0.322c1.076,0.287,2.168-0.396,2.442-1.531c0.103-0.424,0.074-0.85-0.057-1.234
	c-0.194-0.146-0.415-0.26-0.659-0.324C125.392,112.051,125.147,112.041,124.91,112.07"/>
<path fill="#774E31" d="M123.261,114.885c-0.133-0.385-0.169-0.811-0.065-1.238c0.121-0.506,0.412-0.916,0.787-1.195
	c0.243-0.256,0.561-0.416,0.907-0.383c0.009,0,0.015,0.002,0.021,0.002c0.238-0.029,0.481-0.02,0.726,0.047
	c0.245,0.064,0.466,0.178,0.66,0.324c-0.042-0.123-0.095-0.242-0.157-0.355c-0.086-0.066-0.179-0.127-0.275-0.178
	c-0.024-0.012-0.049-0.023-0.071-0.035c-0.108-0.053-0.22-0.098-0.339-0.131c-1.076-0.287-2.17,0.398-2.442,1.529
	c-0.036,0.146-0.056,0.295-0.06,0.439c-0.002,0.023,0.002,0.045,0.002,0.066c0,0.125,0.006,0.25,0.027,0.371
	c0,0.01,0.004,0.018,0.006,0.027c0.045,0.248,0.135,0.484,0.258,0.699C123.248,114.879,123.256,114.883,123.261,114.885"/>
<path fill="#513119" d="M126.957,113.934c0.002-0.039,0.002-0.078,0.002-0.119c0.002-0.088-0.002-0.176-0.012-0.262
	c-0.005-0.043-0.01-0.086-0.017-0.129c-0.015-0.09-0.037-0.179-0.063-0.266c-0.011-0.031-0.015-0.064-0.027-0.094
	c-0.036-0.107-0.084-0.209-0.137-0.307c-0.017-0.033-0.037-0.063-0.058-0.095s-0.039-0.065-0.062-0.099s-0.047-0.067-0.072-0.1
	h-0.001c-0.035-0.047-0.073-0.095-0.113-0.137c-0.021-0.021-0.038-0.041-0.058-0.063c-0.064-0.063-0.129-0.123-0.2-0.178
	c0-0.002-0.001-0.002-0.001-0.002c0.063,0.113,0.115,0.232,0.156,0.355c0.132,0.385,0.16,0.811,0.058,1.234
	c-0.272,1.135-1.366,1.818-2.442,1.531c-0.242-0.066-0.457-0.18-0.649-0.322c-0.005-0.002-0.011-0.006-0.017-0.01
	s-0.015-0.008-0.02-0.014c0.014,0.025,0.031,0.047,0.046,0.07c0.002,0.002,0.004,0.004,0.006,0.006
	c0.121,0.199,0.271,0.381,0.45,0.529c0.004,0.002,0.007,0.006,0.012,0.012c0.092,0.072,0.192,0.135,0.297,0.191
	c0.016,0.01,0.027,0.02,0.043,0.027c0.119,0.063,0.248,0.113,0.385,0.148c1.074,0.289,2.166-0.396,2.44-1.531
	C126.935,114.188,126.951,114.061,126.957,113.934"/>
<path fill="#FDEEED" d="M123.65,114.201c0,0-0.143-1.443,0.898-1.535c1.033-0.092,1.294-0.496,0.361-0.596
	c-0.008,0-0.012-0.002-0.021-0.002c-0.347-0.033-0.663,0.127-0.907,0.383C123.552,112.904,123.355,113.66,123.65,114.201"/>
<path fill="#2F9280" d="M215.198,123.031c0.002,0.441,0.978,0.793,2.176,0.785c1.2-0.006,2.171-0.369,2.169-0.809
	c-0.003-0.441-0.979-0.793-2.177-0.787C216.165,122.229,215.195,122.59,215.198,123.031"/>
<path fill="#603A1E" d="M217.405,119.896c0.935,0.094,0.672,0.477-0.36,0.564c-1.041,0.086-0.899,1.449-0.899,1.449
	c-0.296-0.51-0.097-1.227,0.331-1.652c-0.375,0.264-0.665,0.65-0.786,1.129c-0.103,0.404-0.068,0.807,0.065,1.172
	c0.192,0.135,0.408,0.242,0.649,0.303c1.076,0.273,2.169-0.375,2.442-1.445c0.103-0.402,0.074-0.807-0.058-1.168
	c-0.194-0.139-0.413-0.246-0.657-0.307C217.887,119.879,217.643,119.869,217.405,119.896"/>
<path fill="#774E31" d="M215.756,122.559c-0.134-0.365-0.169-0.768-0.064-1.172c0.121-0.479,0.412-0.865,0.787-1.129
	c0.243-0.244,0.56-0.395,0.906-0.363c0.008,0,0.014,0.002,0.02,0.002c0.24-0.027,0.482-0.018,0.728,0.045
	c0.244,0.061,0.465,0.168,0.658,0.306c-0.041-0.116-0.095-0.229-0.156-0.337c-0.086-0.063-0.18-0.119-0.276-0.168
	c-0.023-0.012-0.047-0.021-0.07-0.033c-0.108-0.049-0.221-0.092-0.34-0.123c-1.075-0.271-2.17,0.377-2.442,1.447
	c-0.035,0.139-0.056,0.277-0.06,0.416c-0.002,0.021,0.004,0.043,0.004,0.063c-0.002,0.117,0.005,0.235,0.025,0.35
	c0.002,0.009,0.006,0.018,0.008,0.027c0.045,0.233,0.133,0.457,0.256,0.66C215.744,122.553,215.751,122.555,215.756,122.559"/>
<path fill="#513119" d="M219.452,121.658c0.003-0.037,0.002-0.074,0.003-0.113c0.001-0.082-0.003-0.166-0.013-0.246
	c-0.005-0.041-0.011-0.08-0.017-0.121c-0.016-0.086-0.037-0.17-0.063-0.252c-0.011-0.029-0.015-0.061-0.027-0.09
	c-0.036-0.1-0.084-0.197-0.137-0.289c-0.017-0.031-0.038-0.059-0.058-0.088c-0.02-0.033-0.039-0.064-0.062-0.096
	s-0.047-0.063-0.071-0.094h-0.002c-0.035-0.045-0.074-0.088-0.113-0.129c-0.02-0.021-0.039-0.041-0.058-0.059
	c-0.065-0.061-0.129-0.117-0.2-0.17v-0.002c0.062,0.107,0.114,0.221,0.155,0.338c0.132,0.361,0.16,0.766,0.058,1.168
	c-0.273,1.07-1.367,1.719-2.442,1.445c-0.241-0.061-0.457-0.168-0.649-0.303c-0.005-0.004-0.012-0.006-0.017-0.01
	c-0.006-0.004-0.015-0.008-0.019-0.012c0.013,0.023,0.031,0.043,0.045,0.064c0.002,0.002,0.004,0.004,0.006,0.008
	c0.121,0.188,0.271,0.359,0.451,0.5c0.002,0.002,0.006,0.006,0.011,0.01c0.092,0.068,0.192,0.129,0.297,0.184
	c0.016,0.008,0.026,0.018,0.043,0.025c0.119,0.06,0.248,0.105,0.385,0.139c1.074,0.273,2.167-0.375,2.44-1.447
	C219.43,121.898,219.445,121.779,219.452,121.658"/>
<path fill="#FDEEED" d="M216.146,121.91c0,0-0.144-1.363,0.897-1.449c1.035-0.088,1.295-0.471,0.362-0.564
	c-0.007,0-0.013-0.002-0.021-0.002c-0.346-0.031-0.663,0.119-0.907,0.363C216.047,120.684,215.851,121.4,216.146,121.91"/>
<path fill="#E82728" d="M140.119,51.761c1.445,11.083-9.606,22.989-24.688,26.891c-15.08,3.903-25.749-5.871-23.831-21.432
	c1.918-15.508,12.971-27.335,24.686-26.813C128.002,30.929,138.673,40.623,140.119,51.761"/>
<path fill="#AB1E23" d="M127.157,33.586c3.375,3.948,5.761,8.735,6.126,14.058c1.064,11.625-10.038,23.648-24.801,27.07
	c-4.742,0.995-9.119,0.694-12.704-0.838c4.21,4.984,11.403,6.757,19.654,4.775c15.08-3.901,26.132-15.808,24.686-26.891
	C139.271,44.115,133.879,37.554,127.157,33.586"/>
<path fill="#EE3F3E" d="M96.905,61.187c-0.065,0.06,0.91-16.03,9.828-21.378c8.757-5.184,16.973-2.375,8.285,3.255
	C106.125,48.939,101.726,56.466,96.905,61.187"/>
<path fill="#FFFFFF" d="M112.728,39.055c-0.583-0.964-3.295-0.106-6.175,2.067c-2.88,2.168-4.862,4.863-4.308,5.87
	c0.552,1.01,3.454-0.089,6.362-2.298C111.517,42.483,113.308,40.027,112.728,39.055"/>
<path fill="#AB1E23" d="M117.245,31.436c-0.019,0.02,2.634,5.6,7.203,5.863c4.53,0.306,4.539,0.297,4.535,0.3
	c0.006-0.007-1.189,1.702-5.892,1.341C118.394,38.573,117.927,35.355,117.245,31.436"/>
<path fill="#EE3F3E" d="M128.619,38.14c0.006-0.007-2.313,1.234-5.686,0.741c-3.36-0.509-2.942-1.161-2.944-1.158
	c0-0.001-0.414,2.197,3.937,1.849C128.272,39.229,128.619,38.14,128.619,38.14"/>
<path fill="#603813" d="M139.059,0c-0.114,0.141-0.234,0.279-0.346,0.42c-0.451,0.593-0.91,1.191-1.377,1.796
	c-0.903,1.228-1.838,2.479-2.803,3.759c-1.986,2.547-3.75,5.645-5.271,9.007c-1.53,3.368-2.863,7.021-4.042,10.842
	c-1.17,3.823-2.223,7.813-2.998,11.927c1.021-4.056,2.297-7.939,3.667-11.615c1.381-3.674,2.894-7.136,4.571-10.269
	c1.681-3.14,3.52-5.896,5.617-8.181c1.043-1.171,2.053-2.316,3.035-3.437c0.498-0.544,0.989-1.08,1.473-1.611
	c0.146-0.151,0.291-0.296,0.437-0.442C140.361,1.471,139.705,0.738,139.059,0"/>
<path fill="#513119" d="M81.359,81.525c0,0,3.396-9.35,12.667-7.57c9.271,1.775,5.255,3.34,11.158,6.762
	c5.903,3.424,13.068-1.631,15.819-3.32c2.75-1.688,5.355-0.658,16.053,0.408c10.697,1.064,2.057,8.865-11.29,9.182
	c-13.346,0.316-25.812,2.461-35.231-0.387C81.117,83.752,81.359,81.525,81.359,81.525"/>
<path fill="#513119" d="M125.09,79.596c0,0-4.699-7.916,6.648-11.875c11.349-3.957,4.199-11.26,12.244-10.57
	c8.047,0.689,11.767,6.908,3.436,12.91c-8.331,6-11.029,5.502-13.348,6.98C131.754,78.52,125.09,79.596,125.09,79.596"/>
<path fill="#3A291D" d="M83.145,71.896c-0.073,0.645,1.21,1.334,2.866,1.539c1.655,0.209,3.055-0.145,3.128-0.787
	c0.073-0.643-1.211-1.332-2.866-1.541C84.618,70.9,83.218,71.254,83.145,71.896"/>
<path fill="#603A1E" d="M86.728,67.729c1.27,0.303,0.845,0.814-0.594,0.754c-1.45-0.061-1.49,1.953-1.49,1.953
	c-0.318-0.797,0.076-1.807,0.744-2.352c-0.563,0.318-1.031,0.83-1.282,1.506c-0.211,0.57-0.232,1.164-0.11,1.719
	c0.241,0.23,0.522,0.428,0.844,0.559c1.435,0.594,3.054-0.152,3.615-1.666c0.211-0.566,0.242-1.159,0.123-1.713
	c-0.244-0.234-0.529-0.432-0.856-0.566C87.396,67.787,87.061,67.73,86.728,67.729"/>
<path fill="#774E31" d="M83.996,71.309c-0.122-0.555-0.101-1.148,0.111-1.719c0.25-0.677,0.718-1.188,1.282-1.506
	c0.377-0.313,0.84-0.473,1.312-0.363c0.01,0.002,0.019,0.004,0.027,0.008c0.333,0.002,0.668,0.059,0.995,0.193
	c0.326,0.135,0.612,0.332,0.856,0.566c-0.038-0.176-0.091-0.35-0.159-0.518c-0.108-0.107-0.226-0.207-0.352-0.297
	c-0.03-0.02-0.061-0.039-0.091-0.059c-0.141-0.092-0.288-0.178-0.447-0.243c-1.436-0.593-3.055,0.155-3.616,1.666
	c-0.074,0.198-0.124,0.397-0.154,0.597c-0.005,0.031-0.003,0.063-0.006,0.094c-0.022,0.17-0.034,0.344-0.026,0.514
	c0,0.014,0.004,0.027,0.005,0.041c0.022,0.35,0.107,0.689,0.242,1.01C83.98,71.297,83.989,71.303,83.996,71.309"/>
<path fill="#513119" d="M89.248,70.666c0.01-0.055,0.015-0.109,0.022-0.164c0.016-0.121,0.025-0.242,0.025-0.363
	c0.001-0.061,0.002-0.118-0.001-0.18c-0.007-0.127-0.023-0.252-0.045-0.377c-0.009-0.047-0.01-0.092-0.021-0.137
	c-0.033-0.152-0.082-0.303-0.139-0.447c-0.018-0.047-0.043-0.092-0.063-0.137c-0.024-0.051-0.044-0.102-0.07-0.15
	c-0.025-0.049-0.055-0.102-0.084-0.15c-0.042-0.072-0.086-0.143-0.134-0.207V68.35c-0.024-0.031-0.047-0.063-0.071-0.094
	c-0.077-0.1-0.157-0.197-0.246-0.285h-0.002c0.068,0.168,0.121,0.342,0.159,0.518c0.119,0.553,0.087,1.146-0.123,1.713
	c-0.561,1.514-2.18,2.26-3.615,1.666c-0.322-0.131-0.603-0.328-0.844-0.559c-0.007-0.006-0.016-0.012-0.022-0.016
	c-0.008-0.008-0.018-0.014-0.025-0.021c0.015,0.035,0.037,0.066,0.053,0.104c0.002,0.002,0.004,0.006,0.007,0.01
	c0.135,0.295,0.31,0.572,0.534,0.809c0.006,0.006,0.009,0.012,0.015,0.018c0.114,0.119,0.243,0.225,0.378,0.32
	c0.019,0.016,0.034,0.031,0.054,0.047c0.155,0.105,0.325,0.199,0.506,0.273c1.434,0.592,3.054-0.156,3.615-1.668
	C89.175,71.012,89.217,70.84,89.248,70.666"/>
<path fill="#FDEEED" d="M84.644,70.436c0,0,0.04-2.014,1.49-1.953c1.439,0.061,1.864-0.451,0.594-0.754
	c-0.009-0.004-0.017-0.006-0.028-0.008c-0.472-0.109-0.935,0.051-1.312,0.363C84.72,68.629,84.326,69.639,84.644,70.436"/>
<path fill="#3A291D" d="M149.46,66.543c-0.005,2.828,5.88,5.127,13.144,5.139c7.265,0.016,13.153-2.26,13.16-5.08
	c0.004-2.824-5.884-5.125-13.144-5.137C155.359,61.455,149.465,63.727,149.46,66.543"/>
<path fill="#603A1E" d="M162.964,46.594c5.646,0.633,4.049,3.074-2.209,3.584c-6.306,0.512-5.509,9.248-5.509,9.248
	c-1.762-3.283-0.537-7.861,2.09-10.576c-2.284,1.678-4.063,4.143-4.823,7.201c-0.644,2.574-0.444,5.16,0.347,7.498
	c1.156,0.869,2.463,1.57,3.922,1.975c6.498,1.793,13.143-2.297,14.847-9.145c0.637-2.568,0.487-5.152-0.292-7.477
	c-1.166-0.891-2.497-1.588-3.977-1.998C165.883,46.492,164.406,46.428,162.964,46.594"/>
<path fill="#774E31" d="M152.859,63.549c-0.791-2.338-0.99-4.924-0.346-7.498c0.76-3.059,2.539-5.522,4.822-7.201
	c1.481-1.549,3.409-2.494,5.504-2.273c0.049,0.004,0.084,0.012,0.123,0.018c1.443-0.166,2.92-0.102,4.397,0.311
	c1.478,0.41,2.81,1.107,3.976,1.999c-0.248-0.749-0.56-1.476-0.936-2.165c-0.52-0.402-1.077-0.77-1.663-1.096
	c-0.14-0.072-0.285-0.139-0.425-0.203c-0.653-0.326-1.331-0.609-2.049-0.811c-6.502-1.795-13.148,2.303-14.85,9.145
	c-0.224,0.887-0.344,1.779-0.382,2.654c-0.005,0.143,0.019,0.271,0.019,0.412c-0.01,0.748,0.019,1.506,0.137,2.234
	c0.007,0.059,0.029,0.111,0.04,0.176c0.266,1.506,0.797,2.928,1.528,4.234C152.787,63.506,152.826,63.529,152.859,63.549"/>
<path fill="#513119" d="M175.282,57.965c0.017-0.242,0.013-0.482,0.021-0.723c0.006-0.527-0.015-1.064-0.071-1.586
	c-0.023-0.262-0.052-0.52-0.093-0.781c-0.09-0.541-0.219-1.082-0.373-1.607c-0.06-0.191-0.088-0.385-0.157-0.572
	c-0.218-0.648-0.498-1.268-0.815-1.865c-0.102-0.193-0.229-0.377-0.342-0.563c-0.124-0.207-0.236-0.412-0.37-0.611
	c-0.137-0.201-0.284-0.402-0.44-0.604l0,0c-0.213-0.285-0.438-0.57-0.676-0.828l-0.004-0.006c-0.121-0.127-0.231-0.26-0.351-0.381
	c-0.384-0.387-0.774-0.762-1.203-1.094c0-0.002-0.004-0.002-0.007-0.006c0.376,0.689,0.689,1.416,0.936,2.164
	c0.78,2.324,0.928,4.908,0.293,7.477c-1.705,6.848-8.349,10.938-14.847,9.145c-1.459-0.404-2.767-1.105-3.923-1.975
	c-0.033-0.02-0.072-0.043-0.104-0.064c-0.035-0.025-0.082-0.049-0.113-0.07c0.08,0.143,0.189,0.268,0.277,0.416
	c0.01,0.01,0.022,0.025,0.033,0.039c0.723,1.205,1.616,2.313,2.702,3.217c0.028,0.021,0.044,0.051,0.069,0.07
	c0.554,0.451,1.162,0.834,1.793,1.184c0.089,0.053,0.16,0.115,0.254,0.168c0.724,0.377,1.503,0.691,2.32,0.914
	c6.494,1.797,13.145-2.301,14.846-9.146C175.131,59.506,175.231,58.732,175.282,57.965"/>
<path fill="#FDEEED" d="M155.246,59.426c0,0-0.796-8.736,5.509-9.248c6.259-0.51,7.853-2.951,2.209-3.584
	c-0.038-0.006-0.073-0.014-0.123-0.018c-2.096-0.221-4.024,0.725-5.505,2.273C154.709,51.564,153.484,56.143,155.246,59.426"/>
<path fill="#3A291D" d="M143.916,76.891c0,0.691,1.436,1.25,3.207,1.254c1.773,0.004,3.211-0.551,3.211-1.238
	c0.002-0.691-1.435-1.252-3.207-1.254C145.355,75.65,143.918,76.203,143.916,76.891"/>
<path fill="#603A1E" d="M147.211,72.023c1.377,0.154,0.988,0.748-0.539,0.873c-1.537,0.125-1.344,2.258-1.344,2.258
	c-0.43-0.801-0.131-1.918,0.51-2.582c-0.558,0.41-0.991,1.012-1.176,1.758c-0.158,0.629-0.109,1.26,0.084,1.83
	c0.282,0.213,0.602,0.383,0.957,0.482c1.586,0.438,3.207-0.561,3.623-2.232c0.155-0.625,0.118-1.256-0.072-1.824
	c-0.283-0.217-0.608-0.387-0.969-0.488C147.924,71.998,147.563,71.982,147.211,72.023"/>
<path fill="#774E31" d="M144.746,76.16c-0.193-0.57-0.242-1.201-0.084-1.83c0.186-0.746,0.619-1.348,1.176-1.758
	c0.362-0.377,0.832-0.607,1.344-0.553c0.012,0,0.021,0.002,0.029,0.004c0.352-0.041,0.713-0.025,1.073,0.074
	c0.36,0.102,0.687,0.271,0.971,0.488c-0.062-0.184-0.137-0.359-0.229-0.527c-0.125-0.1-0.262-0.189-0.404-0.268
	c-0.035-0.018-0.07-0.033-0.104-0.051c-0.16-0.078-0.326-0.148-0.5-0.197c-1.586-0.438-3.209,0.563-3.625,2.23
	c-0.054,0.219-0.084,0.436-0.092,0.648c-0.002,0.035,0.004,0.066,0.004,0.102c-0.002,0.184,0.004,0.367,0.033,0.545
	c0.002,0.014,0.008,0.027,0.01,0.043c0.065,0.367,0.194,0.715,0.373,1.033C144.729,76.15,144.738,76.154,144.746,76.16"/>
<path fill="#513119" d="M150.218,74.797c0.004-0.059,0.003-0.117,0.004-0.176c0.002-0.129-0.003-0.258-0.017-0.388
	c-0.006-0.063-0.012-0.126-0.022-0.188c-0.022-0.133-0.054-0.266-0.091-0.393c-0.016-0.047-0.021-0.096-0.039-0.141
	c-0.053-0.158-0.121-0.311-0.199-0.455c-0.025-0.047-0.055-0.092-0.083-0.137c-0.03-0.051-0.058-0.103-0.09-0.15
	c-0.034-0.047-0.069-0.098-0.108-0.146l0,0c-0.052-0.07-0.106-0.14-0.166-0.203v-0.002c-0.028-0.029-0.056-0.063-0.084-0.09
	c-0.095-0.096-0.189-0.189-0.295-0.268c0-0.002,0-0.002,0-0.002c0.09,0.168,0.168,0.344,0.228,0.527
	c0.19,0.568,0.228,1.199,0.071,1.824c-0.416,1.672-2.037,2.67-3.623,2.232c-0.356-0.1-0.674-0.27-0.957-0.482
	c-0.008-0.006-0.018-0.01-0.025-0.016s-0.02-0.012-0.027-0.018c0.02,0.035,0.045,0.065,0.067,0.102
	c0.002,0.002,0.005,0.006,0.008,0.01c0.177,0.295,0.396,0.564,0.659,0.785c0.007,0.006,0.012,0.014,0.018,0.018
	c0.135,0.109,0.283,0.203,0.438,0.289c0.021,0.012,0.039,0.027,0.063,0.041c0.176,0.09,0.366,0.168,0.565,0.223
	c1.584,0.439,3.207-0.561,3.623-2.232C150.181,75.172,150.205,74.986,150.218,74.797"/>
<path fill="#FDEEED" d="M145.328,75.154c0,0-0.193-2.133,1.346-2.258c1.525-0.125,1.916-0.719,0.537-0.873
	c-0.009-0.002-0.018-0.004-0.029-0.004c-0.512-0.054-0.981,0.176-1.344,0.553C145.197,73.236,144.898,74.354,145.328,75.154"/>
<path fill="#70482B" d="M94.114,75.322c0,0,3.324,0.979,6.565,4.217c3.241,3.238,7.687,4.554,15.964,0.932
	c8.277-3.621,9.771-3.645,9.771-3.645s-1.732-2.584,0.498-4.389c2.23-1.804,7.389-2.693,10.012-4.346c2.621-1.65,4.75-7,4.75-7
	s2.565-4.49,6.371-0.92c3.807,3.57,2.996,2.391,2.996,2.391s-4.88-3.088-6.313-1.777c-1.434,1.311,0.386,5.822-5.274,9.494
	c-5.659,3.672-11.68,2.186-11.67,3.324c0.011,1.139,2.64,6.537-0.737,6.867c-3.377,0.332-6.211,0.725-8.481,2.176
	c-2.27,1.449-14.002,4.084-17.886,0.658c-3.884-3.426-4.29-5.557-5.837-5.873C93.295,77.113,90.433,74.189,94.114,75.322"/>
</svg>
