<svg xmlns:dc="http://purl.org/dc/elements/1.1/" xmlns:cc="http://creativecommons.org/ns#" xmlns:rdf="http://www.w3.org/1999/02/22-rdf-syntax-ns#" xmlns:svg="http://www.w3.org/2000/svg" xmlns="http://www.w3.org/2000/svg" xmlns:xlink="http://www.w3.org/1999/xlink" xmlns:sodipodi="http://sodipodi.sourceforge.net/DTD/sodipodi-0.dtd" xmlns:inkscape="http://www.inkscape.org/namespaces/inkscape" width="407.02304" height="391.29883" id="svg4571" version="1.1" inkscape:version="0.47pre4 r22446" sodipodi:docname="Documento nuevo 10"><meta id="shimsham-meta"/>
  <defs id="defs3">
    <linearGradient inkscape:collect="always" id="linearGradient5286">
      <stop style="stop-color:#007880;stop-opacity:1;" offset="0" id="stop5288"/>
      <stop style="stop-color:#007880;stop-opacity:0;" offset="1" id="stop5290"/>
    </linearGradient>
    <linearGradient inkscape:collect="always" id="linearGradient5202">
      <stop style="stop-color:#00484d;stop-opacity:1" offset="0" id="stop5204"/>
      <stop style="stop-color:#007880;stop-opacity:1" offset="1" id="stop5206"/>
    </linearGradient>
    <inkscape:perspective sodipodi:type="inkscape:persp3d" inkscape:vp_x="0 : 526.18109 : 1" inkscape:vp_y="0 : 1000 : 0" inkscape:vp_z="744.09448 : 526.18109 : 1" inkscape:persp3d-origin="372.04724 : 350.78739 : 1" id="perspective4577"/>
    <inkscape:perspective id="perspective4647" inkscape:persp3d-origin="0.5 : 0.33333333 : 1" inkscape:vp_z="1 : 0.5 : 1" inkscape:vp_y="0 : 1000 : 0" inkscape:vp_x="0 : 0.5 : 1" sodipodi:type="inkscape:persp3d"/>
    <linearGradient inkscape:collect="always" xlink:href="#linearGradient5202" id="linearGradient5208" x1="217" y1="509.36218" x2="216.5" y2="530.61218" gradientUnits="userSpaceOnUse" gradientTransform="matrix(6.4319691,0,0,6.4319691,-1152.9487,-2717.3364)"/>
    <linearGradient inkscape:collect="always" xlink:href="#linearGradient5286" id="linearGradient5292" x1="201.34866" y1="500.28857" x2="243.95184" y2="502.1763" gradientUnits="userSpaceOnUse" gradientTransform="matrix(6.4319691,0,0,6.4319691,-1152.9487,-2717.3364)"/>
    <filter inkscape:collect="always" id="filter5341" color-interpolation-filters="sRGB">
      <feGaussianBlur inkscape:collect="always" stdDeviation="0.27578125" id="feGaussianBlur5343"/>
    </filter>
  </defs>
  <sodipodi:namedview inkscape:document-units="mm" id="base" pagecolor="#ffffff" bordercolor="#666666" borderopacity="1.0" inkscape:pageopacity="0.0" inkscape:pageshadow="2" inkscape:zoom="0.5" inkscape:cx="169.14839" inkscape:cy="236.53367" inkscape:current-layer="layer1" showgrid="false" showguides="true" inkscape:guide-bbox="true" inkscape:window-width="1280" inkscape:window-height="949" inkscape:window-x="0" inkscape:window-y="24" inkscape:window-maximized="1"/>
  <metadata id="metadata4">
    <rdf:RDF>
      <cc:Work rdf:about="">
        <dc:format>image/svg+xml</dc:format>
        <dc:type rdf:resource="http://purl.org/dc/dcmitype/StillImage"/>
        <dc:title/>
      </cc:Work>
    </rdf:RDF>
  </metadata>
  <g inkscape:label="Layer 1" inkscape:groupmode="layer" id="layer1" transform="translate(-66.914459,-360.52563)">
    <path style="fill:url(#linearGradient5208);fill-opacity:1;stroke:none" d="m 107.83156,549.21743 332.62581,0 c 6.29915,0 11.37023,5.07116 11.37023,11.37024 l -25.72787,179.86661 c 0,6.29908 -5.0711,11.37018 -11.37023,11.37018 l -281.17006,0 c -6.29916,0 -11.37024,-5.0711 -11.37024,-11.37018 L 96.461312,560.58767 c 0,-6.29908 5.071098,-11.37024 11.370248,-11.37024 z" id="rect5186" sodipodi:nodetypes="ccccccccc"/>
    <path style="fill:#007880;fill-opacity:1;stroke:none" d="m 67.919455,545.01589 0,31.35584 c 0,6.29909 4.95686,11.25595 11.255939,11.25595 l 383.305166,0 c 6.29908,0 11.45694,-4.95686 11.45694,-11.25595 l 0,-31.35584 -406.018045,0 z" id="rect5181" sodipodi:nodetypes="ccccccc"/>
    <path style="fill:#00a7b3;fill-opacity:1;stroke:none" d="m 105.50627,481.36222 -38.591811,63.11369 406.018041,0 -38.59181,-63.11369 -328.83442,0 z m 15.07493,10.25095 298.68456,0 25.92888,42.6118 -350.542316,0 25.928876,-42.6118 z" id="rect4653"/>
    <path style="fill:#006066;stroke:none" d="m 92.496721,534.67327 25.938769,-44.05467 304.6771,0.41165 24.70366,43.23124 -355.319529,0.41165 z" id="path4659"/>
    <path id="path5171" d="m 92.496721,534.67327 25.938769,-44.05467 304.6771,0.41165 24.70366,43.23124 -355.319529,0.41165 z" style="fill:url(#linearGradient5292);fill-opacity:1;stroke:none"/>
    <path style="fill:#00484d;stroke:none" d="m 118.37022,490.60818 -25.92888,44.01878 26.53186,0 0,-44.01878 -0.60298,0 z" id="path5176"/>
    <path id="path5179" d="m 422.68275,490.60818 25.92887,44.01878 -26.53187,0 0,-44.01878 0.60268,0 z" style="fill:#00484d;stroke:none"/>
    <path style="fill:#00484d;fill-opacity:1;stroke:none" d="m 124.22767,605.17763 0,53.46574 17.08493,0 0,-53.46574 -17.08493,0 z m 34.57184,0 0,53.46574 17.08492,0 0,-53.46574 -17.08492,0 z m 34.77284,0 0,53.46574 17.08491,0 0,-53.46574 -17.08491,0 z m 34.77282,0 0,53.46574 16.88393,0 0,-53.46574 -16.88393,0 z m 34.57184,0 0,53.46574 17.08491,0 0,-53.46574 -17.08491,0 z m 34.77283,0 0,53.46574 16.88392,0 0,-53.46574 -16.88392,0 z m 34.57184,0 0,53.46574 17.08491,0 0,-53.46574 -17.08491,0 z m 34.77282,0 0,53.46574 17.08493,0 0,-53.46574 -17.08493,0 z m 34.57184,0 0,53.46574 17.08493,0 0,-53.46574 -17.08493,0 z m -277.37867,77.18362 4.62299,53.46575 12.46194,0 0,-53.46575 -17.08493,0 z m 34.57184,0 0,53.46575 17.08492,0 0,-53.46575 -17.08492,0 z m 34.77284,0 0,53.46575 17.08491,0 0,-53.46575 -17.08491,0 z m 34.77282,0 0,53.46575 16.88393,0 0,-53.46575 -16.88393,0 z m 34.57184,0 0,53.46575 17.08491,0 0,-53.46575 -17.08491,0 z m 34.77283,0 0,53.46575 16.88392,0 0,-53.46575 -16.88392,0 z m 34.57184,0 0,53.46575 17.08491,0 0,-53.46575 -17.08491,0 z m 34.77282,0 0,53.46575 17.08493,0 0,-53.46575 -17.08493,0 z m 34.57184,0 0,53.46575 12.46194,0 4.62299,-53.46575 -17.08493,0 z" id="rect5212"/>
    <path style="fill:#2e3436;fill-opacity:1;stroke:none" d="m 124.14206,605.74678 0,6.83397 17.08492,0 0,-6.83397 -17.08492,0 z m 34.57184,0 0,6.83397 17.08491,0 0,-6.83397 -17.08491,0 z m 34.77283,0 0,6.83397 17.08493,0 0,-6.83397 -17.08493,0 z m 34.77284,0 0,6.83397 16.88391,0 0,-6.83397 -16.88391,0 z m 34.57184,0 0,6.83397 17.08491,0 0,-6.83397 -17.08491,0 z m 34.77282,0 0,6.83397 16.88393,0 0,-6.83397 -16.88393,0 z m 34.57184,0 0,6.83397 17.08491,0 0,-6.83397 -17.08491,0 z m 34.77283,0 0,6.83397 17.08491,0 0,-6.83397 -17.08491,0 z m 34.57183,0 0,6.83397 17.08492,0 0,-6.83397 -17.08492,0 z m -277.37867,77.18363 0.60268,6.83398 16.48192,0 0,-6.83398 -17.08491,0 z m 34.57184,0 0,6.83398 17.08491,0 0,-6.83398 -17.08491,0 z m 34.77283,0 0,6.83398 17.08493,0 0,-6.83398 -17.08493,0 z m 34.77284,0 0,6.83398 16.88391,0 0,-6.83398 -16.88391,0 z m 34.57184,0 0,6.83398 17.08491,0 0,-6.83398 -17.08491,0 z m 34.77282,0 0,6.83398 16.88393,0 0,-6.83398 -16.88393,0 z m 34.57184,0 0,6.83398 17.08491,0 0,-6.83398 -17.08491,0 z m 34.77283,0 0,6.83398 17.08491,0 0,-6.83398 -17.08491,0 z m 34.57183,0 0,6.83398 16.48192,0 0.60268,-6.83398 -17.08493,0 z" id="path5269"/>
    <path style="fill:#00c4cc;fill-opacity:1;stroke:none" d="m 125.42183,652.4124 0,9.24596 17.08493,0 0,-9.24596 -17.08493,0 z m 34.57184,0 0,9.24596 17.08491,0 0,-9.24596 -17.08491,0 z m 34.77284,0 0,9.24596 17.08491,0 0,-9.24596 -17.08491,0 z m 34.77283,0 0,9.24596 16.88392,0 0,-9.24596 -16.88392,0 z m 34.57183,0 0,9.24596 17.08492,0 0,-9.24596 -17.08492,0 z m 34.77283,0 0,9.24596 16.88392,0 0,-9.24596 -16.88392,0 z m 34.57184,0 0,9.24596 17.08491,0 0,-9.24596 -17.08491,0 z m 34.77282,0 0,9.24596 17.08493,0 0,-9.24596 -17.08493,0 z m 34.57184,0 0,9.24596 17.08491,0 0,-9.24596 -17.08491,0 z m -277.37867,32.96384 4.62299,53.46573 12.46194,0 0,-9.24594 -12.46194,0 -3.81898,-44.21979 -0.80401,0 z m 293.65959,0 -3.81898,44.21979 -12.46194,0 0,9.24594 12.46194,0 4.62297,-53.46573 -0.80399,0 z m -259.08775,44.21979 0,9.24594 17.08491,0 0,-9.24594 -17.08491,0 z m 34.77284,0 0,9.24594 17.08491,0 0,-9.24594 -17.08491,0 z m 34.77283,0 0,9.24594 16.88392,0 0,-9.24594 -16.88392,0 z m 34.57183,0 0,9.24594 17.08492,0 0,-9.24594 -17.08492,0 z m 34.77283,0 0,9.24594 16.88392,0 0,-9.24594 -16.88392,0 z m 34.57184,0 0,9.24594 17.08491,0 0,-9.24594 -17.08491,0 z m 34.77282,0 0,9.24594 17.08493,0 0,-9.24594 -17.08493,0 z" id="path5274"/>
    <path style="opacity:0.8;fill:#ffffff;fill-opacity:1;stroke:#ffffff;stroke-width:2.27904415;stroke-linecap:butt;stroke-linejoin:miter;stroke-miterlimit:4;stroke-opacity:1;stroke-dasharray:none" d="m 69.125443,543.58946 402.802067,1.60799" id="path5279"/> 
  </g>
</svg>
