<?xml version="1.0" encoding="utf-8"?>
<!-- Generator: Adobe Illustrator 12.0.0, SVG Export Plug-In . SVG Version: 6.00 Build 51448)  -->
<!DOCTYPE svg PUBLIC "-//W3C//DTD SVG 1.1//EN" "http://www.w3.org/Graphics/SVG/1.1/DTD/svg11.dtd" [
	<!ENTITY ns_svg "http://www.w3.org/2000/svg">
	<!ENTITY ns_xlink "http://www.w3.org/1999/xlink">
]>
<svg  version="1.1" id="Layer_1" xmlns="&ns_svg;" xmlns:xlink="&ns_xlink;" width="225.215" height="341.896"
	 viewBox="0 0 225.215 341.896" overflow="visible" enable-background="new 0 0 225.215 341.896" xml:space="preserve">
<g>
	<path fill="#8C5E49" d="M40.428,189.712c0,4.621-8.717,8.367-19.47,8.367s-19.471-3.746-19.471-8.367
		c0-4.619,8.718-8.365,19.471-8.365S40.428,185.093,40.428,189.712"/>
	<path fill="#925CA4" d="M40.755,118.095c-0.001,0.719,1.493,1.301,3.336,1.305c1.844,0.004,3.339-0.573,3.34-1.289
		c0.001-0.719-1.492-1.303-3.335-1.305C42.253,116.804,40.756,117.38,40.755,118.095"/>
	<path fill="#603A1E" d="M44.183,113.031c1.433,0.161,1.027,0.78-0.561,0.909c-1.601,0.131-1.398,2.349-1.398,2.349
		c-0.447-0.834-0.137-1.994,0.53-2.687c-0.579,0.429-1.031,1.054-1.224,1.828c-0.164,0.654-0.113,1.312,0.089,1.904
		c0.293,0.221,0.625,0.397,0.994,0.502c1.649,0.453,3.336-0.584,3.769-2.322c0.162-0.652,0.124-1.307-0.074-1.896
		c-0.296-0.228-0.634-0.404-1.009-0.509C44.923,113.005,44.549,112.99,44.183,113.031"/>
	<path fill="#774E31" d="M41.618,117.335c-0.201-0.594-0.252-1.25-0.088-1.904c0.192-0.774,0.645-1.399,1.224-1.828
		c0.376-0.393,0.865-0.633,1.397-0.576c0.012,0.002,0.021,0.005,0.031,0.005c0.366-0.041,0.74-0.025,1.116,0.079
		c0.375,0.104,0.713,0.281,1.009,0.509c-0.063-0.191-0.142-0.375-0.237-0.552c-0.132-0.102-0.273-0.194-0.422-0.276
		c-0.036-0.021-0.073-0.035-0.108-0.054c-0.166-0.081-0.338-0.153-0.52-0.204c-1.65-0.455-3.338,0.584-3.77,2.321
		c-0.057,0.226-0.088,0.451-0.097,0.672c-0.002,0.037,0.005,0.07,0.005,0.105c-0.003,0.188,0.004,0.383,0.034,0.568
		c0.002,0.014,0.008,0.026,0.01,0.043c0.068,0.383,0.203,0.743,0.389,1.075C41.6,117.323,41.609,117.329,41.618,117.335"/>
	<path fill="#513119" d="M47.31,115.917c0.004-0.062,0.003-0.121,0.005-0.185c0.001-0.133-0.004-0.27-0.018-0.401
		c-0.007-0.066-0.014-0.131-0.023-0.197c-0.023-0.139-0.057-0.275-0.096-0.408c-0.014-0.049-0.022-0.098-0.039-0.146
		c-0.056-0.164-0.127-0.32-0.208-0.474c-0.025-0.049-0.058-0.096-0.086-0.143c-0.032-0.053-0.061-0.105-0.094-0.156
		c-0.035-0.051-0.073-0.102-0.112-0.151c-0.055-0.072-0.111-0.146-0.172-0.212h-0.001c-0.03-0.032-0.059-0.065-0.089-0.098
		c-0.097-0.098-0.196-0.193-0.306-0.277l-0.001-0.002c0.096,0.177,0.174,0.359,0.237,0.552c0.198,0.59,0.236,1.244,0.074,1.896
		c-0.433,1.738-2.119,2.775-3.769,2.322c-0.37-0.104-0.702-0.281-0.995-0.502c-0.009-0.006-0.019-0.012-0.026-0.017
		c-0.009-0.008-0.021-0.014-0.029-0.02c0.021,0.037,0.049,0.068,0.07,0.105l0.009,0.012c0.183,0.305,0.41,0.586,0.686,0.813
		c0.008,0.006,0.012,0.015,0.018,0.021c0.141,0.113,0.295,0.211,0.455,0.301c0.022,0.014,0.041,0.029,0.065,0.041
		c0.183,0.096,0.381,0.176,0.588,0.232c1.648,0.457,3.337-0.584,3.769-2.322C47.271,116.31,47.296,116.112,47.31,115.917"/>
	<path fill="#FDEEED" d="M42.224,116.288c0,0-0.202-2.218,1.398-2.349c1.588-0.129,1.993-0.748,0.561-0.909
		c-0.01,0-0.02-0.003-0.031-0.005c-0.531-0.057-1.021,0.185-1.397,0.575C42.087,114.294,41.776,115.454,42.224,116.288"/>
	<g opacity="0.08">
		<g>
			<g>
				<defs>
					<rect id="XMLID_1_" x="36.33" y="279.44" width="152.469" height="62.457"/>
				</defs>
				<clipPath id="XMLID_17_">
					<use xlink:href="#XMLID_1_" />
				</clipPath>
				<path clip-path="url(#XMLID_17_)" fill="#BF792A" d="M188.799,310.668c0,17.248-34.133,31.229-76.234,31.229
					c-42.104,0-76.235-13.979-76.235-31.229s34.131-31.229,76.235-31.229C154.667,279.44,188.799,293.42,188.799,310.668"/>
			</g>
		</g>
	</g>
	<path fill="#513119" d="M212.805,173.644c-28.93-3.225-57.975-5.063-87.037-5.518c-4.674-0.058-9.348-0.076-14.023-0.063
		c-33.61,0.008-67.22,1.867-100.678,5.58c-0.149-0.043-18.888,18.355-7.27,32.13c3.213,3.851,8.161,6.197,14.288,7.56
		c-0.584,0.68-0.893,1.375-0.893,2.08c0,8.461,43.324,15.319,96.768,15.319c53.442,0,96.768-6.858,96.768-15.319
		c0-0.998-0.609-1.976-1.766-2.922c4.662-1.423,8.477-3.56,11.113-6.718C231.692,191.998,212.954,173.601,212.805,173.644"/>
	<path fill="#472E1C" d="M213.45,173.798c-2.688-0.301-5.379-0.576-8.068-0.853c2.025,1.908,18.002,18.976,7.06,31.948
		c-2.635,3.158-6.448,5.295-11.112,6.717c1.155,0.945,1.768,1.923,1.768,2.923c0,8.461-43.324,15.319-96.767,15.319
		c-20.688,0-39.855-1.028-55.584-2.778c17.041,2.373,39.389,3.813,63.862,3.813c53.442,0,96.767-6.859,96.767-15.32
		c0-1-0.608-1.977-1.766-2.924c4.664-1.422,8.479-3.559,11.113-6.717C232.336,192.152,213.6,173.753,213.45,173.798"/>
	<path fill="#563621" d="M11.066,173.644c0,0,37.679,1.433,87.909,2.279c50.23,0.848,73.191,40.952,22.484,43.671
		C70.754,222.313-33.841,226.131,11.066,173.644"/>
	<path fill="#5E3C2B" d="M94.266,200.32c-0.588,8.59-22.142,14.108-48.144,12.327c-25.999-1.778-46.601-10.185-46.013-18.771
		s22.143-14.107,48.144-12.326C74.254,183.328,94.854,191.734,94.266,200.32"/>
	<polyline fill="none" stroke="#472E1C" stroke-width="10" stroke-miterlimit="10" points="31.697,220.932 44.094,220.145 
		50.094,224.85 62.148,223.221 72.859,228.93 81.415,224.85 91.516,228.93 104.781,226.67 113.959,230.35 124.821,226.44 
		133.983,230.35 143.827,225.249 155.961,227.59 165.77,222.071 177.03,224.848 187.379,219.409 199.567,220.932 202.555,219.409 	
		"/>
	<path fill="#EE508C" d="M38.396,219.331c-3.528,0.18-7.036,0.356-10.521,0.535c-3.593-1.877-7.158-3.865-10.683-5.978
		c1.286,35.828,19.897,68.91,30.637,104.064c2.365,1.094,4.742,2.127,7.128,3.1c-6.291-24.273-15.734-47.789-21.729-70.867
		c5.994,23.076,15.438,46.594,21.729,70.867c2.387,0.973,4.784,1.883,7.191,2.732c-6.426-30.009-17.104-59.066-21.684-86.086
		C39.408,231.463,38.676,225.336,38.396,219.331"/>
	<path fill="#F6B6D2" d="M49.21,224.315c-3.624-1.563-7.233-3.219-10.814-4.983c0.28,6.006,1.013,12.133,2.069,18.369
		c4.58,27.02,15.258,56.077,21.684,86.086c2.407,0.852,4.826,1.639,7.255,2.366c2.429,0.728,4.868,1.396,7.317,2.003
		c-5.394-38.255-15.527-75.826-16.896-104.742C56.267,223.719,52.728,224.02,49.21,224.315"/>
	<path fill="#EE508C" d="M70.708,227.477c-3.635-1.272-7.269-2.625-10.884-4.063c1.369,28.916,11.503,66.487,16.896,104.741
		c2.448,0.605,4.908,1.15,7.374,1.638c2.466,0.483,4.94,0.908,7.421,1.271c-3.13-39.121-9.148-78.213-10.101-104.932
		C77.829,226.596,74.259,227.043,70.708,227.477"/>
	<path fill="#F6B6D2" d="M92.309,229.37c-3.629-1.019-7.264-2.093-10.895-3.238c0.953,26.719,6.972,65.811,10.102,104.932
		c2.48,0.363,4.968,0.666,7.46,0.912c-1.454-27.578-3.834-55.256-5.37-78.301c1.536,23.045,3.917,50.723,5.37,78.301
		c2.49,0.238,4.987,0.422,7.485,0.543c-1.026-39.549-3.021-79.442-3.36-105.026C99.49,228.149,95.892,228.77,92.309,229.37"/>
	<path fill="#EE508C" d="M124.821,227.491c-3.627,0.885-7.25,1.715-10.859,2.508c-3.61-0.793-7.232-1.623-10.86-2.508
		c0.34,25.582,2.334,65.477,3.36,105.026c2.498,0.121,4.999,0.183,7.5,0.183c2.498,0,5-0.062,7.498-0.183
		c0.896-34.604,2.537-69.477,3.162-94.791C124.709,234.112,124.778,230.69,124.821,227.491"/>
	<path fill="#F6B6D2" d="M145.577,241.325c0.137-1.688,0.262-3.343,0.375-4.966c0.121-1.729,0.23-3.424,0.32-5.075
		c0.096-1.765,0.176-3.482,0.236-5.152c-3.633,1.146-7.268,2.221-10.896,3.238c-3.582-0.601-7.18-1.222-10.791-1.879
		c-0.043,3.198-0.111,6.62-0.199,10.235c-0.625,25.314-2.266,60.187-3.162,94.791c2.498-0.121,4.992-0.305,7.484-0.545
		c2.492-0.244,4.98-0.547,7.461-0.91c2.418-30.221,6.561-60.422,8.758-84.918C145.311,244.514,145.448,242.906,145.577,241.325"/>
	<path fill="#EE508C" d="M146.508,226.131c-0.062,1.67-0.141,3.389-0.236,5.152c-0.092,1.651-0.199,3.346-0.32,5.075
		c-0.113,1.623-0.238,3.277-0.375,4.966c-0.129,1.579-0.266,3.188-0.414,4.819c-2.197,24.496-6.34,54.697-8.758,84.918
		c2.48-0.362,4.955-0.787,7.422-1.271c4.133-37.57,11.779-74.859,13.387-102.314C153.663,227.043,150.092,226.596,146.508,226.131"
		/>
	<path fill="#EE508C" d="M168.187,223.469c-4.036,1.522-8.093,2.959-12.155,4.317c-1.195,27.349-8.97,64.63-12.783,102.103
		c2.767-0.545,5.52-1.15,8.26-1.813c0.652-4.774,1.39-9.539,2.178-14.277C159.215,280.622,167.405,248.665,168.187,223.469"/>
	<polygon fill="#F3DDCA" points="189.524,219.331 189.526,219.331 189.526,219.331 	"/>
	<path fill="#F6B6D2" d="M189.524,219.333c-3.58,1.764-7.189,3.42-10.813,4.981c-3.521-0.293-7.06-0.596-10.615-0.901
		c-1.197,25.301-9.105,57.229-14.678,90.442c-0.797,4.744-1.545,9.517-2.222,14.299c2.449-0.606,4.89-1.274,7.318-2.002
		c2.428-0.729,4.848-1.518,7.254-2.366c0.989-4.617,2.078-9.211,3.231-13.779C177.067,278.034,188.215,247.356,189.524,219.333"/>
	<path fill="#EE508C" d="M200.043,219.866c-3.484-0.177-6.99-0.354-10.519-0.535c-0.002,0-0.002,0.002-0.002,0.002
		c-1.31,28.022-12.457,58.701-20.522,90.674c-1.152,4.568-2.24,9.162-3.23,13.779h0.002c2.406-0.851,4.803-1.761,7.189-2.73
		c2.387-0.973,4.764-2.008,7.129-3.102c10.74-35.154,29.35-68.236,30.637-104.064C207.204,216,203.637,217.99,200.043,219.866"/>
	<g opacity="0.27">
		<g>
			<g>
				<defs>
					<rect id="XMLID_3_" x="17.193" y="214.627" width="193.536" height="112.246"/>
				</defs>
				<clipPath id="XMLID_18_">
					<use xlink:href="#XMLID_3_" />
				</clipPath>
				<path clip-path="url(#XMLID_18_)" fill="#CE3876" d="M200.043,220.6c-3.482-0.176-6.99-0.354-10.517-0.533h-0.002l0,0
					c-3.582,1.767-7.19,3.425-10.815,4.986c-3.519-0.297-7.058-0.598-10.613-0.906c-3.615,1.443-7.246,2.793-10.881,4.068
					c-3.551-0.437-7.121-0.881-10.707-1.348c-3.631,1.146-7.268,2.221-10.896,3.235c-3.582-0.596-7.18-1.219-10.791-1.875
					c-3.627,0.883-7.25,1.715-10.859,2.504c-3.61-0.789-7.232-1.621-10.86-2.504c-3.61,0.656-7.209,1.279-10.791,1.875
					c-3.63-1.016-7.264-2.09-10.895-3.235c-3.586,0.467-7.156,0.914-10.707,1.348c-3.635-1.275-7.267-2.625-10.883-4.068
					c-3.558,0.31-7.096,0.609-10.614,0.906c-3.624-1.563-7.234-3.221-10.814-4.986c-3.527,0.181-7.035,0.357-10.52,0.533
					c-3.594-1.875-7.16-3.863-10.684-5.973c0.371,10.34,2.191,20.451,4.844,30.451c0.503,0.221,1.003,0.453,1.506,0.67
					c3.518-0.295,7.057-0.597,10.614-0.904c3.616,1.441,7.248,2.791,10.883,4.066c3.551-0.435,7.121-0.882,10.707-1.347
					c3.631,1.146,7.265,2.22,10.894,3.236c3.584-0.598,7.182-1.221,10.792-1.875c3.628,0.881,7.25,1.713,10.86,2.504
					c3.61-0.791,7.233-1.623,10.861-2.504c3.609,0.654,7.207,1.277,10.79,1.875c3.629-1.018,7.264-2.09,10.896-3.236
					c3.584,0.466,7.156,0.912,10.707,1.347c3.633-1.275,7.266-2.625,10.883-4.066c3.557,0.309,7.094,0.609,10.611,0.904
					c3.625-1.563,7.233-3.219,10.815-4.984l0,0h0.002c3.524,0.178,7.033,0.357,10.517,0.533c3.596-1.877,7.16-3.865,10.686-5.975
					c-1.135,31.549-15.699,60.969-26.496,91.551c2.414-0.726,4.816-1.508,7.207-2.353h0.002c2.406-0.85,4.803-1.76,7.189-2.731
					c2.385-0.974,4.762-2.004,7.127-3.103c10.74-35.151,29.35-68.233,30.639-104.061C207.204,216.737,203.639,218.723,200.043,220.6
					"/>
			</g>
		</g>
	</g>
	<path fill="#AA81B9" d="M76.593,188.982c-24.966,0.002-44.617-3.336-56.827-9.649C2.819,170.568,1.48,159.656,3.343,152.043
		c2.147-8.778,8.656-13.981,10.421-14.106l5.887-0.418l-2.537-4.848c-0.096-0.191-2.663-5.406,0.207-11.549
		c2.958-6.329,10.531-11.459,22.513-15.248l5.913-1.869l-4.309-4.137c-0.047-0.05-5.818-5.761-4.44-11.439
		c0.946-3.902,5.163-7.261,12.527-9.975c6.964-2.568,14.443-5.045,21.675-7.441c26.104-8.647,35.301-12.182,35.996-17.859
		c0.158-1.286-0.068-3.735-3.364-5.666c-1.544-0.905-3.427-1.887-5.42-2.928c-3.378-1.764-10.052-5.244-11.903-7.322
		c0.97-0.479,3.299-1.315,8.565-2.024c2.718-0.365,5.48-0.551,8.213-0.551c20.34,0,41.687,10.604,43.129,30.877l0.232,3.229
		l3.543,0.205c0.188,0.01,19.32,1.279,27.557,11.502c3.771,4.678,4.701,10.73,2.767,17.992l-1.231,4.631l5.231-0.084
		c0.776,0,16.604,0.109,24.44,8.951c4.504,5.082,5.687,12.326,3.51,21.529l-0.737,3.125l3.293,1.102
		c0.416,0.148,10.978,4.06,10.149,18.141l-0.008,0.125c-0.008,0.253-0.41,7.13-8.779,14.517
		c-8.022,7.084-25.077,15.869-60.754,17.498l-0.483,0.021l-0.463,0.127h0.002c-0.013,0-1.524,0.322-4.933,0.322
		c-4.231,0-11.774-0.5-23.678-2.893l-0.766-0.154l-0.777,0.119C124.309,185.578,101.929,188.982,76.593,188.982"/>
	<path fill="#C09AC7" d="M141.965,186.857l-0.766-0.151l-0.777,0.117c-0.045,0.008-1.017,0.153-2.726,0.383
		c6.673,1.055,11.455,1.395,14.683,1.453C149.358,188.23,145.905,187.65,141.965,186.857"/>
	<path fill="#C09AC7" d="M197.627,104.337c-0.803-0.178-1.58-0.326-2.324-0.453l-0.131,0.492L197.627,104.337z"/>
	<path fill="#C09AC7" d="M35.657,180.614c-16.947-8.765-18.285-19.677-16.425-27.29c2.148-8.777,8.656-13.98,10.422-14.105
		l5.887-0.42l-2.536-4.846c-0.097-0.193-2.664-5.406,0.207-11.552c2.957-6.327,10.53-11.459,22.512-15.245l5.913-1.869l-4.309-4.14
		c-0.046-0.047-5.819-5.758-4.44-11.438c0.946-3.904,5.163-7.26,12.527-9.978c6.965-2.565,14.443-5.045,21.675-7.438
		c26.104-8.65,35.301-12.185,35.997-17.859c0.158-1.289-0.067-3.738-3.364-5.668c-1.543-0.904-3.427-1.887-5.419-2.928
		c-3.378-1.762-10.052-5.244-11.904-7.32c0.97-0.481,3.299-1.315,8.565-2.026c2.429-0.324,4.895-0.5,7.342-0.535
		c-3.72-0.728-7.535-1.097-11.319-1.097c-2.732,0-5.495,0.187-8.213,0.552c-5.267,0.709-7.596,1.545-8.565,2.024
		c1.852,2.078,8.525,5.56,11.903,7.322c1.993,1.041,3.876,2.021,5.421,2.928c3.294,1.931,3.521,4.379,3.363,5.666
		c-0.695,5.679-9.892,9.211-35.996,17.859c-7.231,2.396-14.71,4.873-21.675,7.44c-7.364,2.716-11.581,6.072-12.527,9.976
		c-1.379,5.68,4.394,11.391,4.44,11.438l4.31,4.138l-5.914,1.869c-11.981,3.788-19.555,8.92-22.513,15.247
		c-2.871,6.144-0.303,11.357-0.206,11.55l2.536,4.848l-5.886,0.418c-1.766,0.125-8.274,5.328-10.422,14.107
		c-1.862,7.61-0.523,18.523,16.424,27.288c9.78,5.059,24.346,8.2,42.582,9.252C53.449,187.234,43.147,184.486,35.657,180.614"/>
	<path fill="#925CA4" d="M107.712,186.527l-0.767-0.153l-0.776,0.119c-0.145,0.021-9.493,1.442-22.897,2.45
		c10.711-0.241,20.53-1.012,27.895-1.754C110.054,186.984,108.911,186.767,107.712,186.527"/>
	<path fill="#925CA4" d="M214.93,137.759l-3.295-1.102l0.74-3.125c2.176-9.203,0.994-16.445-3.513-21.527
		c-7.836-8.844-23.661-8.953-24.44-8.953l-5.232,0.084l1.234-4.631c1.936-7.26,1.004-13.314-2.766-17.992
		c-8.238-10.223-27.371-11.49-27.56-11.502l-3.543-0.205l-0.229-3.229c-1.445-20.271-22.791-30.875-43.132-30.875
		c-2.732,0-5.494,0.186-8.213,0.549c-1.606,0.217-2.937,0.444-4.041,0.672c18.333,1.875,35.812,12.289,37.112,30.564l0.232,3.229
		l3.543,0.205c0.188,0.01,19.319,1.279,27.557,11.502c3.77,4.678,4.701,10.73,2.766,17.992l-1.232,4.631l5.232-0.084
		c0.777,0,16.604,0.108,24.441,8.951c4.504,5.082,5.686,12.326,3.51,21.528l-0.738,3.125l3.295,1.103
		c0.414,0.147,10.975,4.059,10.148,18.141l-0.008,0.125c-0.01,0.252-0.41,7.129-8.779,14.517
		c-7.354,6.491-22.305,14.409-52.213,16.94c1.506,0.086,2.787,0.119,3.854,0.119c3.408,0,4.922-0.324,4.932-0.324h-0.002
		l0.466-0.125l0.481-0.021c35.678-1.631,52.73-10.416,60.756-17.498c8.369-7.388,8.771-14.267,8.779-14.517l0.006-0.127
		C225.907,141.817,215.344,137.907,214.93,137.759"/>
	<path fill="#925CA4" d="M200.333,138.534l-0.026,0.002c0.075,0,0.813-0.158,1.166-0.334c0.534-0.244,0.717-0.386,0.778-0.422
		c0.121-0.082,0.24-0.171,0.353-0.265c0.144-0.115,0.242-0.209,0.354-0.322l0.164-0.18c0.143-0.166,0.172-0.223,0.172-0.225
		c0.002-0.017-0.074,0.086-0.15,0.188l-0.557,0.771c-0.408,0.553-0.844,1.106-1.293,1.635c-0.9,1.059-1.854,2.031-2.834,2.93
		c-1.965,1.799-4.039,3.328-6.16,4.695c-2.123,1.367-4.297,2.566-6.498,3.658c-1.076,0.533-2.26,1.08-3.268,1.53
		c-1.084,0.498-2.234,1-3.339,1.455c-8.938,3.662-18.082,6.166-27.282,8.203c-18.414,3.998-37.08,5.91-55.703,6.601
		c18.48-2.347,36.807-5.918,54.417-11.433c8.775-2.778,17.424-6.026,25.402-10.172c1.008-0.524,1.951-1.043,2.939-1.606
		c1.068-0.601,1.959-1.113,2.92-1.701c1.879-1.152,3.688-2.377,5.373-3.691c1.684-1.311,3.248-2.713,4.592-4.19
		c0.672-0.74,1.283-1.498,1.824-2.269c0.271-0.387,0.52-0.772,0.768-1.184l0.408-0.685c0.086-0.141,0.168-0.282,0.34-0.534
		c0.082-0.121,0.201-0.296,0.438-0.57l0.24-0.26c0.137-0.14,0.265-0.257,0.433-0.396c0.129-0.104,0.262-0.201,0.397-0.293
		c0.074-0.049,0.273-0.201,0.824-0.451c0.369-0.184,1.123-0.352,1.217-0.354l0.025-0.006L200.333,138.534z"/>
	<path fill="#925CA4" d="M174.09,95.31c0.031-0.008-0.109,0.023,0.063-0.016c0.596-0.135,1.213-0.41,1.717-0.773
		c0.508-0.385,0.334-0.266,0.525-0.432c0.09-0.08,0.242-0.248,0.262-0.271c0.08-0.088,0.186-0.219,0.23-0.28l0.102-0.146
		c0.074-0.115,0.086-0.147,0.074-0.131c-0.021,0.023-0.09,0.133-0.156,0.246l-0.48,0.805c-0.34,0.57-0.704,1.15-1.079,1.713
		c-0.755,1.131-1.558,2.213-2.394,3.244c-1.676,2.063-3.49,3.943-5.383,5.683c-3.773,3.479-7.947,6.409-12.1,9.007
		c-8.459,5.238-17.408,9.187-26.508,12.521c-9.107,3.312-18.396,5.947-27.759,8.107c-9.366,2.156-18.813,3.832-28.29,5.141
		c9.328-2.127,18.562-4.612,27.623-7.551c9.059-2.939,17.952-6.33,26.516-10.318c8.541-3.998,16.818-8.58,24.186-14.094
		c3.725-2.809,7.164-5.727,10.156-9.014c1.492-1.631,2.861-3.336,4.051-5.099c0.594-0.881,1.141-1.774,1.637-2.684
		c0.248-0.455,0.48-0.91,0.713-1.389l0.371-0.773l0.277-0.539c0.061-0.113,0.15-0.272,0.307-0.512l0.168-0.238
		c0.068-0.092,0.197-0.252,0.301-0.367c0.031-0.039,0.199-0.217,0.302-0.313c0.207-0.178,0.043-0.072,0.565-0.469
		c0.521-0.373,1.154-0.658,1.767-0.804l0.116-0.028L174.09,95.31z"/>
	<path fill="#925CA4" d="M140.579,57.495c-0.719-0.986,2.379,2.504,1.539,4.323c-0.031,0.212-0.039,0.234-0.063,0.359l-0.072,0.296
		l-0.074,0.247l-0.107,0.293l-0.17,0.408c-0.108,0.242-0.213,0.455-0.317,0.658c-0.209,0.405-0.418,0.776-0.633,1.137
		c-0.429,0.716-0.873,1.377-1.332,2.014c-0.918,1.271-1.896,2.435-2.91,3.531c-2.033,2.191-4.228,4.119-6.506,5.865
		c-4.563,3.483-9.472,6.248-14.5,8.559c-10.078,4.603-20.634,7.429-31.231,9.377c10.166-3.551,20.039-7.957,28.811-13.75
		c4.368-2.896,8.454-6.147,11.94-9.795c1.74-1.822,3.328-3.744,4.666-5.74c0.668-0.995,1.271-2.012,1.781-3.02
		c0.254-0.504,0.482-1.006,0.672-1.484c0.092-0.237,0.178-0.473,0.24-0.68c0.031-0.104,0.059-0.201,0.072-0.271
		c0.006-0.035,0.01-0.064,0.004-0.066c-0.006,0.006-0.01,0.008-0.029,0.057l-0.039,0.125l-0.057,0.234
		c-0.023,0.113-0.029,0.127-0.057,0.328c-0.842,1.811,2.262,5.289,1.535,4.293L140.579,57.495z"/>
	<path fill="#C09AC7" d="M36.505,145.731c0,0-6.615,5.201-4.808,12.535c1.808,7.332,6.698,13.793,6.698,13.793
		s96.775-14.754,119.443-25.941c22.666-11.187,32.488-14.854,30.41-20.187c-2.076-5.334-11.076-15.221-16.076-11.111
		C167.172,118.933,53.17,166.315,36.505,145.731"/>
	<path fill="#C09AC7" d="M59.824,111.821c0,0-17.473,2.445-19.396,12.777c-1.924,10.334,1.849,16.334,17.129,13
		c15.28-3.332,72.852-21.666,84.9-31.332c12.047-9.668,17.434-13.58,8.739-21.457s-14.79-4.543-28.075,3.789
		C109.838,96.933,76.81,108.378,59.824,111.821"/>
	<path fill="#C09AC7" d="M64.766,84.81c0,0-10.974,8.051-2.617,9.754s32.548-7.297,40.952-12.965c8.404-5.666,15.97-15,15.97-15
		S79.026,79.353,64.766,84.81"/>
	<path fill="#C09AC7" d="M197.627,151.024c0,0,2.949,13.998-14.586,22.62c-17.537,8.623-41.504,10.605-52.521,8.947
		c-11.019-1.658-50.205-2.498-59.111-1.244c-8.906,1.252-13.239-11.16,14.094-9.287s34.841,3.056,64.42-3.037
		C179.504,162.933,183.417,160.784,197.627,151.024"/>
	<path fill="#E6CAE1" d="M67.437,157.851c-0.109-1.127-6.779-1.403-14.898-0.619c-8.119,0.785-14.612,2.334-14.504,3.461
		c0.108,1.125,6.778,1.402,14.898,0.617C61.052,160.526,67.545,158.978,67.437,157.851"/>
	<path fill="#E6CAE1" d="M77.307,121.063c-0.271-1.098-6.911-0.401-14.83,1.556s-14.119,4.432-13.848,5.53
		c0.272,1.099,6.912,0.402,14.83-1.553C71.378,124.64,77.578,122.163,77.307,121.063"/>
	<path fill="#E6CAE1" d="M191.547,161.784c-0.34-0.75-4.988,0.631-10.381,3.084c-5.396,2.45-9.492,5.043-9.15,5.793
		c0.34,0.746,4.988-0.634,10.381-3.084C187.79,165.126,191.887,162.532,191.547,161.784"/>
	<path fill="#E6CAE1" d="M84.979,84.915c-0.197-0.799-5.021-0.293-10.771,1.129c-5.751,1.42-10.254,3.219-10.057,4.018
		c0.198,0.797,5.021,0.291,10.771-1.129C80.674,87.511,85.176,85.712,84.979,84.915"/>
</g>
<g id="straw">
	<path fill="#EE508C" d="M166.672,36.991c-6.756-0.857-12.902-1.875-17.617-2.839c-4.238,33.277-8.479,66.554-12.717,99.83
		c9.512,3.539,20.988,5,31.084,3.959c4.225-33.188,8.453-66.375,12.682-99.563C176.12,38.071,171.538,37.61,166.672,36.991"/>
	<path fill="#CC377C" d="M180.081,38.542c-0.19,1.514-7.307,1.856-15.891,0.766c-8.582-1.096-15.383-3.209-15.191-4.725
		c0.193-1.519,7.308-1.861,15.892-0.769C173.473,34.907,180.276,37.024,180.081,38.542"/>
	<polygon fill="#F6F6E3" points="139.299,110.747 168.438,129.968 167.633,136.29 138.536,116.778 	"/>
	<polygon fill="#F6F6E3" points="140.872,98.403 170.008,117.626 169.204,123.946 140.108,104.437 	"/>
	<polygon fill="#F6F6E3" points="142.43,86.173 171.565,105.396 170.76,111.716 141.668,92.204 	"/>
	<polygon fill="#F6F6E3" points="144.059,73.388 173.194,92.606 172.391,98.929 143.293,79.419 	"/>
	<polygon fill="#F6F6E3" points="145.629,61.046 174.768,80.265 173.961,86.587 144.866,67.075 	"/>
	<polygon fill="#F6F6E3" points="147.186,48.813 176.327,68.032 175.522,74.354 146.424,54.843 	"/>
	<polygon fill="#F6F6E3" points="148.84,35.839 177.977,55.06 177.172,61.38 148.079,41.87 	"/>
	<path fill="#F6F6E3" d="M162.249,39.06c-0.375-0.047-0.744-0.098-1.11-0.147l17.407,11.68l0.81-6.326l-6.388-4.209
		C169.581,39.862,165.977,39.532,162.249,39.06"/>
	<path fill="#F6F6E3" d="M152.401,137.788c3.084,0.336,6.721,0.545,10.908,0.5l-25.385-16.748l-0.762,6.03L152.401,137.788z"/>
	<g opacity="0.41">
		<g>
			<g>
				<defs>
					<rect id="XMLID_5_" x="136.325" y="38.073" width="43.764" height="100.308"/>
				</defs>
				<clipPath id="XMLID_19_">
					<use xlink:href="#XMLID_5_" />
				</clipPath>
				<path clip-path="url(#XMLID_19_)" fill="#CC377C" d="M175.354,38.073c-4.184,33.227-8.365,66.457-12.547,99.686
					c-8.852,0.238-18.332-1.268-26.406-4.256c-0.025,0.197-0.051,0.395-0.076,0.592c9.512,3.537,20.988,4.998,31.082,3.959
					c4.229-33.191,8.453-66.377,12.682-99.568C178.59,38.37,177.004,38.231,175.354,38.073"/>
			</g>
		</g>
	</g>
	<g opacity="0.22">
		<g>
			<g>
				<defs>
					<rect id="XMLID_7_" x="136.584" y="120.544" width="32.674" height="17.662"/>
				</defs>
				<clipPath id="XMLID_20_">
					<use xlink:href="#XMLID_7_" />
				</clipPath>
				<path clip-path="url(#XMLID_20_)" fill="#925CA4" d="M136.584,132.06l1.467-11.516c0,0,6.516,2.145,17.422,2.975
					s13.785,0,13.785,0l-1.455,11.437l-1.049,2.397l-8.721,0.854l-11.609-1.098l-7.889-2.862L136.584,132.06z"/>
			</g>
		</g>
	</g>
	<path fill="#925CA4" d="M165.643,134.954c-3.363-1.146-4.824,1.688-4.824,1.688s-0.189-1.295-4.201-1.688
		c-4.014-0.396-3.863,0.836-3.863,0.836s-0.25-0.816-2.828-2.146c-2.579-1.33-6.633,0.847-6.633,0.847s-0.039-1.142-3.789-2.175
		c-3.75-1.032-5.5,1.328-5.5,1.328s-0.916,2.09,0,3.982c0.918,1.892,0.834,4.725,0,7.475c-0.832,2.75,1.752,5.417,5.252,1.917
		c0,0,1.228-0.834-0.721-2.417c-1.947-1.583-2.529-4.072-2.779-6.078c-0.25-2.005,0.861-3.688,0.861-3.688l-0.074-0.035
		c0.299,0.127,0.601,0.248,0.9,0.367l-0.279-0.106c0,0,0.156,1.343,0,2.567c-0.158,1.225-0.826,2.225,0.465,2.892
		c1.293,0.666,2.627-0.421,1.377-1.294s-1.563-1.662-0.828-2.58l0.736-0.918l-0.242-0.092c13.576,4.969,27.922,3.537,29.767,1.992
		C170.497,135.901,169.004,136.099,165.643,134.954"/>
	<path fill="#AA81B9" d="M143.856,134.487c0,0,2.178-1.163,4.355-1.264c-1.74-0.082-3.592,0.646-4.441,1.033
		C143.85,134.401,143.856,134.487,143.856,134.487"/>
	<path fill="#AA81B9" d="M153.317,135.788c0,0-0.096-0.843,2.15-0.906c-1.496-0.037-2.172,0.217-2.469,0.467
		C153.258,135.628,153.317,135.788,153.317,135.788"/>
	<path fill="#AA81B9" d="M161.381,136.642c0,0,0.936-1.801,3.021-1.947c-1.76-0.127-2.825,0.902-3.297,1.515
		C161.354,136.458,161.381,136.642,161.381,136.642"/>
	<path fill="#AA81B9" d="M137.444,135.163l-0.281-0.107c0,0,0.158,1.344,0,2.568c-0.156,1.225-0.824,2.225,0.469,2.891
		c0.384,0.199,0.771,0.238,1.093,0.178c-0.175-0.028-0.353-0.086-0.531-0.178c-1.291-0.666-0.623-1.666-0.467-2.891
		c0.157-1.226,0-2.568,0-2.568l0.28,0.107c-0.301-0.119-0.602-0.24-0.899-0.367l0.074,0.035c0,0-0.048,0.074-0.106,0.182
		C137.196,135.062,137.319,135.115,137.444,135.163"/>
	<path fill="#AA81B9" d="M139.235,135.632l0.242,0.092c0,0-0.004,0.006-0.119,0.148c7.045,2.465,14.234,3.242,19.729,3.201
		C153.487,139.058,146.26,138.204,139.235,135.632"/>
	<path fill="#AA81B9" d="M134.567,145.099c0.834-2.75,0.918-5.584,0-7.475c-0.916-1.894,0-3.982,0-3.982s1.092-1.459,3.389-1.576
		c-2.682-0.121-3.951,1.576-3.951,1.576s-0.916,2.09,0,3.982c0.916,1.891,0.834,4.725,0,7.475c-0.578,1.908,0.49,3.771,2.367,3.566
		C134.852,148.479,134.049,146.806,134.567,145.099"/>
</g>
<g id="sprinkles">
	<path fill="#925CA4" d="M72.785,138.761c-0.002,0.922,1.914,1.67,4.278,1.674c2.365,0.006,4.282-0.735,4.284-1.653
		c0-0.921-1.915-1.669-4.278-1.673C74.706,137.105,72.787,137.845,72.785,138.761"/>
	<path fill="#603A1E" d="M77.182,132.267c1.837,0.207,1.317,1.002-0.72,1.168c-2.052,0.166-1.793,3.01-1.793,3.01
		c-0.574-1.067-0.175-2.559,0.681-3.442c-0.744,0.547-1.323,1.35-1.57,2.344c-0.21,0.84-0.146,1.682,0.112,2.441
		c0.377,0.282,0.803,0.512,1.277,0.643c2.116,0.584,4.277-0.746,4.833-2.977c0.208-0.836,0.159-1.677-0.095-2.435
		c-0.381-0.289-0.813-0.516-1.295-0.649C78.131,132.235,77.651,132.214,77.182,132.267"/>
	<path fill="#774E31" d="M73.892,137.786c-0.258-0.761-0.322-1.603-0.112-2.441c0.247-0.994,0.826-1.797,1.57-2.344
		c0.48-0.504,1.109-0.813,1.791-0.74c0.016,0.002,0.027,0.004,0.041,0.006c0.47-0.053,0.949-0.031,1.431,0.103
		c0.481,0.135,0.914,0.36,1.295,0.649c-0.082-0.244-0.183-0.479-0.306-0.705c-0.168-0.131-0.351-0.25-0.54-0.354
		c-0.046-0.023-0.094-0.045-0.14-0.066c-0.212-0.106-0.433-0.197-0.666-0.264c-2.116-0.584-4.281,0.75-4.834,2.977
		c-0.073,0.289-0.113,0.578-0.124,0.863c-0.003,0.047,0.006,0.09,0.006,0.135c-0.004,0.244,0.005,0.49,0.044,0.729
		c0.003,0.018,0.01,0.035,0.013,0.057c0.087,0.49,0.26,0.953,0.498,1.379C73.868,137.772,73.881,137.781,73.892,137.786"/>
	<path fill="#513119" d="M81.191,135.97c0.005-0.08,0.004-0.158,0.006-0.236c0.003-0.172-0.004-0.348-0.022-0.516
		c-0.008-0.086-0.017-0.17-0.029-0.254c-0.03-0.178-0.072-0.354-0.123-0.523c-0.02-0.063-0.028-0.127-0.05-0.188
		c-0.071-0.211-0.163-0.412-0.267-0.607c-0.032-0.063-0.075-0.123-0.11-0.182c-0.042-0.068-0.077-0.135-0.121-0.199
		c-0.045-0.065-0.094-0.131-0.144-0.197c-0.069-0.092-0.143-0.186-0.22-0.27l-0.001-0.002c-0.04-0.041-0.075-0.084-0.114-0.123
		c-0.125-0.127-0.252-0.248-0.392-0.357c0,0-0.001,0-0.003-0.002c0.123,0.226,0.224,0.461,0.306,0.705
		c0.254,0.758,0.303,1.599,0.095,2.435c-0.556,2.229-2.718,3.561-4.833,2.977c-0.475-0.131-0.9-0.358-1.277-0.643
		c-0.012-0.006-0.023-0.015-0.033-0.021c-0.012-0.01-0.027-0.018-0.037-0.022c0.026,0.047,0.062,0.088,0.09,0.135
		c0.003,0.004,0.007,0.008,0.01,0.014c0.236,0.394,0.527,0.752,0.881,1.047c0.01,0.006,0.015,0.017,0.022,0.023
		c0.18,0.146,0.378,0.271,0.584,0.385c0.028,0.019,0.052,0.037,0.083,0.055c0.235,0.123,0.489,0.226,0.755,0.298
		c2.114,0.586,4.279-0.748,4.833-2.978C81.142,136.472,81.174,136.22,81.191,135.97"/>
	<path fill="#925CA4" d="M184.139,137.87c-0.002,1.157,2.41,2.1,5.385,2.104c2.977,0.006,5.389-0.926,5.391-2.082
		s-2.41-2.1-5.383-2.104C186.557,135.786,184.141,136.716,184.139,137.87"/>
	<path fill="#603A1E" d="M189.672,129.698c2.313,0.26,1.658,1.26-0.906,1.469c-2.582,0.209-2.256,3.787-2.256,3.787
		c-0.723-1.345-0.221-3.22,0.855-4.332c-0.937,0.688-1.664,1.696-1.976,2.948c-0.265,1.056-0.185,2.115,0.141,3.072
		c0.476,0.355,1.011,0.644,1.607,0.81c2.661,0.733,5.383-0.939,6.082-3.746c0.262-1.054,0.198-2.109-0.119-3.063
		c-0.479-0.365-1.022-0.649-1.629-0.817S190.262,129.63,189.672,129.698"/>
	<path fill="#774E31" d="M185.532,136.644c-0.324-0.957-0.404-2.018-0.141-3.071c0.311-1.253,1.039-2.263,1.975-2.949
		c0.607-0.636,1.396-1.021,2.256-0.933c0.021,0.002,0.033,0.006,0.051,0.009c0.591-0.068,1.195-0.041,1.802,0.127
		s1.149,0.452,1.629,0.817c-0.104-0.307-0.229-0.604-0.383-0.887c-0.214-0.164-0.443-0.314-0.683-0.447
		c-0.059-0.031-0.117-0.059-0.176-0.084c-0.266-0.135-0.545-0.25-0.838-0.332c-2.664-0.735-5.387,0.943-6.084,3.746
		c-0.092,0.363-0.141,0.729-0.156,1.086c-0.002,0.06,0.008,0.113,0.008,0.17c-0.004,0.308,0.008,0.617,0.058,0.916
		c0.002,0.023,0.012,0.045,0.017,0.07c0.108,0.617,0.325,1.198,0.627,1.736C185.502,136.626,185.518,136.636,185.532,136.644"/>
	<path fill="#513119" d="M194.717,134.356c0.008-0.1,0.006-0.196,0.008-0.297c0.004-0.215-0.004-0.436-0.027-0.647
		c-0.01-0.107-0.021-0.213-0.037-0.32c-0.039-0.223-0.092-0.443-0.154-0.658c-0.024-0.078-0.036-0.158-0.063-0.233
		c-0.088-0.267-0.202-0.521-0.334-0.767c-0.041-0.078-0.094-0.154-0.142-0.229c-0.051-0.086-0.096-0.17-0.149-0.252
		c-0.058-0.082-0.116-0.164-0.183-0.246c-0.088-0.117-0.18-0.234-0.276-0.34v-0.002c-0.051-0.054-0.096-0.107-0.146-0.156
		c-0.155-0.158-0.315-0.313-0.491-0.449c0,0-0.002,0-0.005-0.002c0.154,0.283,0.281,0.58,0.386,0.887
		c0.317,0.953,0.381,2.01,0.119,3.063c-0.699,2.807-3.421,4.479-6.082,3.746c-0.599-0.166-1.134-0.453-1.606-0.81
		c-0.015-0.008-0.029-0.018-0.041-0.024c-0.017-0.013-0.035-0.021-0.048-0.029c0.033,0.059,0.078,0.109,0.113,0.17
		c0.004,0.004,0.008,0.01,0.014,0.016c0.296,0.494,0.662,0.947,1.107,1.318c0.012,0.008,0.018,0.021,0.026,0.029
		c0.228,0.184,0.478,0.342,0.734,0.483c0.037,0.021,0.066,0.047,0.105,0.068c0.295,0.154,0.615,0.283,0.949,0.375
		c2.659,0.736,5.385-0.943,6.082-3.748C194.655,134.987,194.698,134.671,194.717,134.356"/>
	<path fill="#FDEEED" d="M186.51,134.954c0,0-0.326-3.578,2.256-3.787c2.564-0.209,3.217-1.209,0.906-1.469
		c-0.017-0.003-0.031-0.007-0.051-0.009c-0.859-0.09-1.648,0.297-2.256,0.933C186.29,131.735,185.788,133.61,186.51,134.954"/>
	<path fill="#925CA4" d="M75.569,92.214c-0.002,0.729,1.517,1.322,3.39,1.326c1.874,0.004,3.392-0.582,3.394-1.312
		c0-0.729-1.516-1.321-3.39-1.326C77.092,90.9,75.569,91.487,75.569,92.214"/>
	<path fill="#603A1E" d="M79.053,87.069c1.454,0.162,1.044,0.793-0.57,0.925c-1.627,0.133-1.421,2.387-1.421,2.387
		c-0.454-0.848-0.139-2.027,0.538-2.73c-0.588,0.435-1.048,1.07-1.242,1.857c-0.167,0.664-0.115,1.332,0.09,1.936
		c0.297,0.226,0.635,0.404,1.01,0.511c1.677,0.461,3.39-0.593,3.83-2.359c0.165-0.662,0.125-1.328-0.075-1.928
		c-0.302-0.23-0.646-0.41-1.026-0.517C79.805,87.042,79.424,87.026,79.053,87.069"/>
	<path fill="#774E31" d="M76.446,91.442c-0.204-0.604-0.256-1.271-0.089-1.937c0.193-0.786,0.654-1.423,1.242-1.856
		c0.383-0.397,0.879-0.644,1.421-0.584c0.012,0,0.021,0.002,0.032,0.004c0.371-0.043,0.752-0.026,1.133,0.08
		c0.381,0.104,0.725,0.285,1.026,0.517c-0.065-0.193-0.146-0.381-0.242-0.56c-0.133-0.104-0.278-0.198-0.429-0.28
		c-0.036-0.021-0.074-0.037-0.109-0.056c-0.169-0.082-0.343-0.155-0.528-0.209c-1.677-0.463-3.392,0.595-3.83,2.359
		c-0.058,0.229-0.089,0.458-0.099,0.684c-0.002,0.037,0.006,0.07,0.006,0.107c-0.004,0.192,0.004,0.389,0.033,0.576
		c0.002,0.014,0.008,0.028,0.01,0.045c0.07,0.389,0.207,0.755,0.396,1.094C76.426,91.431,76.437,91.437,76.446,91.442"/>
	<path fill="#513119" d="M82.229,90.001c0.004-0.063,0.002-0.123,0.004-0.187c0.002-0.137-0.004-0.274-0.018-0.407
		c-0.007-0.068-0.014-0.137-0.023-0.203c-0.025-0.14-0.058-0.277-0.098-0.414c-0.014-0.049-0.021-0.101-0.039-0.148
		c-0.056-0.166-0.13-0.326-0.211-0.479c-0.025-0.05-0.06-0.1-0.087-0.146c-0.034-0.053-0.062-0.106-0.096-0.158
		c-0.035-0.051-0.075-0.104-0.115-0.153c-0.056-0.074-0.113-0.146-0.175-0.215c-0.031-0.033-0.06-0.068-0.091-0.101
		c-0.098-0.1-0.198-0.195-0.31-0.283l0,0c0.097,0.179,0.177,0.365,0.242,0.56c0.2,0.6,0.24,1.266,0.075,1.928
		c-0.44,1.768-2.153,2.82-3.83,2.359c-0.375-0.105-0.713-0.285-1.011-0.511c-0.01-0.006-0.02-0.012-0.028-0.016
		c-0.007-0.008-0.021-0.014-0.029-0.02c0.022,0.036,0.05,0.067,0.07,0.106c0.006,0.002,0.008,0.006,0.012,0.01
		c0.185,0.312,0.416,0.599,0.695,0.83c0.009,0.006,0.013,0.015,0.019,0.019c0.144,0.117,0.3,0.215,0.463,0.307
		c0.021,0.014,0.041,0.029,0.065,0.043c0.187,0.096,0.387,0.178,0.598,0.236c1.675,0.463,3.392-0.594,3.83-2.361
		C82.19,90.399,82.216,90.2,82.229,90.001"/>
	<path fill="#FDEEED" d="M77.062,90.38c0,0-0.206-2.254,1.421-2.387c1.614-0.132,2.024-0.763,0.57-0.926
		c-0.011-0.002-0.021-0.003-0.032-0.003c-0.542-0.059-1.038,0.187-1.421,0.584C76.923,88.353,76.607,89.532,77.062,90.38"/>
	<path fill="#925CA4" d="M117.495,164.644c0,0.719,1.494,1.301,3.336,1.306c1.844,0.004,3.34-0.574,3.34-1.289
		c0.002-0.72-1.491-1.304-3.334-1.306C118.993,163.353,117.497,163.929,117.495,164.644"/>
	<path fill="#603A1E" d="M120.922,159.579c1.434,0.162,1.027,0.78-0.562,0.91c-1.6,0.131-1.397,2.348-1.397,2.348
		c-0.447-0.834-0.137-1.994,0.531-2.687c-0.58,0.429-1.031,1.054-1.226,1.828c-0.164,0.654-0.113,1.312,0.088,1.904
		c0.295,0.221,0.625,0.398,0.996,0.502c1.647,0.453,3.336-0.584,3.769-2.322c0.162-0.651,0.125-1.307-0.074-1.896
		c-0.295-0.228-0.633-0.404-1.008-0.508C121.663,159.554,121.29,159.538,120.922,159.579"/>
	<path fill="#774E31" d="M118.358,163.884c-0.201-0.594-0.252-1.25-0.088-1.904c0.191-0.774,0.645-1.399,1.225-1.828
		c0.375-0.393,0.865-0.633,1.396-0.575c0.012,0.002,0.021,0.004,0.031,0.004c0.367-0.041,0.74-0.025,1.117,0.08
		c0.375,0.104,0.713,0.28,1.008,0.508c-0.063-0.191-0.141-0.375-0.236-0.551c-0.133-0.103-0.273-0.195-0.422-0.277
		c-0.037-0.02-0.074-0.035-0.109-0.053c-0.166-0.082-0.338-0.154-0.52-0.205c-1.65-0.455-3.338,0.584-3.77,2.323
		c-0.058,0.224-0.089,0.449-0.097,0.671c-0.002,0.038,0.004,0.069,0.004,0.104c-0.002,0.189,0.004,0.383,0.035,0.568
		c0.002,0.014,0.008,0.026,0.01,0.043c0.068,0.383,0.203,0.744,0.39,1.076C118.34,163.872,118.35,163.878,118.358,163.884"/>
	<path fill="#513119" d="M124.049,162.466c0.004-0.061,0.004-0.121,0.006-0.184c0-0.134-0.004-0.271-0.018-0.402
		c-0.009-0.066-0.015-0.131-0.023-0.197c-0.023-0.139-0.057-0.274-0.096-0.408c-0.017-0.049-0.023-0.098-0.039-0.146
		c-0.058-0.164-0.127-0.32-0.209-0.473c-0.025-0.05-0.06-0.097-0.086-0.144c-0.031-0.053-0.062-0.104-0.094-0.156
		c-0.035-0.051-0.072-0.102-0.111-0.151c-0.055-0.072-0.111-0.146-0.172-0.211h-0.002c-0.029-0.033-0.06-0.066-0.088-0.099
		c-0.099-0.098-0.197-0.192-0.308-0.276v-0.002c0.097,0.176,0.174,0.358,0.235,0.551c0.199,0.59,0.236,1.244,0.074,1.896
		c-0.432,1.738-2.119,2.775-3.768,2.322c-0.371-0.104-0.703-0.281-0.996-0.502c-0.008-0.006-0.018-0.012-0.025-0.016
		c-0.01-0.009-0.021-0.015-0.029-0.021c0.021,0.037,0.05,0.068,0.07,0.105l0.008,0.012c0.185,0.305,0.41,0.586,0.687,0.813
		c0.009,0.007,0.013,0.015,0.019,0.021c0.141,0.113,0.295,0.211,0.455,0.301c0.022,0.014,0.041,0.029,0.065,0.041
		c0.183,0.096,0.381,0.176,0.588,0.232c1.647,0.457,3.336-0.584,3.769-2.322C124.01,162.858,124.036,162.661,124.049,162.466"/>
	<path fill="#FDEEED" d="M118.963,162.837c0,0-0.201-2.217,1.397-2.348c1.589-0.13,1.994-0.748,0.562-0.91
		c-0.01,0-0.021-0.002-0.031-0.004c-0.531-0.058-1.021,0.184-1.396,0.575C118.827,160.843,118.516,162.003,118.963,162.837"/>
	<path fill="#925CA4" d="M111.739,106.868c-0.002,1.157,2.409,2.1,5.385,2.104c2.978,0.006,5.39-0.926,5.392-2.082
		s-2.41-2.1-5.384-2.104C114.156,104.784,111.741,105.714,111.739,106.868"/>
	<path fill="#603A1E" d="M117.272,98.696c2.311,0.261,1.658,1.261-0.906,1.47c-2.582,0.209-2.257,3.787-2.257,3.787
		c-0.721-1.345-0.219-3.22,0.856-4.332c-0.936,0.688-1.664,1.696-1.975,2.948c-0.264,1.056-0.184,2.115,0.141,3.072
		c0.474,0.355,1.011,0.644,1.607,0.81c2.661,0.733,5.383-0.939,6.081-3.746c0.263-1.054,0.199-2.109-0.118-3.063
		c-0.479-0.365-1.023-0.649-1.63-0.817C118.465,98.655,117.862,98.628,117.272,98.696"/>
	<path fill="#774E31" d="M113.131,105.642c-0.324-0.957-0.404-2.018-0.141-3.072c0.311-1.252,1.04-2.262,1.975-2.947
		c0.606-0.637,1.396-1.022,2.256-0.934c0.02,0.002,0.033,0.006,0.051,0.009c0.59-0.068,1.195-0.041,1.801,0.127
		c0.606,0.168,1.15,0.452,1.629,0.817c-0.104-0.307-0.229-0.604-0.383-0.887c-0.213-0.164-0.443-0.314-0.682-0.447
		c-0.059-0.031-0.117-0.059-0.176-0.084c-0.267-0.135-0.545-0.25-0.838-0.332c-2.664-0.735-5.388,0.943-6.084,3.746
		c-0.092,0.363-0.141,0.729-0.156,1.086c-0.002,0.06,0.008,0.113,0.008,0.17c-0.004,0.308,0.008,0.617,0.057,0.916
		c0.002,0.023,0.012,0.045,0.016,0.07c0.109,0.617,0.326,1.199,0.627,1.736C113.102,105.624,113.118,105.634,113.131,105.642"/>
	<path fill="#513119" d="M122.317,103.354c0.008-0.1,0.006-0.196,0.008-0.297c0.004-0.215-0.004-0.436-0.029-0.647
		c-0.008-0.107-0.02-0.214-0.034-0.32c-0.039-0.223-0.093-0.443-0.154-0.658c-0.024-0.078-0.037-0.158-0.063-0.233
		c-0.088-0.267-0.205-0.521-0.334-0.767c-0.041-0.078-0.094-0.154-0.142-0.229c-0.051-0.086-0.096-0.17-0.149-0.252
		c-0.058-0.082-0.117-0.164-0.183-0.246c-0.088-0.117-0.18-0.234-0.276-0.34v-0.003c-0.051-0.053-0.097-0.106-0.146-0.155
		c-0.155-0.158-0.315-0.313-0.492-0.449c0,0-0.002,0-0.004-0.002c0.154,0.283,0.281,0.58,0.386,0.887
		c0.317,0.953,0.381,2.01,0.118,3.063c-0.698,2.807-3.42,4.479-6.081,3.746c-0.598-0.166-1.135-0.453-1.607-0.81
		c-0.014-0.008-0.029-0.018-0.042-0.024c-0.016-0.013-0.035-0.021-0.047-0.029c0.033,0.059,0.079,0.109,0.114,0.17
		c0.004,0.004,0.008,0.01,0.014,0.016c0.295,0.494,0.66,0.947,1.105,1.318c0.012,0.008,0.018,0.021,0.029,0.029
		c0.227,0.184,0.475,0.342,0.734,0.483c0.035,0.021,0.064,0.047,0.104,0.068c0.295,0.154,0.615,0.283,0.949,0.375
		c2.66,0.736,5.385-0.943,6.082-3.748C122.254,103.985,122.295,103.669,122.317,103.354"/>
	<path fill="#FDEEED" d="M114.109,103.952c0,0-0.325-3.578,2.257-3.787c2.564-0.209,3.217-1.209,0.906-1.47
		c-0.018-0.002-0.031-0.006-0.051-0.008c-0.859-0.09-1.648,0.297-2.258,0.933C113.89,100.733,113.388,102.608,114.109,103.952"/>
	<path fill="#FDEEED" d="M74.669,136.444c0,0-0.26-2.844,1.793-3.01c2.037-0.166,2.557-0.961,0.72-1.168
		c-0.014-0.002-0.025-0.004-0.041-0.006c-0.682-0.072-1.31,0.236-1.791,0.74C74.494,133.886,74.095,135.376,74.669,136.444"/>
</g>
<g id="cherry">
	<path fill="#925CA4" d="M83.383,71.628c-0.286,2.527,15.153,9.391,29.223,3.447c14.016-5.781,16.877-16.564,14.955-16.986
		c-1.998-1.025-7.307,6.356-19.384,10.326C96.188,72.685,83.109,69.224,83.383,71.628"/>
	<path fill="#AB1E23" d="M104.594,29.827c-0.018,0.02,2.634,5.313,7.202,5.563c4.531,0.289,4.539,0.28,4.537,0.283
		c0.006-0.007-1.188,1.617-5.893,1.275C105.742,36.599,105.275,33.544,104.594,29.827"/>
	<path fill="#EE3F3E" d="M115.967,36.188c0.006-0.008-2.313,1.172-5.684,0.703c-3.36-0.482-2.943-1.102-2.945-1.099
		c0,0-0.414,2.084,3.938,1.752C115.622,37.219,115.965,36.188,115.967,36.188"/>
	<path fill="#603813" d="M126.407,0c-0.113,0.133-0.232,0.266-0.344,0.398c-0.453,0.563-0.912,1.129-1.379,1.702
		c-0.904,1.165-1.838,2.354-2.803,3.566c-1.986,2.416-3.75,5.354-5.271,8.545c-1.53,3.197-2.862,6.663-4.043,10.288
		c-1.17,3.628-2.221,7.413-2.997,11.313c1.02-3.847,2.295-7.529,3.667-11.021c1.38-3.482,2.896-6.771,4.57-9.741
		c1.683-2.979,3.521-5.595,5.616-7.762c1.043-1.111,2.056-2.197,3.035-3.262c0.5-0.515,0.99-1.023,1.476-1.526
		c0.146-0.146,0.291-0.281,0.437-0.42C127.709,1.396,127.055,0.701,126.407,0"/>
	<path fill="#E82728" d="M127.467,49.11c1.447,10.517-9.605,21.813-24.686,25.515c-15.08,3.703-25.75-5.571-23.832-20.334
		c1.919-14.714,12.971-25.937,24.688-25.44C115.352,29.346,126.022,38.543,127.467,49.11"/>
	<path fill="#AB1E23" d="M114.504,31.868c3.377,3.744,5.764,8.285,6.129,13.336c1.063,11.029-10.041,22.436-24.802,25.684
		c-4.741,0.944-9.119,0.659-12.704-0.794c4.211,4.729,11.403,6.41,19.654,4.53c15.081-3.701,26.134-14.999,24.687-25.515
		C126.622,41.857,121.229,35.631,114.504,31.868"/>
	<path fill="#EE3F3E" d="M84.255,58.054c-0.065,0.056,0.909-15.211,9.827-20.283c8.758-4.918,16.975-2.255,8.285,3.088
		C93.475,46.434,89.075,53.575,84.255,58.054"/>
	<path fill="#FFFFFF" d="M100.077,37.057c-0.583-0.915-3.296-0.101-6.175,1.96c-2.879,2.058-4.862,4.615-4.309,5.569
		c0.551,0.957,3.453-0.082,6.362-2.18C98.865,40.308,100.657,37.977,100.077,37.057"/>
</g>
<g id="ribbon">
	<path fill="#90278E" d="M26.291,258.333c1.589,4.608,4.31,12.061,4.951,13.813c54.15,15.103,111.375,15.246,165.584,0.431
		c1.334-3.584,3.315-9.332,4.805-13.707C144.458,276.204,83.386,276.018,26.291,258.333"/>
	<g opacity="0.5">
		<g>
			<g>
				<defs>
					<rect id="XMLID_9_" x="70.753" y="266.471" width="93.371" height="40.063"/>
				</defs>
				<clipPath id="XMLID_21_">
					<use xlink:href="#XMLID_9_" />
				</clipPath>
				<path clip-path="url(#XMLID_21_)" fill="#7E287F" d="M164.122,293.321l-3.539-13.465l3.541-13.385l-34.498,9.617
					c-0.022-0.08-0.057-0.156-0.082-0.236c-0.071-0.219-0.153-0.438-0.237-0.651c-0.062-0.152-0.117-0.308-0.183-0.455
					c-0.096-0.218-0.201-0.431-0.309-0.642c-0.141-0.278-0.291-0.553-0.451-0.819c-0.098-0.164-0.191-0.33-0.297-0.488
					c-0.129-0.193-0.268-0.379-0.406-0.566c-0.082-0.11-0.162-0.221-0.248-0.332c-0.154-0.192-0.313-0.381-0.479-0.565
					c-0.076-0.086-0.152-0.172-0.231-0.256c-0.183-0.195-0.369-0.386-0.563-0.566c-0.058-0.055-0.115-0.105-0.175-0.158
					c-1.239-1.131-2.698-2.018-4.311-2.6c-0.006-0.002-0.012-0.004-0.018-0.006c-0.33-0.117-0.664-0.224-1.006-0.314
					c0-0.002-0.002-0.002-0.002-0.002c-1.07-0.287-2.189-0.453-3.353-0.453c-5.779,0-10.671,3.797-12.324,9.033l-34.199-9.537
					l3.541,13.385l-3.541,13.465l34.199-9.532c0.452,1.432,1.155,2.748,2.044,3.916l-4.142,16l3.075-0.199l2.205,1.445l2.932-0.076
					l2.79,1.66l3.442-13.304l3.442,13.304l2.791-1.66l2.933,0.076l2.205-1.445l3.074,0.199l-4.154-16.047
					c0.889-1.181,1.592-2.509,2.035-3.951L164.122,293.321z"/>
			</g>
		</g>
	</g>
	<path fill="#A54C9C" d="M113.174,304c-0.953-0.504-1.9-1.015-2.844-1.527c-1.129-0.004-2.258-0.016-3.387-0.031
		c-0.835-0.516-1.665-1.032-2.492-1.555c-1.041,0.01-2.083,0.016-3.125,0.014c2.307-6.379,4.482-12.784,6.526-19.215
		c3.662,1.025,7.361,1.976,11.098,2.847C117.157,291.042,115.231,297.532,113.174,304"/>
	<path fill="#90278E" d="M113.424,304.547c-1.074-0.568-2.146-1.144-3.208-1.726c-1.134-0.004-2.267-0.016-3.401-0.032
		c-0.833-0.515-1.662-1.029-2.488-1.552c-1.184,0.013-2.369,0.019-3.556,0.015c2.419-6.64,4.695-13.31,6.827-20.004
		c3.895,1.096,7.834,2.106,11.814,3.028C117.561,291.055,115.565,297.813,113.424,304.547 M110.445,302.122
		c0.823,0.448,1.649,0.893,2.479,1.334c1.976-6.203,3.831-12.429,5.563-18.67c-3.492-0.82-6.951-1.707-10.377-2.662
		c-1.957,6.164-4.034,12.307-6.232,18.426c0.9,0,1.799-0.006,2.699-0.014c0.828,0.521,1.662,1.039,2.499,1.555
		C108.199,302.108,109.322,302.118,110.445,302.122"/>
	<path fill="#A54C9C" d="M121.706,304.006c0.953-0.504,1.902-1.012,2.846-1.525c1.13-0.004,2.259-0.012,3.386-0.026
		c0.838-0.515,1.67-1.031,2.496-1.554c1.041,0.013,2.084,0.019,3.125,0.021c-2.3-6.383-4.47-12.791-6.507-19.223
		c-3.661,1.02-7.36,1.965-11.1,2.831C117.737,291.042,119.655,297.534,121.706,304.006"/>
	<path fill="#90278E" d="M121.454,304.553c-2.131-6.738-4.119-13.498-5.965-20.279c3.982-0.916,7.922-1.922,11.818-3.014
		c2.125,6.697,4.395,13.369,6.805,20.012c-1.186,0.002-2.371-0.006-3.555-0.018c-0.826,0.52-1.656,1.035-2.49,1.547
		c-1.133,0.018-2.268,0.027-3.4,0.029C123.602,303.411,122.532,303.985,121.454,304.553 M116.415,284.784
		c1.728,6.243,3.574,12.471,5.543,18.678c0.83-0.441,1.656-0.885,2.479-1.332c1.125-0.002,2.248-0.012,3.373-0.027
		c0.838-0.514,1.67-1.031,2.498-1.553c0.897,0.01,1.799,0.016,2.696,0.018c-2.188-6.121-4.26-12.266-6.209-18.432
		C123.37,283.084,119.909,283.969,116.415,284.784"/>
	<g opacity="0.4">
		<g>
			<g>
				<defs>
					<rect id="XMLID_11_" x="118.745" y="284.317" width="11.521" height="16.418"/>
				</defs>
				<clipPath id="XMLID_22_">
					<use xlink:href="#XMLID_11_" />
				</clipPath>
				<path clip-path="url(#XMLID_22_)" fill="#F6B6D2" d="M118.745,286.045c2.269-0.549,4.521-1.125,6.758-1.729
					c1.515,4.838,3.101,9.662,4.763,14.474c-0.19-0.002-0.386-0.004-0.576-0.006c-0.836,0.526-1.676,1.051-2.521,1.569
					c-1.103,0.013-2.203,0.019-3.303,0.021c-0.224,0.119-0.443,0.239-0.666,0.36C121.637,295.85,120.155,290.954,118.745,286.045"/>
			</g>
		</g>
	</g>
	<g opacity="0.4">
		<g>
			<g>
				<defs>
					<rect id="XMLID_13_" x="104.49" y="284.645" width="11.551" height="16.42"/>
				</defs>
				<clipPath id="XMLID_23_">
					<use xlink:href="#XMLID_13_" />
				</clipPath>
				<path clip-path="url(#XMLID_23_)" fill="#F6B6D2" d="M116.042,286.381c-2.269-0.551-4.521-1.129-6.763-1.736
					c-1.521,4.834-3.118,9.656-4.788,14.465c0.192-0.002,0.385-0.006,0.576-0.008c0.836,0.529,1.678,1.056,2.523,1.576
					c1.102,0.014,2.204,0.021,3.307,0.021c0.221,0.122,0.443,0.245,0.666,0.364C113.131,296.182,114.624,291.288,116.042,286.381"/>
			</g>
		</g>
	</g>
	<path fill="#A54C9C" d="M168.68,286.086c-17.736-1.037-34.898-3.826-51.252-8.146c16.361-4.297,31.91-10.123,46.459-17.252
		c-0.332,4.433-0.725,8.869-1.178,13.308C164.643,278.045,166.631,282.077,168.68,286.086"/>
	<path fill="#90278E" d="M169.317,286.477c-18.463-1.033-36.309-3.965-53.273-8.541c17.021-4.373,33.174-10.401,48.244-17.834
		c-0.334,4.605-0.731,9.215-1.195,13.826C165.106,278.131,167.18,282.315,169.317,286.477 M118.815,277.938
		c15.736,4.066,32.217,6.72,49.229,7.756c-1.957-3.858-3.86-7.737-5.713-11.633c0.439-4.262,0.826-8.524,1.156-12.783
		C149.461,268.106,134.514,273.725,118.815,277.938"/>
	<path fill="#F6B6D2" d="M131.274,277.584c9.84-3.146,19.357-6.849,28.506-11.051c-0.27,2.696-0.561,5.396-0.875,8.096
		c1.145,2.496,2.313,4.984,3.502,7.467C151.786,281.213,141.391,279.692,131.274,277.584"/>
	<path fill="#A54C9C" d="M66.521,286.086c17.736-1.037,34.899-3.826,51.252-8.146c-16.36-4.299-31.912-10.123-46.46-17.252
		c0.333,4.433,0.725,8.867,1.177,13.308C70.559,278.045,68.568,282.077,66.521,286.086"/>
	<path fill="#90278E" d="M65.885,286.477c2.137-4.162,4.212-8.346,6.225-12.549c-0.462-4.611-0.86-9.221-1.194-13.826
		c15.069,7.433,31.223,13.461,48.243,17.834C102.194,282.512,84.348,285.444,65.885,286.477 M71.715,261.278
		c0.33,4.259,0.715,8.521,1.155,12.783c-1.851,3.896-3.756,7.773-5.714,11.633c17.014-1.036,33.494-3.688,49.231-7.756
		C100.688,273.725,85.739,268.106,71.715,261.278"/>
	<path fill="#F6B6D2" d="M104.236,277.366c-9.834-3.136-19.346-6.824-28.491-11.017c0.272,2.697,0.567,5.396,0.884,8.094
		c-1.143,2.498-2.307,4.988-3.492,7.474C83.746,281.018,94.131,279.485,104.236,277.366"/>
	<path fill="#90278E" d="M131.104,277.594c0.438,7.115-5.688,13.279-13.684,13.27c-7.998-0.002-14.112-6.174-13.667-13.286
		c0.445-7.129,6.569-12.556,13.683-12.56C124.551,265.031,130.667,270.463,131.104,277.594"/>
	<g opacity="0.62">
		<g>
			<g>
				<defs>
					<rect id="XMLID_15_" x="108.59" y="265.452" width="22.538" height="25.411"/>
				</defs>
				<clipPath id="XMLID_24_">
					<use xlink:href="#XMLID_15_" />
				</clipPath>
				<path clip-path="url(#XMLID_24_)" fill="#6A256C" d="M120.817,265.452c3.02,2.328,5.115,5.895,5.256,9.991
					c0.303,7.125-5.881,13.166-13.809,13.009c-1.279-0.025-2.508-0.228-3.674-0.55c2.366,1.836,5.454,2.959,8.831,2.961
					c7.998,0.011,14.121-6.153,13.685-13.27C130.764,271.622,126.356,266.86,120.817,265.452"/>
			</g>
		</g>
	</g>
	<path fill="#42B5B9" d="M117.422,288.754c-6.622-0.002-11.75-5.119-11.439-11.07c0.313-5.961,5.449-10.555,11.453-10.557
		c6.004,0.01,11.135,4.61,11.439,10.572C129.18,283.651,124.043,288.762,117.422,288.754"/>
	<path fill="#F6F6E3" d="M107.455,283.409c-0.043,0-3.215-5.724,0.961-11.529c4.102-5.742,16.333-6.564,9.034-0.93
		C109.968,276.502,110.736,282.665,107.455,283.409"/>
</g>
</svg>
