<?xml version="1.0" encoding="utf-8"?>
<!-- Generator: Adobe Illustrator 12.0.0, SVG Export Plug-In . SVG Version: 6.00 Build 51448)  -->
<!DOCTYPE svg PUBLIC "-//W3C//DTD SVG 1.1//EN" "http://www.w3.org/Graphics/SVG/1.1/DTD/svg11.dtd" [
	<!ENTITY ns_svg "http://www.w3.org/2000/svg">
	<!ENTITY ns_xlink "http://www.w3.org/1999/xlink">
]>
<svg  version="1.1" id="Layer_1" xmlns="&ns_svg;" xmlns:xlink="&ns_xlink;" width="233.725" height="311.042"
	 viewBox="0 0 233.725 311.042" overflow="visible" enable-background="new 0 0 233.725 311.042" xml:space="preserve">
<path fill="#E82728" d="M18.394,120.558c-0.051-0.283-0.063-0.578-0.063-0.871C18.329,119.981,18.346,120.272,18.394,120.558"/>
<path fill="#E82728" d="M22.084,124.567c-0.337-0.086-0.658-0.205-0.957-0.35C21.426,124.362,21.747,124.481,22.084,124.567"/>
<path fill="#E82728" d="M21.022,124.153c-0.261-0.135-0.512-0.283-0.739-0.457C20.511,123.87,20.762,124.019,21.022,124.153"/>
<path fill="#E82728" d="M25.394,115.187c0.059,0.027,0.117,0.053,0.175,0.08C25.511,115.239,25.451,115.213,25.394,115.187"/>
<path fill="#E82728" d="M26.256,115.688"/>
<path fill="#E82728" d="M27.662,117.274c-0.059-0.102-0.124-0.195-0.188-0.293c0.017,0.023,0.03,0.049,0.045,0.074
	C27.566,117.128,27.619,117.198,27.662,117.274"/>
<path fill="#E82728" d="M19.137,122.438c-0.008-0.01-0.011-0.021-0.018-0.03c-0.035-0.057-0.082-0.106-0.115-0.162
	c0.014,0.009,0.032,0.017,0.048,0.029c-0.305-0.508-0.528-1.063-0.641-1.649c0.222,1.203,0.874,2.291,1.842,3.043
	c-0.447-0.347-0.818-0.777-1.12-1.246C19.134,122.427,19.134,122.433,19.137,122.438"/>
<path fill="#E82728" d="M18.322,119.527c0.014-0.343,0.061-0.69,0.148-1.038C18.382,118.837,18.336,119.184,18.322,119.527"/>
<path fill="#42B5B9" d="M23.198,115.653c2.321,0.232,1.673,1.189-0.897,1.405c-2.591,0.219-2.238,3.624-2.238,3.624
	c-0.732-1.275-0.243-3.064,0.828-4.132c-0.933,0.664-1.657,1.628-1.961,2.824c-0.257,1.008-0.169,2.015,0.164,2.925
	c0.479,0.334,1.017,0.603,1.618,0.756c2.675,0.681,5.396-0.935,6.076-3.611c0.255-1.003,0.186-2.01-0.143-2.915
	c-0.48-0.344-1.03-0.612-1.64-0.768C24.397,115.606,23.79,115.585,23.198,115.653"/>
<path fill="#E82728" d="M27.183,116.582c0,0.001,0.002,0.001,0.002,0.001c-0.09-0.11-0.185-0.219-0.285-0.323
	c0,0,0.002,0.001,0.002,0.003C27,116.364,27.094,116.472,27.183,116.582"/>
<path fill="#E82728" d="M28.3,119.771c-0.001,0.094,0.001,0.187-0.005,0.281C28.301,119.958,28.299,119.864,28.3,119.771"/>
<path fill="#E82728" d="M28.228,118.849c0.019,0.101,0.028,0.201,0.04,0.303C28.256,119.05,28.245,118.95,28.228,118.849"/>
<path fill="#E82728" d="M28.003,117.999c0.027,0.072,0.041,0.148,0.064,0.223C28.044,118.147,28.031,118.071,28.003,117.999"/>
<path fill="#E82728" d="M26.457,115.851c-0.066-0.055-0.131-0.11-0.201-0.162c0.001,0.001,0.002,0.001,0.002,0.003
	C26.328,115.742,26.393,115.796,26.457,115.851"/>
<path fill="#EF5656" d="M26.756,116.114c-0.096-0.093-0.195-0.179-0.299-0.264c-0.064-0.054-0.129-0.109-0.199-0.159
	C26.436,115.819,26.598,115.964,26.756,116.114"/>
<path fill="#72CBD2" d="M19.094,122.299c-0.332-0.909-0.421-1.917-0.164-2.925c0.304-1.195,1.028-2.16,1.961-2.823
	c0.605-0.606,1.396-0.983,2.257-0.903c0.021,0.002,0.035,0.004,0.051,0.005c0.593-0.068,1.199-0.046,1.81,0.109
	c0.607,0.155,1.158,0.424,1.64,0.767c-0.104-0.291-0.234-0.573-0.391-0.84c-0.215-0.157-0.445-0.297-0.688-0.422
	c-0.058-0.028-0.116-0.053-0.175-0.08c-0.27-0.124-0.549-0.233-0.845-0.309c-2.677-0.681-5.397,0.938-6.078,3.611
	c-0.089,0.348-0.136,0.696-0.147,1.039c-0.003,0.053,0.009,0.105,0.009,0.159c-0.002,0.293,0.012,0.588,0.063,0.871
	c0.004,0.023,0.013,0.045,0.019,0.068c0.111,0.586,0.336,1.141,0.641,1.649C19.064,122.282,19.08,122.289,19.094,122.299"/>
<path fill="#EF5656" d="M27.52,117.056c-0.015-0.025-0.028-0.051-0.046-0.074c-0.034-0.056-0.07-0.11-0.106-0.163
	C27.421,116.896,27.469,116.976,27.52,117.056"/>
<path fill="#EF5656" d="M19.133,122.423c-0.005-0.006-0.01-0.011-0.014-0.016c0.007,0.01,0.01,0.021,0.018,0.031
	C19.134,122.433,19.134,122.427,19.133,122.423"/>
<path fill="#EF5656" d="M27.183,116.582c-0.089-0.11-0.183-0.218-0.281-0.319C27.001,116.364,27.094,116.473,27.183,116.582"/>
<path fill="#1B9292" d="M28.295,120.052c0.006-0.095,0.004-0.188,0.005-0.281c0.003-0.207-0.008-0.415-0.032-0.619
	c-0.012-0.102-0.021-0.203-0.04-0.303c-0.039-0.213-0.094-0.422-0.159-0.627c-0.023-0.074-0.036-0.15-0.064-0.223
	c-0.092-0.252-0.209-0.492-0.341-0.724c-0.043-0.077-0.097-0.147-0.144-0.219c-0.051-0.08-0.099-0.16-0.152-0.237
	c-0.058-0.08-0.119-0.158-0.184-0.235c0,0-0.001-0.001-0.001-0.002c-0.089-0.109-0.182-0.218-0.281-0.319v-0.002
	c-0.05-0.05-0.096-0.1-0.146-0.146c-0.158-0.15-0.32-0.294-0.498-0.422c0-0.002-0.001-0.002-0.002-0.003
	c0.155,0.267,0.286,0.55,0.391,0.841c0.327,0.905,0.396,1.912,0.143,2.915c-0.682,2.675-3.4,4.292-6.076,3.611
	c-0.603-0.153-1.14-0.422-1.618-0.757c-0.014-0.01-0.029-0.017-0.042-0.024c-0.016-0.012-0.034-0.02-0.048-0.03
	c0.033,0.057,0.08,0.106,0.115,0.162c0.004,0.005,0.009,0.01,0.014,0.016c0.302,0.469,0.673,0.899,1.12,1.246
	c0.012,0.008,0.019,0.02,0.029,0.028c0.229,0.173,0.479,0.322,0.739,0.457c0.037,0.019,0.066,0.044,0.104,0.064
	c0.299,0.146,0.62,0.264,0.957,0.35c2.674,0.679,5.396-0.938,6.076-3.614C28.236,120.653,28.275,120.353,28.295,120.052"/>
<path fill="#FDEEED" d="M20.063,120.683c0,0-0.353-3.405,2.238-3.624c2.57-0.216,3.22-1.173,0.897-1.405
	c-0.017-0.002-0.031-0.004-0.052-0.006c-0.861-0.08-1.65,0.297-2.257,0.903C19.819,117.619,19.329,119.408,20.063,120.683"/>
<g opacity="0.08">
	<g>
		<g>
			<defs>
				<rect id="XMLID_46_" x="35.03" y="243.14" width="165.758" height="67.902"/>
			</defs>
			<clipPath id="XMLID_60_">
				<use xlink:href="#XMLID_46_" />
			</clipPath>
			<path clip-path="url(#XMLID_60_)" fill="#BF792A" d="M200.787,277.091c0,18.75-37.105,33.951-82.879,33.951
				c-45.772,0-82.879-15.201-82.879-33.951s37.105-33.95,82.879-33.95S200.787,258.341,200.787,277.091"/>
		</g>
	</g>
</g>
<path fill="#BF792A" d="M11.606,170.063c0,0-1.764-3.112,35.722-13.778c37.484-10.666,63.115-5.332,77.633-2.666
	c14.519,2.666,27.125-1.43,46.822-3.715c19.695-2.285,53.22,10.075,50.227,20.159c-2.994,10.084-3.574,9.069-26.866,16.292
	c-23.293,7.225-76.045-1.118-93.994,0c-17.948,1.119-54.263,4.473-62.633,0.201s-11.626-5.605-14.331-5.605
	C21.479,180.951,11.606,170.063,11.606,170.063"/>
<polygon fill="#42B5B9" points="199.045,176.063 199.047,176.063 199.047,176.063 "/>
<path fill="#42B5B9" d="M210.48,176.644c-3.787-0.191-7.6-0.387-11.434-0.58h-0.002c-3.894,1.92-7.816,3.721-11.758,5.419
	c-3.824-0.321-7.671-0.647-11.537-0.983c-3.933,1.567-7.881,3.035-11.832,4.42c-3.859-0.471-7.742-0.957-11.641-1.463
	c-3.947,1.246-7.898,2.414-11.845,3.521c-3.895-0.649-7.807-1.326-11.73-2.04c-3.944,0.96-7.883,1.863-11.809,2.725
	c-3.925-0.861-7.862-1.765-11.807-2.725c-3.925,0.714-7.836,1.391-11.732,2.04c-3.944-1.104-7.896-2.272-11.843-3.521
	c-3.898,0.506-7.78,0.992-11.64,1.463c-3.952-1.385-7.9-2.853-11.831-4.42c-3.868,0.334-7.716,0.662-11.54,0.983
	c-3.94-1.698-7.864-3.5-11.758-5.419c-3.835,0.193-7.648,0.389-11.438,0.58c-3.907-2.041-7.783-4.201-11.614-6.496
	c1.399,38.949,21.631,74.916,33.309,113.133c2.57,1.189,5.153,2.314,7.75,3.371c2.593,1.057,5.198,2.047,7.816,2.971
	c2.617,0.924,5.246,1.781,7.888,2.572c2.641,0.791,5.293,1.516,7.955,2.176c2.661,0.658,5.335,1.252,8.016,1.779
	c2.682,0.527,5.371,0.988,8.068,1.385c2.696,0.396,5.399,0.725,8.108,0.988c2.709,0.262,5.422,0.461,8.138,0.592
	c2.717,0.133,5.436,0.197,8.153,0.197s5.438-0.064,8.153-0.197c2.716-0.131,5.429-0.33,8.138-0.592
	c2.709-0.264,5.412-0.594,8.109-0.988c2.696-0.396,5.387-0.856,8.067-1.385c2.682-0.527,5.354-1.121,8.017-1.779
	c2.663-0.66,5.313-1.385,7.956-2.176c2.64-0.791,5.269-1.648,7.886-2.572h0.002c2.617-0.924,5.223-1.914,7.816-2.971
	c2.593-1.057,5.178-2.182,7.75-3.371c11.676-38.217,31.905-74.184,33.307-113.133C218.264,172.442,214.389,174.603,210.48,176.644"
	/>
<g opacity="0.35">
	<g>
		<g>
			<defs>
				<rect id="XMLID_48_" x="74.941" y="170.183" width="147.154" height="129.164"/>
			</defs>
			<clipPath id="XMLID_61_">
				<use xlink:href="#XMLID_48_" />
			</clipPath>
			<polygon clip-path="url(#XMLID_61_)" fill="#42B5B9" points="199.045,176.099 199.047,176.099 199.047,176.097 			"/>
		</g>
		<g>
			<defs>
				<rect id="XMLID_50_" x="74.941" y="170.183" width="147.154" height="129.164"/>
			</defs>
			<clipPath id="XMLID_62_">
				<use xlink:href="#XMLID_50_" />
			</clipPath>
			<path clip-path="url(#XMLID_62_)" fill="#00938E" d="M210.48,176.679c-3.787-0.191-7.6-0.387-11.434-0.58h-0.002
				c-3.894,1.92-7.816,3.719-11.758,5.418c-3.824-0.32-7.671-0.646-11.537-0.982c-3.933,1.566-7.881,3.035-11.832,4.42
				c-3.859-0.471-7.742-0.957-11.641-1.463c-3.947,1.246-7.898,2.414-11.845,3.521c-3.895-0.65-7.807-1.326-11.73-2.041
				c-3.944,0.961-7.883,1.862-11.809,2.726c-3.925-0.861-7.862-1.765-11.807-2.726c-3.925,0.715-7.836,1.391-11.732,2.041
				c-3.944-1.104-7.896-2.272-11.843-3.521c-2.2,0.285-4.382,0.553-6.571,0.826c2.252,0.262,12.236,1.711,14.01,7.027
				c2,6,7.903,5.5,7.903,5.5s6.419-7.006,13.097-3.5l6.677,3.506c0,0,7.823-3.006,13.823-3.006s11.704,3.01,11.704,3.01
				s6.296-4.01,13.296-3.51s12.515,3.51,12.515,3.51s-1.515-5.576,5.985-6.293s15.237,6.293,15.237,6.293s0.763-3.076,7.263-6.293
				s11.395,4.053,11.395,4.053s-5.125,29.564-15.01,54.398c-9.885,24.832-25.256,33.977-52.82,34.904
				c-13.177,0.442-34.101,7.074-46.68,13.764c2.417,0.344,4.841,0.641,7.269,0.877c2.709,0.262,5.422,0.461,8.139,0.592
				c2.716,0.133,5.435,0.197,8.152,0.197s5.438-0.064,8.153-0.197c2.716-0.131,5.429-0.33,8.138-0.592
				c2.709-0.264,5.412-0.594,8.109-0.988c2.697-0.396,5.387-0.857,8.067-1.385c2.682-0.527,5.354-1.121,8.017-1.779
				c2.663-0.66,5.313-1.385,7.956-2.176c2.64-0.791,5.269-1.648,7.886-2.572h0.002c2.617-0.924,5.223-1.914,7.816-2.971
				c2.593-1.057,5.178-2.182,7.75-3.371c11.676-38.217,31.905-74.184,33.307-113.133
				C218.264,172.478,214.389,174.638,210.48,176.679"/>
		</g>
	</g>
</g>
<polygon fill="#FFFFFF" points="26.045,176.505 58.561,288.899 23.308,176.644 "/>
<polygon fill="#FFFFFF" points="48.457,181.317 67.145,293.158 44.057,180.414 46.502,181.482 "/>
<polygon fill="#FFFFFF" points="71.759,184.688 78.747,296.569 67.825,184.194 69.873,184.919 "/>
<polygon fill="#FFFFFF" points="94.899,186.716 97.362,298.175 90.895,186.278 93.355,186.976 "/>
<polygon fill="#FFFFFF" points="117.908,187.437 113.421,299.276 113.95,187.005 116.895,187.66 "/>
<polygon fill="#FFFFFF" points="141.571,186.656 137.289,298.539 137.89,186.548 140.434,186.976 "/>
<polygon fill="#FFFFFF" points="166.447,184.021 156.365,294.619 162.672,184.767 163.918,184.919 "/>
<polygon fill="#FFFFFF" points="190.109,180.248 174.332,289.226 186.464,181.414 187.287,181.481 "/>
<polygon fill="#FFFFFF" points="212.116,175.781 186.463,284.337 208.978,176.567 210.48,176.644 "/>
<path fill="#513119" d="M233.725,160.694c0,19.636-52.084,35.554-116.333,35.554S1.058,180.33,1.058,160.694
	c0-19.634,52.085-35.551,116.334-35.551S233.725,141.061,233.725,160.694"/>
<path fill="#70482B" d="M132.287,188.481c-64.249,0-116.333-15.918-116.333-35.553c0-5.094,3.512-9.936,9.824-14.316
	C9.659,144.714,0,152.478,0,160.929c0,19.635,52.085,35.553,116.334,35.553c47.582,0,88.482-8.732,106.507-21.236
	C201.516,183.317,168.877,188.481,132.287,188.481"/>
<path fill="#3A291D" d="M190.815,133.983c19.99,6.385,32.271,15.041,32.271,24.574c0,19.635-52.084,35.553-116.332,35.553
	c-27.845,0-53.4-2.991-73.426-7.979c21.179,6.767,51.011,10.979,84.063,10.979c64.249,0,116.333-15.918,116.333-35.553
	C233.725,150.433,216.998,140.503,190.815,133.983"/>
<path fill="#EED774" d="M61.44,142.515c-18.486-14.779-32.052-32.152-33.203-47.297c0,0-20.123,19.082-17.291,36.832
	c3.705,23.227,47.761,64.04,122.277,43.8c-18.923-2.347-41.141-12.019-60.26-24.887C69.058,148.394,65.19,145.583,61.44,142.515"/>
<path fill="#D3B42F" d="M73.429,150.421c-3.906-2.568-7.773-5.379-11.523-8.447c-18.486-14.781-32.052-32.154-33.201-47.297
	c0,0-12.729,12.08-16.509,25.956c4.798,5.335,10.417,10.56,16.592,15.496c3.75,3.069,7.616,5.88,11.522,8.448
	c19.119,12.869,41.337,22.542,60.26,24.887c-15.466,4.201-29.613,5.766-42.366,5.41c19.611,6.772,44.997,8.715,75.485,0.434
	C114.766,172.962,92.548,163.291,73.429,150.421"/>
<path fill="#FFF9D8" d="M218.857,128.968c-38.291,24.123-79.871,8.711-79.871,8.711C75.584,121.933,60.763,81.393,58.706,60.62
	c-0.009-0.082-0.007-0.159-0.016-0.241c-0.314,0.023-32.912,2.479-30.454,34.839c1.151,15.146,14.717,32.518,33.203,47.297
	c3.667,2.932,7.527,5.759,11.523,8.448c19.119,12.869,41.337,22.541,60.26,24.887c42.471,5.265,86.146-10.692,85.646-46.896
	C218.864,128.96,218.857,128.968,218.857,128.968"/>
<path fill="#EED774" d="M138.986,137.679c0,0,41.58,15.412,79.871-8.711c0,0,0.007-0.008,0.014-0.014
	c0.541-0.596,24.212-27.085-17.715-52.921c0,0,0.007,0.392-0.043,1.058c-0.662,15.296-11.979,22.746-36.161,21.454
	c-13.984-0.264-32.571-2.719-48.69-11.186c-28.155-14.032-34.843-39.737-34.5-51.867c0,0-24.907,4.327-23.069,24.887
	c0.009,0.082,0.008,0.159,0.016,0.241C60.764,81.393,75.584,121.933,138.986,137.679"/>
<path fill="#D3B42F" d="M78.92,36.345c1.09,6.597,3.776,14.679,9.029,22.556c-4.417-9.053-5.803-17.723-5.642-23.409
	C82.309,35.492,80.958,35.73,78.92,36.345"/>
<path fill="#D3B42F" d="M220.311,92.229c7.015,16.488-4.501,29.381-4.877,29.795c-0.006,0.007-0.013,0.014-0.013,0.014
	c-38.291,24.123-79.871,8.711-79.871,8.711c-36.915-9.168-57.357-26.741-68.404-43.924c9.801,19.205,30.479,40.445,72.39,50.853
	c0,0,41.58,15.412,79.871-8.711c0,0,0.007-0.008,0.013-0.013C219.845,128.483,234.659,111.896,220.311,92.229"/>
<path fill="#FFF9D8" d="M116.261,87.358c5.735,2.859,12.34,5.244,19.979,6.92c11.072,2.428,20.608,3.834,28.711,4.267
	c24.182,1.292,35.498-6.159,36.161-21.455c0.021-0.478,0.044-0.955,0.044-1.449c0,0-8.235-27.873-43.23-38.49
	c0,0,0.005,0.029,0.012,0.071c3.095,15.544-14.599,16.15-32.258,10.906c-0.725-0.205-1.446-0.427-2.165-0.669
	c-0.007-0.002-0.014-0.004-0.021-0.006c-18.375-5.957-24.854-22.248-22.383-27.557c0,0-18.939,0.996-19.352,15.596
	C81.418,47.622,88.105,73.327,116.261,87.358"/>
<path fill="#EED774" d="M123.494,47.453c0.007,0.002,0.014,0.004,0.021,0.006c0.721,0.234,1.442,0.454,2.165,0.669
	c17.659,5.244,35.354,4.638,32.258-10.906c-0.006-0.024-0.007-0.046-0.012-0.071c0,0,0-4.644-6.176-8.627
	c-6.174-3.982-11.836-7.216-12.352-13.604c0,0-2.849-9.292,2.899-8.959c5.745,0.331,14.389-7.632-9.076-5.641
	c-23.466,1.991-29.642,14.268-32.11,19.576C98.641,25.205,105.119,41.496,123.494,47.453"/>
<path fill="#D3B42F" d="M141.552,0.235c-5.748-0.333-2.899,8.958-2.899,8.958c0.015,0.167,0.046,0.323,0.065,0.486
	c0.123-2.071,0.942-3.945,3.579-3.793c4.638,0.267,11.155-4.869,1.152-5.811C142.812,0.207,142.166,0.27,141.552,0.235"/>
<path fill="#D3B42F" d="M157.936,37.147c-0.005-0.024-0.007-0.046-0.012-0.071c0,0-0.008-0.739-0.395-1.871
	c-0.325,11.888-16.472,11.986-32.598,7.197c-0.723-0.215-1.444-0.436-2.165-0.669c-0.007-0.002-0.014-0.004-0.021-0.006
	c-12.801-4.15-19.821-13.311-22.071-20.285c-0.817,6.443,6.036,20.496,22.816,25.936c0.006,0.002,0.014,0.004,0.021,0.006
	c0.721,0.234,1.442,0.454,2.165,0.669C143.337,53.297,161.03,52.691,157.936,37.147"/>
<g opacity="0.25">
	<g>
		<g>
			<defs>
				<rect id="XMLID_52_" x="33.068" y="0.279" width="192.765" height="181.313"/>
			</defs>
			<clipPath id="XMLID_63_">
				<use xlink:href="#XMLID_52_" />
			</clipPath>
			<path clip-path="url(#XMLID_63_)" fill="#8D782E" d="M219.588,92.507c0.255,0.6,0.479,1.192,0.686,1.781
				c-3.759-5.799-9.986-11.906-19.84-17.977c0,0,0.006,0.393-0.043,1.057c0.021-0.477,0.043-0.955,0.043-1.448
				c0,0-6.847-23.133-34.531-35.277c15.791,12.117,20.148,26.822,20.148,26.822c0,0.494-0.021,0.971-0.043,1.449
				c0.049-0.665,0.043-1.058,0.043-1.058c9.853,6.071,16.081,12.178,19.84,17.977c-0.207-0.589-0.431-1.181-0.686-1.781
				c14.349,19.668-0.467,36.255-0.894,36.725c-0.006,0.007-0.013,0.014-0.013,0.014c-0.179,0.112-0.358,0.218-0.537,0.329
				c0.218,35.959-43.31,51.801-85.645,46.553c-35.71,9.699-64.419,5.373-85.051-4.313c20.61,14.966,54.475,24.979,99.434,12.769
				c42.335,5.248,85.861-10.594,85.645-46.553c0.18-0.111,0.358-0.216,0.537-0.329c0,0,0.007-0.007,0.013-0.014
				C219.122,128.762,233.937,112.175,219.588,92.507"/>
		</g>
		<g>
			<defs>
				<rect id="XMLID_54_" x="33.068" y="0.279" width="192.765" height="181.313"/>
			</defs>
			<clipPath id="XMLID_64_">
				<use xlink:href="#XMLID_54_" />
			</clipPath>
			<path clip-path="url(#XMLID_64_)" fill="#8D782E" d="M123.597,2.007c-0.037,2.323,0.697,4.736,0.697,4.736
				c0.515,6.389,6.177,9.622,12.351,13.604c3.711,2.393,5.186,5.018,5.776,6.738c0-0.02,0.003-0.037,0.004-0.057
				c0.387,1.132,0.394,1.871,0.394,1.871c0.006,0.025,0.009,0.046,0.013,0.071c0.001,0.003,0.001,0.005,0.001,0.008
				c5.066,1.538,9.558,3.446,13.559,5.57c-0.776-1.651-2.304-3.773-5.362-5.746c-6.174-3.982-11.836-7.215-12.351-13.604
				c0,0-0.866-2.84-0.673-5.324c0.007-0.103,0.021-0.202,0.032-0.304c0.023-0.209,0.051-0.418,0.093-0.618
				c0.003-0.016,0.007-0.031,0.011-0.047c0.346-1.573,1.292-2.79,3.438-2.666c2.916,0.168,6.568-1.799,6.402-3.52
				c-0.037-1.043-1.445-2.009-5.253-2.367c-0.104,0.021-0.207,0.029-0.312,0.046c-2.362-0.195-5.589-0.168-9.914,0.199
				C129.199,0.878,126.251,1.367,123.597,2.007"/>
		</g>
	</g>
</g>
<g opacity="0.43">
	<g>
		<g>
			<defs>
				<rect id="XMLID_56_" x="9.902" y="0.004" width="138.035" height="180.433"/>
			</defs>
			<clipPath id="XMLID_65_">
				<use xlink:href="#XMLID_56_" />
			</clipPath>
			<path clip-path="url(#XMLID_65_)" fill="#FFFFFF" d="M28.176,135.79c-2.057-12.889,7.983-26.471,13.642-32.948
				c1.646-1.92,2.979-3.296,3.646-3.964c-2.396-32.282,30.143-34.736,30.458-34.759C74.083,43.558,98.99,39.232,98.99,39.232
				c0.41-14.6,19.352-15.596,19.352-15.596c2.325-4.999,7.942-16.174,28.185-19.123c0.897-0.623,1.475-1.365,1.405-2.068
				c-0.037-1.043-1.447-2.009-5.253-2.367c-0.104,0.021-0.207,0.028-0.312,0.046c-2.362-0.195-5.589-0.168-9.914,0.199
				c-23.468,1.991-29.644,14.268-32.111,19.576c0,0-18.94,0.996-19.352,15.596c0,0-24.907,4.326-23.069,24.887
				c-0.315,0.023-32.854,2.477-30.458,34.76c-0.668,0.668-2,2.043-3.646,3.962c-5.657,6.479-15.697,20.061-13.642,32.949
				c2.705,16.956,26.916,43.277,68.777,48.383C48.174,171.21,30.466,150.144,28.176,135.79"/>
		</g>
	</g>
</g>
<path fill="#FFF1BA" d="M67.825,54.289c0,0-2.722,20.516,13.923,38.663c16.644,18.147,31.919,15.305,15.613-3.941
	C81.058,69.765,76.825,51.93,74.941,49.848C73.058,47.765,67.905,48.184,67.825,54.289"/>
<path fill="#FFF1BA" d="M19.188,125.714c0,0,1.94,15.286,17.371,25.188c15.432,9.9,25.888,4.951,10.492-5.805
	c-15.396-10.757-21.833-22.792-23.585-23.934C21.715,120.023,18.086,121.303,19.188,125.714"/>
<path fill="#FFF1BA" d="M110.689,14.36c0,0-1.004,9.251,6.673,17.231c7.676,7.98,14.512,6.539,6.978-1.938
	c-7.535-8.477-9.629-16.449-10.498-17.365C112.973,11.372,110.66,11.615,110.689,14.36"/>
<g id="ribbon">
	<path fill="#00938E" d="M23.311,220.737c1.692,5.013,4.59,13.111,5.273,15.021c57.659,16.418,118.595,16.574,176.316,0.465
		c1.419-3.895,3.53-10.145,5.116-14.9C149.138,240.167,84.107,239.964,23.311,220.737"/>
	<path fill="#DEC023" d="M21.597,218.112c1.729,5.013,4.688,13.109,5.384,15.019c58.869,16.42,121.082,16.574,180.017,0.467
		c1.448-3.896,3.604-10.145,5.224-14.9C150.063,237.542,83.668,237.339,21.597,218.112"/>
	<path fill="#00938E" d="M173.762,216.998c-1.277-3.26-41.178,20.756-48.776,21.162c-0.927-2.226-2.353-3.673-3.959-3.679
		c-1.318-0.004-2.521,0.959-3.437,2.53c-0.096,0.158-0.188,0.324-0.278,0.496c-0.003,0.027-13.701-3.623-26.206-8.848
		c-12.744-4.867-24.293-11.309-25.492-8.662c-2.182,5.271-16.622,39.942-8.032,41.377c0.258,0.039,0.549,0.074,0.867,0.108
		c10.661,2.313,48.056-5.217,53.962-11.81c1.585-1.307,2.762-2.319,3.669-3.111c0.653,3.213,2.485,5.52,4.693,5.527
		c0.018,0,0.034-0.004,0.053-0.004c0.018,0,0.033,0.006,0.051,0.004c0.114,0.002,0.225-0.031,0.338-0.043
		c0.058-0.006,0.115-0.01,0.171-0.021c1.983-0.316,3.606-2.469,4.235-5.426c1.075,0.775,2.646,1.902,5.012,3.486
		c6.885,6.406,47.518,10.312,56.138,6.867C194.879,254.902,176.122,222.183,173.762,216.998"/>
	<path fill="#DEC023" d="M117.43,233.439c-0.005,0.027-13.38-3.618-25.568-8.775c-12.426-4.814-23.666-11.14-24.862-8.492
		c-2.17,5.273-16.58,39.955-8.146,41.336c8.88,2.613,47.891-4.982,53.774-11.895c6.642-5.729,6.471-5.822,6.519-5.797
		C118.551,237.694,117.979,235.567,117.43,233.439"/>
	<path fill="#F9DA5C" d="M60.488,254.339c-1.185-5.25,4.392-23.359,9.104-35.271c0.254,0.069,0.559,0.158,0.92,0.276
		c9.36,3.927,35.605,15.104,43.843,16.65c0.23,0.941,0.464,1.883,0.703,2.822c-1.672,1.5-3.385,2.979-5.141,4.432
		C104.969,248.764,71.611,256.186,60.488,254.339"/>
	<path fill="#DEC023" d="M124.295,234.324c0.004,0.041,13.032-4.742,24.572-10.841c11.834-5.79,22.18-12.896,23.6-10.346
		c2.338,5.194,20.975,37.956,13.021,39.954c-8.466,3.365-48.313-0.684-55.035-7.069c-7.31-5.123-7.14-5.241-7.188-5.207
		C123.622,238.652,123.966,236.49,124.295,234.324"/>
	<path fill="#F9DA5C" d="M183.41,250.146c-10.798,2.797-44.938-1.629-50.531-6.701c-1.92-1.293-3.799-2.615-5.636-3.968
		c0.136-0.956,0.268-1.913,0.396-2.869c12.331-3.935,35.453-17.208,42.576-20.409C175.929,227.671,183.794,244.934,183.41,250.146"
		/>
	<g opacity="0.36">
		<g>
			<g>
				<defs>
					<rect id="XMLID_58_" x="56.229" y="215.546" width="61.976" height="42.147"/>
				</defs>
				<clipPath id="XMLID_66_">
					<use xlink:href="#XMLID_58_" />
				</clipPath>
				<path clip-path="url(#XMLID_66_)" fill="#FFF2BF" d="M70.371,221.503c1.25-3.5,34.214,12.873,47.832,14.879
					c-0.264-0.98-0.521-1.961-0.773-2.941c-0.005,0.027-13.38-3.619-25.568-8.777c-12.426-4.813-23.666-11.139-24.862-8.49
					c-2.17,5.271-16.58,39.955-8.146,41.336c0.505,0.076,1.136,0.139,1.87,0.188C60.525,247.35,68.814,225.634,70.371,221.503"/>
			</g>
		</g>
	</g>
	<path fill="#DEC023" d="M125.837,239.237c0.142,4.818-2.064,8.796-4.929,8.784c-2.863-0.012-5.039-4.002-4.862-8.82
		c0.178-4.82,2.383-8.654,4.927-8.648C123.519,230.563,125.695,234.416,125.837,239.237"/>
	<path fill="#B4A432" d="M120.906,248.567c-3.286-0.013-5.692-4.19-5.479-9.388c0.211-5.202,2.649-9.184,5.549-9.174
		c2.902,0.013,5.311,4.012,5.482,9.215C126.631,244.419,124.193,248.58,120.906,248.567 M120.971,231.099
		c-2.188-0.008-4.158,3.684-4.305,8.119c-0.146,4.438,1.798,8.248,4.244,8.258s4.419-3.788,4.307-8.225
		C125.104,234.813,123.16,231.108,120.971,231.099"/>
	<path fill="#F7DD6E" d="M117.055,242.5c0.146-4.822,2.369-8.67,4.965-8.679c1.44-0.004,2.744,1.164,3.675,3.015
		c-0.651-3.709-2.5-6.418-4.639-6.426c-2.543-0.007-4.745,3.83-4.92,8.649c-0.067,2.168,0.319,4.162,1.04,5.707
		C117.08,244.041,117.034,243.283,117.055,242.5"/>
	<path fill="#C2A12E" d="M124.768,234.27c0.133,0.761,0.217,1.56,0.233,2.392c0.121,4.819-2.071,8.784-4.896,8.76
		c-1.725-0.014-3.217-1.533-4.039-3.823c0.467,3.676,2.381,6.415,4.741,6.424c2.864,0.013,5.073-3.961,4.935-8.78
		C125.697,237.384,125.331,235.675,124.768,234.27"/>
	<path fill="#D7B428" d="M107.604,237.772c-3.242-0.688-6.413-1.585-9.535-2.58c-3.127-0.983-6.18-2.134-9.184-3.362
		c-2.992-1.256-5.936-2.594-8.785-4.08c-1.424-0.746-2.834-1.512-4.229-2.293c-1.375-0.816-2.757-1.619-4.083-2.5
		c1.456,0.67,2.888,1.377,4.351,2.033c1.441,0.69,2.896,1.362,4.361,2.014c2.93,1.307,5.866,2.605,8.853,3.832
		c2.977,1.246,5.996,2.414,9.034,3.578C101.428,235.565,104.51,236.653,107.604,237.772"/>
	<path fill="#D7B428" d="M105.533,239.128c-4.646-0.508-9.188-1.521-13.636-2.785c-4.436-1.295-8.791-2.844-12.922-4.859
		c4.457,1.215,8.836,2.563,13.258,3.818C96.646,236.589,101.09,237.783,105.533,239.128"/>
	<path fill="#D7B428" d="M104.379,240.324c-3.074,0.987-6.287,1.569-9.552,1.981c-3.271,0.377-6.603,0.586-10.003,0.356
		c3.256-0.643,6.52-1.037,9.771-1.44C97.852,240.849,101.084,240.47,104.379,240.324"/>
	<path fill="#D7B428" d="M133.099,237.811c3.106-1.074,6.2-2.117,9.255-3.228c3.05-1.121,6.082-2.244,9.072-3.446
		c2.998-1.181,5.948-2.438,8.891-3.701c1.474-0.63,2.934-1.278,4.383-1.948c1.469-0.636,2.907-1.322,4.369-1.969
		c-1.337,0.861-2.726,1.645-4.108,2.438c-1.404,0.764-2.823,1.506-4.255,2.23c-2.866,1.445-5.823,2.738-8.829,3.951
		c-3.017,1.186-6.08,2.289-9.217,3.23C139.526,236.319,136.347,237.167,133.099,237.811"/>
	<path fill="#D7B428" d="M135.147,239.197c4.456-1.281,8.911-2.412,13.335-3.636c4.435-1.192,8.824-2.476,13.29-3.623
		c-4.15,1.953-8.521,3.438-12.97,4.668C144.344,237.806,139.795,238.755,135.147,239.197"/>
	<path fill="#D7B428" d="M136.283,240.41c3.288,0.19,6.513,0.616,9.761,1.035c3.238,0.452,6.493,0.896,9.734,1.584
		c-3.399,0.178-6.723-0.076-9.981-0.501C142.541,242.069,139.34,241.44,136.283,240.41"/>
</g>
<path fill="#3A291D" d="M207.5,178.203c0,0-3.667,23.116-3,31.45c0.667,8.333,2.333,18.589-5.667,21.293
	c-8,2.707-10.333-8.627-6.333-12.293c4-3.667,8.417-10.334,6.542-16.334s2.125-17.642-3.875-15.153l-6,2.487
	c0,0-3.668,6.666-2.334,10.666s-0.666,7.666-5.333,8s0-10.321,0-10.321s5.333-8.213,2.333-7.779"/>
<path fill="#4C3423" d="M200.787,210.099c0,0-1.229,7-3.563,9.5c-2.332,2.5-8.856,7.921-3.762,10.461
	c5.096,2.539,9.451-0.051,11.022-5.424C206.057,219.265,198.85,215.933,200.787,210.099"/>
<path fill="#674935" d="M198.139,229.621c0,0-3.847-2.377-2.787-5.644c1.06-3.265,1.034-5.324-0.952-3.843
	C192.414,221.617,191.801,229.871,198.139,229.621"/>
<path fill="#9B7E50" d="M10.673,150.583c0,0-8.718,7.747,0,16.963c8.719,9.219,41.052,16.647,41.052,16.647
	S5.622,169.401,10.673,150.583"/>
<g id="sprinkles">
	<path fill="#D3B42F" d="M70.551,134.979c0.004,0.682,1.505,1.225,3.352,1.214c1.849-0.011,3.343-0.569,3.339-1.251
		c-0.005-0.682-1.506-1.225-3.353-1.214C72.041,133.74,70.547,134.297,70.551,134.979"/>
	<path fill="#E82728" d="M70.977,133.172c-0.031-0.175-0.04-0.356-0.038-0.538C70.937,132.816,70.947,132.995,70.977,133.172"/>
	<path fill="#E82728" d="M73.26,135.653c-0.208-0.054-0.407-0.127-0.592-0.217C72.853,135.526,73.052,135.599,73.26,135.653"/>
	<path fill="#E82728" d="M72.604,135.397c-0.161-0.084-0.315-0.176-0.458-0.283C72.287,135.222,72.442,135.313,72.604,135.397"/>
	<path fill="#E82728" d="M75.308,129.849c0.036,0.018,0.073,0.033,0.108,0.051C75.381,129.882,75.344,129.867,75.308,129.849"/>
	<path fill="#E82728" d="M75.842,130.159"/>
	<path fill="#E82728" d="M76.712,131.141c-0.036-0.063-0.077-0.121-0.117-0.181c0.011,0.015,0.021,0.03,0.028,0.045
		C76.652,131.05,76.685,131.094,76.712,131.141"/>
	<path fill="#E82728" d="M71.437,134.335c-0.005-0.006-0.007-0.012-0.011-0.018c-0.021-0.035-0.051-0.066-0.071-0.101
		c0.009,0.007,0.02,0.012,0.029,0.018c-0.188-0.314-0.327-0.657-0.396-1.02c0.139,0.744,0.541,1.418,1.141,1.884
		c-0.276-0.216-0.506-0.482-0.692-0.772C71.435,134.329,71.435,134.332,71.437,134.335"/>
	<path fill="#E82728" d="M70.933,132.534c0.008-0.212,0.037-0.427,0.092-0.642C70.97,132.107,70.941,132.322,70.933,132.534"/>
	<path fill="#42B5B9" d="M73.949,130.138c1.438,0.144,1.034,0.736-0.556,0.869c-1.604,0.136-1.385,2.243-1.385,2.243
		c-0.454-0.79-0.15-1.896,0.512-2.556c-0.577,0.409-1.024,1.007-1.213,1.746c-0.159,0.624-0.104,1.247,0.103,1.809
		c0.296,0.208,0.629,0.374,1.001,0.469c1.654,0.422,3.339-0.579,3.76-2.234c0.157-0.621,0.114-1.244-0.088-1.804
		c-0.298-0.212-0.639-0.379-1.016-0.475C74.691,130.109,74.315,130.096,73.949,130.138"/>
	<path fill="#E82728" d="M76.415,130.712c0,0.001,0.001,0.002,0.001,0.002c-0.057-0.068-0.114-0.137-0.178-0.201
		c0,0,0.003,0.001,0.003,0.002C76.302,130.578,76.359,130.644,76.415,130.712"/>
	<path fill="#E82728" d="M77.106,132.685c-0.001,0.059,0,0.116-0.003,0.175C77.106,132.801,77.105,132.744,77.106,132.685"/>
	<path fill="#E82728" d="M77.062,132.114c0.012,0.063,0.019,0.125,0.024,0.188C77.079,132.239,77.072,132.177,77.062,132.114"/>
	<path fill="#E82728" d="M76.923,131.589c0.017,0.045,0.025,0.092,0.04,0.139C76.948,131.681,76.939,131.634,76.923,131.589"/>
	<path fill="#E82728" d="M75.966,130.261c-0.041-0.035-0.081-0.069-0.124-0.102c0,0,0.001,0.001,0.001,0.002
		C75.886,130.193,75.926,130.227,75.966,130.261"/>
	<path fill="#EF5656" d="M76.15,130.423c-0.059-0.057-0.12-0.11-0.185-0.162c-0.04-0.034-0.08-0.068-0.123-0.1
		C75.952,130.241,76.053,130.329,76.15,130.423"/>
	<path fill="#72CBD2" d="M71.41,134.249c-0.206-0.563-0.262-1.186-0.103-1.81c0.188-0.739,0.636-1.336,1.213-1.746
		c0.375-0.375,0.863-0.608,1.396-0.559c0.013,0.002,0.021,0.003,0.031,0.004c0.365-0.042,0.741-0.03,1.118,0.067
		c0.377,0.096,0.718,0.263,1.016,0.475c-0.064-0.18-0.146-0.355-0.241-0.521c-0.133-0.096-0.276-0.183-0.426-0.26
		c-0.035-0.017-0.072-0.033-0.109-0.05c-0.166-0.077-0.338-0.144-0.521-0.191c-1.656-0.421-3.341,0.579-3.762,2.235
		c-0.055,0.214-0.084,0.429-0.093,0.641c-0.001,0.034,0.007,0.067,0.007,0.1c-0.002,0.181,0.007,0.363,0.038,0.538
		c0.003,0.014,0.008,0.028,0.011,0.042c0.068,0.363,0.208,0.706,0.396,1.02C71.391,134.239,71.401,134.243,71.41,134.249"/>
	<path fill="#EF5656" d="M76.623,131.005c-0.01-0.016-0.019-0.03-0.028-0.045c-0.021-0.035-0.043-0.068-0.066-0.101
		C76.563,130.906,76.592,130.956,76.623,131.005"/>
	<path fill="#EF5656" d="M71.435,134.326c-0.004-0.003-0.007-0.007-0.009-0.009c0.004,0.006,0.006,0.012,0.011,0.018
		C71.435,134.332,71.435,134.329,71.435,134.326"/>
	<path fill="#EF5656" d="M76.415,130.712c-0.057-0.068-0.113-0.134-0.174-0.197C76.303,130.577,76.359,130.646,76.415,130.712"/>
	<path fill="#1B9292" d="M77.104,132.859c0.003-0.059,0.002-0.116,0.003-0.175c0.001-0.127-0.005-0.256-0.021-0.383
		c-0.007-0.062-0.015-0.125-0.024-0.187c-0.023-0.131-0.059-0.26-0.099-0.387c-0.016-0.047-0.023-0.094-0.04-0.139
		c-0.058-0.156-0.13-0.303-0.211-0.448c-0.027-0.047-0.061-0.091-0.089-0.135c-0.031-0.049-0.062-0.099-0.096-0.147
		c-0.034-0.049-0.072-0.097-0.111-0.145v-0.001c-0.058-0.067-0.113-0.135-0.175-0.198v-0.001c-0.031-0.03-0.061-0.061-0.092-0.091
		c-0.098-0.093-0.197-0.181-0.308-0.261c0-0.001-0.001-0.001-0.001-0.001v-0.001c0.096,0.166,0.177,0.341,0.24,0.52
		c0.203,0.56,0.246,1.183,0.089,1.804c-0.421,1.655-2.104,2.656-3.76,2.234c-0.372-0.094-0.705-0.26-1.001-0.468
		c-0.01-0.006-0.02-0.01-0.026-0.015c-0.009-0.007-0.021-0.012-0.029-0.019c0.021,0.036,0.05,0.067,0.071,0.102
		c0.002,0.002,0.005,0.006,0.009,0.009c0.188,0.29,0.416,0.555,0.692,0.771c0.008,0.005,0.012,0.012,0.019,0.017
		c0.143,0.107,0.297,0.199,0.458,0.283c0.022,0.012,0.041,0.027,0.064,0.039c0.185,0.09,0.384,0.163,0.592,0.217
		c1.654,0.42,3.339-0.58,3.76-2.235C77.066,133.231,77.091,133.045,77.104,132.859"/>
	<path fill="#FDEEED" d="M72.01,133.25c0,0-0.219-2.107,1.385-2.243c1.59-0.133,1.992-0.726,0.555-0.869
		c-0.01-0.001-0.019-0.002-0.03-0.004c-0.533-0.049-1.021,0.184-1.396,0.559C71.859,131.354,71.556,132.46,72.01,133.25"/>
	<path fill="#D3B42F" d="M95.127,97.431c0.004,0.682,1.505,1.226,3.352,1.215c1.849-0.01,3.342-0.57,3.338-1.25
		c-0.004-0.682-1.505-1.226-3.352-1.215C96.617,96.19,95.123,96.75,95.127,97.431"/>
	<path fill="#E82728" d="M95.553,95.624c-0.031-0.176-0.04-0.357-0.038-0.538C95.513,95.269,95.523,95.448,95.553,95.624"/>
	<path fill="#E82728" d="M97.836,98.104c-0.208-0.053-0.407-0.125-0.592-0.216C97.429,97.979,97.628,98.052,97.836,98.104"/>
	<path fill="#E82728" d="M97.18,97.849c-0.161-0.083-0.316-0.175-0.458-0.282C96.863,97.674,97.019,97.766,97.18,97.849"/>
	<path fill="#E82728" d="M99.884,92.301c0.036,0.017,0.073,0.032,0.108,0.05C99.957,92.333,99.92,92.318,99.884,92.301"/>
	<path fill="#E82728" d="M100.418,92.612"/>
	<path fill="#E82728" d="M101.288,93.593c-0.036-0.063-0.077-0.121-0.117-0.182c0.011,0.016,0.02,0.032,0.028,0.047
		C101.229,93.503,101.261,93.546,101.288,93.593"/>
	<path fill="#E82728" d="M96.013,96.788c-0.005-0.006-0.007-0.014-0.011-0.02c-0.021-0.035-0.051-0.064-0.071-0.099
		c0.009,0.006,0.021,0.01,0.029,0.017c-0.188-0.314-0.327-0.656-0.396-1.019c0.139,0.744,0.541,1.418,1.141,1.883
		c-0.276-0.216-0.506-0.482-0.692-0.772C96.011,96.78,96.011,96.784,96.013,96.788"/>
	<path fill="#E82728" d="M95.509,94.987c0.008-0.213,0.037-0.428,0.092-0.643C95.546,94.56,95.518,94.774,95.509,94.987"/>
	<path fill="#42B5B9" d="M98.525,92.59c1.438,0.144,1.035,0.735-0.555,0.87c-1.604,0.135-1.385,2.242-1.385,2.242
		c-0.454-0.789-0.15-1.896,0.512-2.556c-0.577,0.41-1.025,1.007-1.213,1.746c-0.159,0.625-0.104,1.248,0.102,1.81
		c0.297,0.207,0.63,0.373,1.001,0.468c1.655,0.421,3.34-0.579,3.761-2.234c0.156-0.62,0.113-1.243-0.088-1.804
		c-0.299-0.213-0.639-0.379-1.016-0.475C99.268,92.562,98.892,92.548,98.525,92.59"/>
	<path fill="#E82728" d="M100.991,93.165L100.991,93.165c-0.056-0.068-0.113-0.135-0.177-0.199c0,0,0.002,0,0.002,0.001
		C100.878,93.03,100.936,93.097,100.991,93.165"/>
	<path fill="#E82728" d="M101.683,95.138c-0.001,0.058,0,0.115-0.003,0.174C101.683,95.253,101.682,95.197,101.683,95.138"/>
	<path fill="#E82728" d="M101.638,94.567c0.011,0.063,0.018,0.124,0.024,0.188C101.655,94.691,101.648,94.63,101.638,94.567"/>
	<path fill="#E82728" d="M101.499,94.042c0.017,0.044,0.024,0.092,0.04,0.137C101.524,94.134,101.516,94.086,101.499,94.042"/>
	<path fill="#E82728" d="M100.542,92.712c-0.041-0.033-0.081-0.068-0.124-0.1c0,0,0.001,0,0.001,0.002
		C100.462,92.645,100.502,92.679,100.542,92.712"/>
	<path fill="#EF5656" d="M100.727,92.875c-0.059-0.058-0.12-0.11-0.185-0.163c-0.04-0.033-0.08-0.067-0.123-0.098
		C100.528,92.692,100.629,92.782,100.727,92.875"/>
	<path fill="#72CBD2" d="M95.986,96.702c-0.206-0.563-0.261-1.186-0.102-1.811c0.188-0.739,0.636-1.335,1.213-1.746
		c0.375-0.375,0.863-0.609,1.396-0.559c0.014,0.001,0.021,0.003,0.03,0.004c0.366-0.042,0.742-0.029,1.119,0.067
		c0.377,0.096,0.717,0.262,1.016,0.475c-0.064-0.18-0.146-0.356-0.241-0.52c-0.133-0.098-0.276-0.183-0.426-0.262
		c-0.035-0.017-0.072-0.033-0.108-0.049c-0.167-0.077-0.339-0.144-0.522-0.191c-1.655-0.422-3.34,0.58-3.761,2.235
		c-0.055,0.214-0.084,0.429-0.092,0.642c-0.001,0.033,0.006,0.065,0.006,0.099c-0.002,0.18,0.007,0.362,0.038,0.538
		c0.003,0.015,0.008,0.028,0.011,0.043c0.069,0.363,0.208,0.705,0.396,1.019C95.968,96.691,95.978,96.696,95.986,96.702"/>
	<path fill="#EF5656" d="M101.199,93.458c-0.01-0.016-0.019-0.031-0.028-0.047c-0.021-0.033-0.043-0.066-0.066-0.099
		C101.139,93.358,101.168,93.408,101.199,93.458"/>
	<path fill="#EF5656" d="M96.011,96.778c-0.004-0.004-0.007-0.006-0.009-0.01c0.004,0.006,0.006,0.014,0.011,0.02
		C96.011,96.784,96.011,96.78,96.011,96.778"/>
	<path fill="#EF5656" d="M100.991,93.165c-0.057-0.068-0.113-0.135-0.175-0.198C100.879,93.03,100.936,93.097,100.991,93.165"/>
	<path fill="#1B9292" d="M101.68,95.312c0.003-0.059,0.002-0.116,0.003-0.174c0.001-0.129-0.005-0.257-0.021-0.383
		c-0.008-0.063-0.015-0.125-0.024-0.187c-0.024-0.133-0.059-0.262-0.099-0.389c-0.016-0.045-0.023-0.093-0.04-0.137
		c-0.059-0.156-0.13-0.304-0.211-0.449c-0.027-0.047-0.061-0.09-0.089-0.135c-0.031-0.049-0.062-0.099-0.096-0.146
		c-0.035-0.05-0.073-0.098-0.111-0.146l0,0c-0.058-0.069-0.113-0.135-0.176-0.199v-0.001c-0.03-0.031-0.06-0.061-0.091-0.091
		c-0.098-0.092-0.198-0.182-0.308-0.26c0-0.002-0.001-0.002-0.001-0.002c0.096,0.164,0.177,0.34,0.241,0.519
		c0.201,0.561,0.244,1.184,0.088,1.804c-0.421,1.655-2.104,2.655-3.761,2.234c-0.372-0.094-0.703-0.26-1.001-0.467
		c-0.009-0.006-0.019-0.011-0.025-0.016c-0.009-0.008-0.021-0.012-0.029-0.018c0.021,0.036,0.05,0.065,0.071,0.1
		c0.002,0.004,0.005,0.006,0.009,0.01c0.187,0.29,0.416,0.555,0.692,0.771c0.008,0.004,0.012,0.012,0.019,0.017
		c0.142,0.107,0.297,0.199,0.458,0.282c0.022,0.013,0.041,0.028,0.064,0.04c0.185,0.091,0.384,0.163,0.592,0.216
		c1.653,0.422,3.339-0.578,3.76-2.234C101.643,95.683,101.667,95.498,101.68,95.312"/>
	<path fill="#FDEEED" d="M96.586,95.702c0,0-0.219-2.107,1.385-2.242c1.59-0.135,1.992-0.727,0.555-0.87
		c-0.01-0.001-0.019-0.003-0.03-0.004c-0.533-0.05-1.021,0.184-1.396,0.559C96.436,93.806,96.132,94.913,96.586,95.702"/>
	<path fill="#D3B42F" d="M148.37,118.538c0.008,1.4,3.091,2.516,6.883,2.494c3.795-0.021,6.863-1.17,6.854-2.568
		c-0.009-1.401-3.091-2.516-6.884-2.494S148.362,117.14,148.37,118.538"/>
	<path fill="#E82728" d="M149.244,114.827c-0.063-0.36-0.082-0.733-0.078-1.105C149.162,114.096,149.185,114.465,149.244,114.827"/>
	<path fill="#E82728" d="M153.934,119.922c-0.428-0.109-0.837-0.259-1.216-0.444C153.097,119.663,153.506,119.813,153.934,119.922"
		/>
	<path fill="#E82728" d="M152.586,119.396c-0.331-0.171-0.65-0.36-0.94-0.581C151.936,119.037,152.255,119.226,152.586,119.396"/>
	<path fill="#E82728" d="M158.139,108.002c0.074,0.035,0.15,0.067,0.223,0.104C158.289,108.069,158.213,108.037,158.139,108.002"/>
	<path fill="#E82728" d="M159.236,108.641"/>
	<path fill="#E82728" d="M161.023,110.655c-0.073-0.129-0.159-0.248-0.24-0.372c0.021,0.031,0.039,0.062,0.059,0.095
		C160.9,110.469,160.967,110.559,161.023,110.655"/>
	<path fill="#E82728" d="M150.189,117.216c-0.011-0.012-0.015-0.025-0.021-0.037c-0.044-0.072-0.104-0.135-0.146-0.207
		c0.02,0.014,0.04,0.022,0.062,0.037c-0.389-0.646-0.672-1.349-0.814-2.095c0.283,1.529,1.11,2.912,2.341,3.868
		c-0.567-0.443-1.039-0.989-1.422-1.585C150.186,117.202,150.186,117.21,150.189,117.216"/>
	<path fill="#E82728" d="M149.154,113.519c0.017-0.437,0.076-0.877,0.188-1.318C149.23,112.642,149.172,113.082,149.154,113.519"/>
	<path fill="#42B5B9" d="M155.35,108.596c2.952,0.295,2.126,1.511-1.14,1.786c-3.293,0.277-2.844,4.606-2.844,4.606
		c-0.934-1.621-0.31-3.895,1.051-5.25c-1.186,0.84-2.105,2.067-2.49,3.586c-0.327,1.282-0.215,2.561,0.208,3.716
		c0.608,0.426,1.292,0.768,2.056,0.961c3.399,0.866,6.857-1.188,7.723-4.588c0.322-1.274,0.233-2.554-0.182-3.704
		c-0.609-0.436-1.31-0.778-2.084-0.975C156.874,108.536,156.102,108.509,155.35,108.596"/>
	<path fill="#E82728" d="M160.413,109.776l0.002,0.002c-0.114-0.141-0.234-0.279-0.362-0.412c0,0,0.004,0.002,0.004,0.004
		C160.181,109.5,160.299,109.635,160.413,109.776"/>
	<path fill="#E82728" d="M161.833,113.827c-0.002,0.119,0,0.238-0.006,0.357C161.833,114.065,161.831,113.947,161.833,113.827"/>
	<path fill="#E82728" d="M161.741,112.655c0.021,0.129,0.035,0.256,0.05,0.386C161.777,112.911,161.762,112.784,161.741,112.655"/>
	<path fill="#E82728" d="M161.456,111.577c0.034,0.091,0.053,0.188,0.082,0.283C161.509,111.765,161.49,111.668,161.456,111.577"/>
	<path fill="#E82728" d="M159.491,108.847c-0.086-0.069-0.167-0.141-0.256-0.206c0,0,0.002,0.001,0.002,0.005
		C159.326,108.708,159.408,108.779,159.491,108.847"/>
	<path fill="#EF5656" d="M159.87,109.181c-0.12-0.117-0.247-0.227-0.379-0.334c-0.083-0.068-0.165-0.139-0.254-0.201
		C159.463,108.808,159.669,108.99,159.87,109.181"/>
	<path fill="#72CBD2" d="M150.135,117.04c-0.423-1.155-0.535-2.435-0.208-3.717c0.385-1.518,1.306-2.745,2.49-3.586
		c0.771-0.771,1.772-1.251,2.868-1.149c0.025,0.003,0.044,0.006,0.063,0.008c0.752-0.087,1.524-0.06,2.298,0.137
		c0.774,0.198,1.474,0.539,2.084,0.976c-0.132-0.369-0.299-0.73-0.495-1.068c-0.271-0.199-0.566-0.377-0.875-0.536
		c-0.071-0.036-0.147-0.068-0.223-0.103c-0.343-0.156-0.695-0.295-1.072-0.392c-3.4-0.865-6.858,1.192-7.724,4.59
		c-0.112,0.442-0.173,0.882-0.188,1.319c-0.002,0.068,0.013,0.134,0.013,0.203c-0.004,0.372,0.015,0.745,0.078,1.105
		c0.007,0.031,0.017,0.059,0.021,0.087c0.143,0.746,0.427,1.449,0.814,2.095C150.097,117.019,150.117,117.028,150.135,117.04"/>
	<path fill="#EF5656" d="M160.841,110.378c-0.02-0.032-0.036-0.063-0.059-0.095c-0.042-0.069-0.088-0.137-0.137-0.206
		C160.716,110.174,160.776,110.276,160.841,110.378"/>
	<path fill="#EF5656" d="M150.186,117.197c-0.009-0.007-0.015-0.013-0.02-0.02c0.009,0.012,0.013,0.026,0.022,0.038
		C150.186,117.21,150.186,117.202,150.186,117.197"/>
	<path fill="#EF5656" d="M160.413,109.776c-0.114-0.141-0.232-0.276-0.356-0.406C160.184,109.5,160.299,109.637,160.413,109.776"/>
	<path fill="#1B9292" d="M161.827,114.185c0.006-0.119,0.004-0.238,0.006-0.357c0.002-0.263-0.01-0.527-0.042-0.787
		c-0.015-0.129-0.028-0.256-0.05-0.385c-0.052-0.271-0.12-0.535-0.203-0.795c-0.029-0.095-0.049-0.193-0.082-0.283
		c-0.118-0.322-0.268-0.625-0.434-0.922c-0.057-0.096-0.123-0.187-0.183-0.278c-0.064-0.101-0.125-0.204-0.194-0.3
		c-0.071-0.102-0.15-0.2-0.232-0.299v-0.002c-0.114-0.139-0.231-0.278-0.357-0.406v-0.002c-0.063-0.064-0.122-0.127-0.186-0.188
		c-0.201-0.191-0.407-0.373-0.633-0.535c0-0.004-0.002-0.004-0.002-0.004v-0.001c0.195,0.339,0.363,0.699,0.495,1.068
		c0.415,1.15,0.504,2.43,0.182,3.705c-0.864,3.399-4.322,5.454-7.723,4.587c-0.764-0.193-1.446-0.535-2.056-0.961
		c-0.018-0.011-0.038-0.021-0.054-0.031c-0.021-0.014-0.042-0.023-0.062-0.037c0.042,0.072,0.104,0.135,0.146,0.207
		c0.004,0.006,0.01,0.012,0.019,0.019c0.383,0.595,0.854,1.141,1.422,1.585c0.017,0.008,0.023,0.023,0.038,0.033
		c0.29,0.221,0.609,0.41,0.94,0.581c0.046,0.024,0.084,0.058,0.132,0.081c0.379,0.186,0.788,0.335,1.216,0.444
		c3.397,0.865,6.856-1.188,7.722-4.589C161.751,114.948,161.801,114.566,161.827,114.185"/>
	<path fill="#FDEEED" d="M151.366,114.987c0,0-0.449-4.328,2.844-4.605c3.266-0.276,4.092-1.492,1.14-1.787
		c-0.021-0.002-0.038-0.004-0.063-0.007c-1.096-0.102-2.099,0.378-2.868,1.149C151.058,111.093,150.434,113.366,151.366,114.987"/>
	<path fill="#D3B42F" d="M138.107,37.594c0.004,0.682,1.505,1.225,3.353,1.214c1.848-0.01,3.342-0.569,3.338-1.25
		c-0.004-0.682-1.505-1.225-3.353-1.214C139.598,36.354,138.104,36.913,138.107,37.594"/>
	<path fill="#E82728" d="M138.533,35.787c-0.031-0.175-0.04-0.357-0.038-0.538C138.493,35.431,138.504,35.61,138.533,35.787"/>
	<path fill="#E82728" d="M140.816,38.268c-0.208-0.053-0.406-0.126-0.592-0.216C140.409,38.142,140.608,38.214,140.816,38.268"/>
	<path fill="#E82728" d="M140.16,38.012c-0.161-0.083-0.316-0.175-0.458-0.283C139.844,37.837,139.999,37.929,140.16,38.012"/>
	<path fill="#E82728" d="M142.864,32.463c0.036,0.017,0.073,0.033,0.108,0.05C142.938,32.496,142.9,32.48,142.864,32.463"/>
	<path fill="#E82728" d="M143.398,32.774"/>
	<path fill="#E82728" d="M144.269,33.755c-0.036-0.063-0.077-0.121-0.117-0.181c0.012,0.015,0.021,0.03,0.028,0.046
		C144.209,33.665,144.241,33.708,144.269,33.755"/>
	<path fill="#E82728" d="M138.993,36.95c-0.006-0.006-0.008-0.013-0.012-0.019c-0.021-0.035-0.052-0.065-0.07-0.1
		c0.009,0.006,0.019,0.011,0.028,0.018c-0.188-0.315-0.327-0.657-0.396-1.02c0.137,0.744,0.541,1.418,1.14,1.883
		c-0.275-0.216-0.506-0.481-0.691-0.771C138.991,36.943,138.991,36.947,138.993,36.95"/>
	<path fill="#E82728" d="M138.489,35.149c0.009-0.212,0.037-0.427,0.093-0.642C138.526,34.723,138.498,34.938,138.489,35.149"/>
	<path fill="#42B5B9" d="M141.506,32.752c1.438,0.144,1.035,0.736-0.555,0.87c-1.604,0.135-1.386,2.242-1.386,2.242
		c-0.455-0.789-0.149-1.896,0.513-2.556c-0.577,0.409-1.025,1.007-1.213,1.746c-0.159,0.624-0.104,1.247,0.102,1.81
		c0.296,0.207,0.629,0.373,1.001,0.468c1.655,0.421,3.339-0.579,3.76-2.234c0.157-0.621,0.114-1.244-0.088-1.804
		c-0.298-0.212-0.638-0.379-1.015-0.475C142.248,32.724,141.872,32.71,141.506,32.752"/>
	<path fill="#E82728" d="M143.972,33.327L143.972,33.327c-0.055-0.067-0.113-0.135-0.176-0.199c0,0,0.002,0,0.002,0.001
		C143.858,33.193,143.916,33.259,143.972,33.327"/>
	<path fill="#E82728" d="M144.663,35.3c-0.001,0.058,0,0.116-0.003,0.174C144.663,35.416,144.662,35.359,144.663,35.3"/>
	<path fill="#E82728" d="M144.618,34.729c0.011,0.063,0.018,0.125,0.023,0.188C144.636,34.854,144.629,34.792,144.618,34.729"/>
	<path fill="#E82728" d="M144.479,34.204c0.018,0.044,0.025,0.092,0.04,0.138C144.505,34.296,144.496,34.248,144.479,34.204"/>
	<path fill="#E82728" d="M143.522,32.875c-0.041-0.034-0.081-0.069-0.124-0.101c0,0.001,0.001,0.001,0.001,0.002
		C143.442,32.807,143.482,32.841,143.522,32.875"/>
	<path fill="#EF5656" d="M143.707,33.038c-0.06-0.057-0.12-0.11-0.186-0.163c-0.04-0.033-0.08-0.067-0.123-0.098
		C143.509,32.855,143.609,32.945,143.707,33.038"/>
	<path fill="#72CBD2" d="M138.967,36.864c-0.206-0.563-0.261-1.187-0.102-1.81c0.188-0.739,0.636-1.336,1.213-1.746
		c0.375-0.375,0.862-0.609,1.396-0.56c0.014,0.002,0.021,0.003,0.031,0.004c0.366-0.042,0.742-0.029,1.119,0.068
		c0.377,0.095,0.717,0.262,1.015,0.474c-0.063-0.18-0.146-0.355-0.241-0.52c-0.133-0.097-0.275-0.183-0.426-0.261
		c-0.035-0.017-0.072-0.033-0.108-0.05c-0.167-0.076-0.339-0.143-0.521-0.19c-1.656-0.422-3.34,0.579-3.761,2.234
		c-0.056,0.215-0.084,0.43-0.093,0.642c-0.001,0.034,0.007,0.066,0.007,0.099c-0.002,0.181,0.007,0.363,0.038,0.538
		c0.003,0.015,0.008,0.029,0.011,0.043c0.068,0.363,0.208,0.705,0.396,1.02C138.948,36.854,138.958,36.858,138.967,36.864"/>
	<path fill="#EF5656" d="M144.18,33.62c-0.009-0.016-0.018-0.031-0.028-0.046c-0.021-0.034-0.043-0.067-0.065-0.1
		C144.119,33.521,144.148,33.571,144.18,33.62"/>
	<path fill="#EF5656" d="M138.991,36.941c-0.005-0.003-0.008-0.006-0.01-0.009c0.004,0.006,0.006,0.012,0.012,0.018
		C138.991,36.947,138.991,36.943,138.991,36.941"/>
	<path fill="#EF5656" d="M143.972,33.327c-0.056-0.068-0.113-0.134-0.174-0.198C143.859,33.192,143.916,33.26,143.972,33.327"/>
	<path fill="#1B9292" d="M144.66,35.474c0.003-0.059,0.002-0.116,0.003-0.174c0.001-0.128-0.005-0.257-0.021-0.383
		c-0.007-0.063-0.014-0.125-0.023-0.188c-0.024-0.131-0.06-0.26-0.1-0.387c-0.015-0.046-0.022-0.094-0.04-0.138
		c-0.058-0.156-0.13-0.304-0.211-0.449c-0.026-0.047-0.06-0.09-0.089-0.135c-0.031-0.049-0.061-0.099-0.095-0.146
		c-0.035-0.05-0.073-0.098-0.113-0.146v-0.001c-0.056-0.067-0.112-0.135-0.174-0.198v-0.001c-0.032-0.03-0.061-0.061-0.091-0.091
		c-0.099-0.093-0.198-0.182-0.309-0.261c0-0.001-0.001-0.001-0.001-0.002c0.097,0.165,0.178,0.341,0.24,0.52
		c0.203,0.56,0.246,1.183,0.089,1.804c-0.422,1.655-2.104,2.656-3.76,2.234c-0.372-0.094-0.705-0.26-1.001-0.468
		c-0.009-0.006-0.02-0.01-0.026-0.015c-0.01-0.007-0.021-0.012-0.028-0.018c0.02,0.035,0.05,0.065,0.07,0.101
		c0.002,0.002,0.005,0.005,0.01,0.009c0.187,0.29,0.416,0.555,0.691,0.771c0.008,0.005,0.012,0.012,0.02,0.017
		c0.142,0.107,0.297,0.199,0.458,0.283c0.021,0.012,0.041,0.027,0.063,0.039c0.186,0.09,0.384,0.163,0.592,0.216
		c1.654,0.421,3.339-0.579,3.761-2.234C144.623,35.846,144.647,35.66,144.66,35.474"/>
	<path fill="#FDEEED" d="M139.566,35.865c0,0-0.219-2.107,1.386-2.243c1.59-0.133,1.991-0.726,0.555-0.869
		c-0.01-0.001-0.02-0.003-0.031-0.004c-0.533-0.05-1.021,0.184-1.396,0.559C139.416,33.969,139.112,35.075,139.566,35.865"/>
	<g id="stars">
		<path fill="#D91C5B" d="M122.35,138.996c0.158,2.413,0.321,4.828,0.488,7.242c2.168,1.381,4.414,2.813,6.736,4.304
			c-2.378,0.617-4.813,1.295-7.306,2.038c-0.611,2.312-1.27,4.63-1.969,6.951c-1.762-1.931-3.438-3.833-5.03-5.707
			c-2.703,0.188-5.415,0.453-8.131,0.793c1.733-2.117,3.386-4.204,4.958-6.265c-0.785-2.211-1.512-4.416-2.18-6.614
			c2.244,0.528,4.541,1.116,6.884,1.769C118.736,141.962,120.586,140.46,122.35,138.996"/>
		<path fill="#BE1F4C" d="M112.198,146.685c-0.548-1.568-1.063-3.137-1.553-4.7c-0.246-0.059-0.49-0.116-0.733-0.175
			c0.557,1.837,1.155,3.678,1.797,5.521C111.873,147.116,112.036,146.9,112.198,146.685"/>
		<path fill="#BE1F4C" d="M122.215,150.913c-0.604,2.313-1.249,4.63-1.939,6.952c-1.735-1.931-3.389-3.832-4.957-5.708
			c-2.208,0.154-4.42,0.361-6.637,0.62c-0.509,0.635-1.024,1.272-1.549,1.911c2.718-0.34,5.431-0.604,8.136-0.793
			c1.592,1.875,3.271,3.776,5.033,5.707c0.7-2.321,1.357-4.637,1.971-6.951c2.493-0.743,4.932-1.422,7.311-2.038
			c-0.663-0.425-1.32-0.845-1.972-1.261C125.845,149.839,124.045,150.358,122.215,150.913"/>
		<path fill="#EF5F98" d="M124.066,147.104c1.695,1.079,3.437,2.19,5.224,3.335c0.09-0.023,0.179-0.047,0.268-0.068
			c-1.889-1.215-3.726-2.39-5.512-3.529C124.053,146.928,124.06,147.016,124.066,147.104"/>
		<path fill="#EF5F98" d="M116.527,154.622c-0.134,0.008-0.268,0.018-0.401,0.023c1.334,1.554,2.725,3.123,4.173,4.713
			c0.036-0.116,0.071-0.235,0.106-0.354C119.063,157.524,117.771,156.065,116.527,154.622"/>
		<path fill="#EF5F98" d="M109.277,154.194c1.384-1.71,2.712-3.398,3.987-5.072c-0.817-2.217-1.577-4.428-2.278-6.633
			c2.273,0.549,4.597,1.156,6.967,1.828c1.562-1.232,3.065-2.439,4.515-3.62c-0.041-0.625-0.082-1.25-0.123-1.874
			c-1.761,1.465-3.607,2.967-5.539,4.512c-2.34-0.651-4.632-1.24-6.871-1.771c0.666,2.2,1.392,4.403,2.174,6.614
			c-1.568,2.063-3.221,4.148-4.949,6.267C107.864,154.356,108.57,154.272,109.277,154.194"/>
		<path fill="#D91C5B" d="M128.385,57.389c0.158,2.414,0.32,4.829,0.488,7.243c2.167,1.381,4.412,2.813,6.734,4.303
			c-2.377,0.618-4.813,1.296-7.304,2.038c-0.613,2.314-1.27,4.63-1.97,6.953c-1.763-1.932-3.438-3.833-5.03-5.708
			c-2.703,0.189-5.414,0.453-8.131,0.794c1.73-2.119,3.386-4.206,4.957-6.266c-0.785-2.211-1.511-4.415-2.179-6.615
			c2.243,0.53,4.54,1.118,6.884,1.769C124.771,60.356,126.621,58.854,128.385,57.389"/>
		<path fill="#BE1F4C" d="M118.232,65.078c-0.547-1.57-1.063-3.136-1.552-4.7c-0.245-0.059-0.49-0.117-0.735-0.175
			c0.56,1.837,1.158,3.678,1.799,5.522C117.907,65.509,118.07,65.292,118.232,65.078"/>
		<path fill="#BE1F4C" d="M128.248,69.307c-0.603,2.313-1.248,4.63-1.938,6.952c-1.734-1.931-3.388-3.832-4.956-5.708
			c-2.207,0.156-4.42,0.363-6.637,0.621c-0.51,0.635-1.026,1.272-1.55,1.911c2.718-0.34,5.431-0.605,8.136-0.794
			c1.594,1.875,3.271,3.777,5.033,5.707c0.7-2.321,1.356-4.638,1.971-6.951c2.493-0.742,4.931-1.421,7.31-2.038
			c-0.662-0.425-1.318-0.845-1.97-1.26C131.879,68.231,130.079,68.751,128.248,69.307"/>
		<path fill="#EF5F98" d="M130.101,65.497c1.694,1.08,3.438,2.19,5.224,3.336c0.09-0.023,0.179-0.047,0.268-0.07
			c-1.888-1.213-3.726-2.389-5.511-3.528C130.086,65.321,130.094,65.41,130.101,65.497"/>
		<path fill="#EF5F98" d="M122.563,73.016c-0.135,0.008-0.269,0.017-0.401,0.025c1.333,1.552,2.725,3.121,4.172,4.712
			c0.036-0.119,0.071-0.237,0.106-0.356C125.098,75.918,123.805,74.459,122.563,73.016"/>
		<path fill="#EF5F98" d="M115.311,72.588c1.383-1.709,2.713-3.399,3.988-5.072c-0.818-2.218-1.577-4.428-2.277-6.633
			c2.271,0.548,4.596,1.156,6.965,1.827c1.562-1.233,3.066-2.439,4.517-3.62c-0.042-0.625-0.084-1.249-0.124-1.873
			c-1.761,1.464-3.607,2.966-5.539,4.511c-2.339-0.651-4.632-1.24-6.872-1.769c0.666,2.199,1.392,4.404,2.176,6.615
			c-1.569,2.06-3.221,4.147-4.951,6.264C113.898,72.75,114.605,72.667,115.311,72.588"/>
		<path fill="#D91C5B" d="M160.892,67.682c0.104,1.587,0.211,3.174,0.32,4.762c1.426,0.907,2.901,1.849,4.429,2.829
			c-1.563,0.407-3.164,0.852-4.803,1.34c-0.402,1.522-0.834,3.045-1.295,4.571c-1.158-1.269-2.26-2.519-3.308-3.752
			c-1.776,0.124-3.561,0.297-5.346,0.521c1.139-1.392,2.226-2.765,3.259-4.119c-0.517-1.454-0.992-2.903-1.433-4.349
			c1.477,0.348,2.986,0.735,4.526,1.162C158.516,69.632,159.731,68.645,160.892,67.682"/>
		<path fill="#BE1F4C" d="M154.216,72.737c-0.359-1.032-0.7-2.062-1.021-3.09c-0.16-0.039-0.321-0.077-0.481-0.115
			c0.367,1.208,0.76,2.418,1.181,3.631C154.002,73.021,154.109,72.879,154.216,72.737"/>
		<path fill="#BE1F4C" d="M160.802,75.518c-0.396,1.521-0.821,3.045-1.274,4.571c-1.143-1.269-2.229-2.519-3.26-3.753
			c-1.451,0.103-2.906,0.239-4.363,0.409c-0.336,0.417-0.675,0.836-1.02,1.255c1.787-0.223,3.571-0.397,5.35-0.52
			c1.048,1.232,2.15,2.482,3.311,3.752c0.46-1.526,0.893-3.051,1.296-4.571c1.64-0.489,3.242-0.934,4.806-1.339
			c-0.436-0.28-0.867-0.556-1.295-0.83C163.188,74.811,162.006,75.152,160.802,75.518"/>
		<path fill="#EF5F98" d="M162.02,73.013c1.114,0.709,2.259,1.44,3.435,2.193c0.059-0.015,0.116-0.031,0.177-0.047
			c-1.242-0.797-2.45-1.569-3.624-2.319C162.011,72.898,162.015,72.955,162.02,73.013"/>
		<path fill="#EF5F98" d="M157.063,77.957c-0.088,0.005-0.177,0.01-0.265,0.016c0.877,1.02,1.792,2.052,2.744,3.098l0.068-0.234
			C158.729,79.865,157.879,78.905,157.063,77.957"/>
		<path fill="#EF5F98" d="M152.295,77.676c0.909-1.124,1.783-2.235,2.622-3.335c-0.538-1.458-1.037-2.912-1.497-4.362
			c1.494,0.361,3.021,0.76,4.579,1.201c1.025-0.81,2.017-1.603,2.97-2.379l-0.082-1.232c-1.157,0.963-2.371,1.95-3.642,2.966
			c-1.538-0.428-3.045-0.815-4.52-1.164c0.438,1.447,0.914,2.896,1.43,4.35c-1.031,1.354-2.116,2.727-3.255,4.12
			C151.366,77.782,151.83,77.727,152.295,77.676"/>
		<path fill="#D91C5B" d="M163.569,150.771c0.092,1.394,0.186,2.784,0.28,4.177c1.25,0.795,2.545,1.621,3.884,2.479
			c-1.37,0.355-2.773,0.746-4.211,1.176c-0.354,1.333-0.73,2.669-1.136,4.007c-1.015-1.112-1.981-2.209-2.898-3.289
			c-1.56,0.108-3.122,0.263-4.688,0.457c0.999-1.221,1.952-2.424,2.858-3.61c-0.452-1.275-0.871-2.545-1.257-3.814
			c1.294,0.307,2.617,0.645,3.969,1.021C161.485,152.482,162.552,151.616,163.569,150.771"/>
		<path fill="#BE1F4C" d="M157.716,155.204c-0.315-0.904-0.614-1.809-0.896-2.709c-0.141-0.034-0.28-0.066-0.422-0.102
			c0.321,1.06,0.667,2.121,1.036,3.184C157.529,155.453,157.623,155.328,157.716,155.204"/>
		<path fill="#BE1F4C" d="M163.49,157.643c-0.348,1.333-0.721,2.669-1.117,4.008c-1.001-1.112-1.953-2.209-2.857-3.291
			c-1.271,0.091-2.549,0.209-3.826,0.358c-0.294,0.365-0.592,0.732-0.895,1.102c1.566-0.197,3.132-0.349,4.69-0.457
			c0.918,1.081,1.887,2.176,2.9,3.29c0.405-1.338,0.784-2.674,1.138-4.007c1.438-0.43,2.843-0.82,4.213-1.178
			c-0.382-0.243-0.76-0.485-1.135-0.723C165.584,157.023,164.546,157.322,163.49,157.643"/>
		<path fill="#EF5F98" d="M164.559,155.446c0.978,0.622,1.98,1.265,3.011,1.923c0.053-0.014,0.104-0.025,0.154-0.039
			c-1.089-0.699-2.146-1.377-3.177-2.034C164.551,155.345,164.555,155.396,164.559,155.446"/>
		<path fill="#EF5F98" d="M160.212,159.781c-0.077,0.004-0.154,0.01-0.231,0.016c0.77,0.894,1.57,1.799,2.405,2.715l0.063-0.205
			C161.674,161.455,160.929,160.613,160.212,159.781"/>
		<path fill="#EF5F98" d="M156.032,159.535c0.797-0.984,1.563-1.959,2.299-2.925c-0.473-1.278-0.909-2.553-1.313-3.824
			c1.312,0.316,2.648,0.667,4.017,1.055c0.898-0.712,1.768-1.408,2.604-2.088l-0.071-1.08c-1.016,0.844-2.08,1.711-3.193,2.6
			c-1.349-0.375-2.669-0.715-3.961-1.02c0.384,1.268,0.802,2.539,1.254,3.814c-0.906,1.188-1.857,2.392-2.854,3.61
			C155.217,159.628,155.625,159.58,156.032,159.535"/>
		<path fill="#D91C5B" d="M190.988,152.273c0.055,0.822,0.109,1.646,0.166,2.469c0.739,0.47,1.506,0.958,2.297,1.466
			c-0.811,0.211-1.641,0.441-2.489,0.694c-0.208,0.788-0.433,1.577-0.671,2.368c-0.601-0.658-1.171-1.307-1.714-1.945
			c-0.922,0.064-1.847,0.154-2.771,0.271c0.591-0.721,1.153-1.432,1.689-2.135c-0.269-0.754-0.516-1.504-0.742-2.254
			c0.765,0.181,1.547,0.381,2.345,0.603C189.758,153.284,190.388,152.772,190.988,152.273"/>
		<path fill="#BE1F4C" d="M187.528,154.893c-0.186-0.535-0.361-1.069-0.527-1.603c-0.084-0.02-0.167-0.039-0.25-0.059
			c0.188,0.626,0.395,1.254,0.611,1.883C187.418,155.04,187.474,154.966,187.528,154.893"/>
		<path fill="#BE1F4C" d="M190.942,156.335c-0.205,0.787-0.426,1.576-0.659,2.369c-0.593-0.658-1.155-1.308-1.689-1.945
			c-0.752,0.053-1.507,0.123-2.262,0.211c-0.174,0.217-0.352,0.434-0.529,0.652c0.927-0.117,1.852-0.207,2.773-0.271
			c0.543,0.638,1.114,1.284,1.716,1.942c0.237-0.791,0.463-1.58,0.672-2.369c0.849-0.254,1.68-0.483,2.49-0.694
			c-0.227-0.146-0.448-0.287-0.671-0.429C192.18,155.968,191.566,156.146,190.942,156.335"/>
		<path fill="#EF5F98" d="M191.574,155.036c0.576,0.367,1.171,0.746,1.778,1.137c0.03-0.008,0.062-0.016,0.091-0.025
			c-0.644-0.412-1.27-0.813-1.878-1.201C191.569,154.976,191.571,155.006,191.574,155.036"/>
		<path fill="#EF5F98" d="M189.004,157.599c-0.046,0.003-0.091,0.006-0.137,0.009c0.453,0.529,0.929,1.063,1.422,1.606
			c0.013-0.041,0.023-0.082,0.036-0.123C189.868,158.587,189.428,158.091,189.004,157.599"/>
		<path fill="#EF5F98" d="M186.533,157.455c0.472-0.584,0.925-1.16,1.358-1.729c-0.279-0.756-0.538-1.51-0.776-2.262
			c0.773,0.187,1.565,0.395,2.375,0.623c0.531-0.421,1.045-0.832,1.537-1.234c-0.014-0.213-0.027-0.426-0.042-0.639
			c-0.6,0.499-1.229,1.012-1.889,1.537c-0.797-0.222-1.577-0.422-2.341-0.604c0.227,0.75,0.474,1.502,0.741,2.255
			c-0.535,0.702-1.099,1.414-1.688,2.136C186.052,157.509,186.292,157.479,186.533,157.455"/>
	</g>
</g>
<g id="cherry">
	<path fill="#D3B42F" d="M182.184,94.493c-0.109,2.541,9.124,7.025,17.27,3.357c8.076-3.61,8.966-10.035,7.01-10.574
		c-2.024-0.885-5.42,2.178-11.591,3.94C188.776,93.167,181.984,92.044,182.184,94.493"/>
	<path fill="#E82728" d="M207.478,84.115c0.436,5.729-5.861,11.699-13.907,13.267c-8.05,1.567-13.321-3.891-11.937-11.781
		c1.39-7.868,7.438-13.495,13.666-12.933C201.523,73.24,207.047,78.353,207.478,84.115"/>
	<path fill="#AB1E23" d="M201.026,74.548c1.713,2.083,2.869,4.572,2.918,7.303c0.244,5.977-6.056,11.968-13.909,13.278
		c-2.522,0.369-4.812,0.072-6.647-0.836c2.067,2.709,5.78,3.869,10.184,3.088c8.046-1.566,14.344-7.538,13.907-13.266
		C207.255,80.165,204.529,76.717,201.026,74.548"/>
	<path fill="#EE3F3E" d="M184.319,87.805c-0.027,0.019,0.873-8.169,5.703-10.622c4.752-2.386,9.07-0.763,4.315,1.885
		C189.479,81.822,186.978,85.534,184.319,87.805"/>
	<path fill="#FFFFFF" d="M193.216,76.966c-0.287-0.506-1.745-0.143-3.318,0.881c-1.572,1.02-2.683,2.334-2.413,2.863
		c0.268,0.53,1.824,0.058,3.415-0.985C192.492,78.679,193.501,77.475,193.216,76.966"/>
	<path fill="#AB1E23" d="M195.786,73.215c-0.009,0.009,1.276,2.909,3.704,3.155c2.412,0.264,2.418,0.256,2.417,0.259
		c0.004-0.005-0.681,0.841-3.179,0.544C196.236,76.87,196.065,75.218,195.786,73.215"/>
	<path fill="#EE3F3E" d="M201.699,76.896c0.003-0.003-1.267,0.576-3.053,0.243c-1.778-0.341-1.541-0.664-1.543-0.662
		c0.001-0.001-0.271,1.108,2.055,1.037C201.485,77.442,201.698,76.896,201.699,76.896"/>
	<path fill="#603813" d="M208.087,57.889c-0.063,0.067-0.13,0.134-0.192,0.203c-0.254,0.286-0.512,0.576-0.773,0.868
		c-0.51,0.596-1.034,1.202-1.577,1.822c-1.114,1.233-2.119,2.75-2.997,4.407c-0.886,1.662-1.673,3.474-2.384,5.379
		c-0.706,1.906-1.355,3.904-1.867,5.977c0.641-2.037,1.407-3.975,2.218-5.804c0.817-1.826,1.698-3.539,2.66-5.078
		c0.962-1.545,2.003-2.888,3.174-3.989c0.584-0.566,1.15-1.119,1.7-1.66c0.279-0.261,0.555-0.52,0.825-0.775
		c0.081-0.075,0.163-0.143,0.244-0.212C208.77,58.651,208.427,58.271,208.087,57.889"/>
</g>
</svg>
